<?xml version="1.0" encoding="utf-8"?>
<!-- Generator: Adobe Illustrator 16.0.0, SVG Export Plug-In . SVG Version: 6.00 Build 0)  -->
<!DOCTYPE svg PUBLIC "-//W3C//DTD SVG 1.1//EN" "http://www.w3.org/Graphics/SVG/1.1/DTD/svg11.dtd">
<svg version="1.1" xmlns="http://www.w3.org/2000/svg" xmlns:xlink="http://www.w3.org/1999/xlink" x="0px" y="0px" width="800px"
	 height="600px" viewBox="0 0 800 600" enable-background="new 0 0 800 600" xml:space="preserve">
<g id="Lions_Copyright" display="none">
	<text transform="matrix(1 0 0 1 16 26)" display="inline" font-family="'MyriadPro-Regular'" font-size="19">OSLO LIONS LOGOTYPE</text>
	<text transform="matrix(1 0 0 1 18 44)" display="inline" font-family="'MyriadPro-Regular'" font-size="19">WWW.OSLO-LIONS.NO</text>
	<text transform="matrix(1 0 0 1 579 588)" display="inline" font-family="'MyriadPro-Regular'" font-size="19">COPYRIGHT © OSLO LIONS</text>
</g>
<g id="Lions_Logo">
	<g>
		<g id="Shield">
			<path fill="#414142" d="M393.732,77.509c41.627-1.029,83.394,3.742,123.852,13.751c20.813,5.098,41.299,11.553,61.365,19.083
				c1.075,0.328,1.402,1.59,1.355,2.572c-0.654,36.015-1.31,72.029-1.965,108.043c-0.748,38.353-8.979,76.519-23.854,111.831
				c-10.71,25.818-24.93,50.141-41.533,72.59c-14.405,19.317-30.542,37.371-48.035,53.929c-15.809,14.78-32.6,28.577-50.514,40.691
				c-3.694,2.433-7.295,4.958-11.225,6.97c-1.122,0.607-2.198-0.234-3.181-0.702c-9.401-5.332-18.194-11.553-26.94-17.867
				c-23.152-17.212-44.48-36.902-63.423-58.698c-24.274-27.97-44.527-59.588-58.512-93.965
				c-15.341-37.277-22.871-77.735-22.263-118.052c0-34.938,0-69.877,0-104.815c-0.094-2.011,2.198-2.292,3.601-2.854
				C284.005,90.605,338.588,78.912,393.732,77.509L393.732,77.509z"/>
			<path fill="#D9531E" d="M280.638,105.619c57.342-16.136,117.818-21.047,176.984-14.171c21.749,2.525,43.404,6.454,64.546,12.067
				c15.902,4.256,31.57,9.214,47.006,14.827c-0.516,27.221-0.982,54.396-1.45,81.57c-0.281,11.225-0.233,22.45-0.89,33.676
				c-1.215,18.568-3.975,37.137-8.746,55.144c-8.325,31.103-21.655,60.756-38.773,87.978
				c-15.154,24.181-33.488,46.304-53.647,66.462c-15.575,15.622-32.366,29.981-50.28,42.89c-4.256,3.041-8.699,5.94-13.143,8.84
				c-20.018-12.16-38.399-26.847-55.611-42.749c-24.181-22.685-46.024-48.175-63.189-76.659
				c-10.149-16.791-18.802-34.518-25.725-52.852c-6.314-16.838-11.178-34.237-13.984-52.011
				c-2.573-15.949-3.835-32.085-3.882-48.269c0.047-34.471,0-68.988,0.047-103.506C253.323,113.944,266.887,109.501,280.638,105.619
				L280.638,105.619z"/>
			<path fill="#FFFFFF" d="M325.352,106.18c53.647-9.495,108.979-9.308,162.626,0.515c23.946,4.163,47.38,11.131,70.345,19.083
				c-0.468,21.936-0.795,43.919-1.217,65.902c-97.658,39.054-195.272,78.062-292.932,117.117l-0.047,0.047
				c-3.086-9.495-6.127-19.083-7.951-28.905c-3.648-18.615-5.472-37.651-5.566-56.641c0-32.319,0.047-64.686,0-97.005
				c12.815-4.443,25.725-8.653,38.821-12.161C301.264,110.811,313.284,108.285,325.352,106.18L325.352,106.18z"/>
			<path fill="#414142" d="M264.174,308.796c97.66-39.055,195.273-78.063,292.932-117.117c-0.187,10.991-0.373,21.982-0.607,32.974
				c-0.515,14.406-1.918,28.765-4.537,42.89c-86.107,34.658-172.261,69.27-258.368,103.927
				c-8.278-13.282-15.341-27.314-21.515-41.673C269.226,322.875,266.419,315.905,264.174,308.796L264.174,308.796z"/>
		</g>
		<g id="Lion">
			<path d="M402.479,33.029c2.385-0.562,4.864-0.889,7.343-1.029c-1.964,1.964-4.583,3.087-6.36,5.192
				c-2.059,2.432-4.537,4.771-5.146,7.998c-0.515,2.712-1.637,5.425-1.309,8.231c0.467,2.713,2.011,5.098,2.993,7.671
				c1.263,3.414,3.976,6.127,7.017,8.044c2.806-5.191,6.734-9.588,11.038-13.564c2.479-2.245,4.442-5.004,7.296-6.782
				c3.555-2.198,6.782-4.911,10.664-6.548c4.537-1.871,9.168-3.695,14.078-4.116c4.116-0.374,8.186,0,12.301,0
				c-1.964,2.245-4.724,3.695-6.641,6.034c-3.368,4.069-6.596,8.653-7.624,13.985c-1.169,4.771-2.713,10.056-0.188,14.686
				c2.62-2.385,5.005-5.098,8.091-6.875c8.232-4.584,17.072-8.419,26.474-9.916c7.156-0.842,14.593-0.514,21.468,1.778
				c-4.35,3.086-6.828,7.998-8.559,12.909c-2.619,5.004-2.666,10.851-2.292,16.37c4.257-3.789,9.12-7.483,15.014-7.951
				c6.36-0.281,13.143,1.216,18.054,5.425c1.217,0.936,1.871,2.339,2.572,3.695c-5.238,0.561-10.71,4.303-10.943,9.962
				c5.285,0.655,10.57,2.385,14.967,5.472c5.051,3.695,9.073,8.653,12.066,14.078c4.069,7.577,8.419,15.201,9.494,23.854
				c-2.618-2.245-4.723-5.145-7.811-6.829c-2.946-1.497-6.033-2.947-9.307-3.321c-3.088-0.421-6.174-1.076-9.309-0.655
				c2.619,1.637,5.66,2.433,8.186,4.209c8.98,6.595,15.949,16.37,17.633,27.549c0.422,3.041,0.422,6.081,0.281,9.121
				c-2.105-1.356-3.367-3.555-4.351-5.8c-1.263-3.04-3.46-5.519-5.706-7.904c-5.332-5.519-12.207-9.869-19.925-10.945
				c1.638,1.263,3.462,2.433,4.817,4.069c4.163,5.145,8.513,10.29,11.086,16.51c2.572,6.455,4.068,13.377,4.115,20.346
				c-2.432-2.573-3.882-5.8-6.221-8.419c-3.882-5.239-9.4-9.822-16.09-10.477c5.613,4.864,8.419,11.927,11.226,18.615
				c0.982,2.572,2.433,5.051,2.946,7.811c1.076,5.191,3.182,10.196,3.321,15.575c0.562,8.605,1.73,17.773-1.917,25.911
				c-0.609,0.047-1.217,0.14-1.824,0.234c-0.702-3.882-0.936-8.045-3.229-11.412c-3.367-5.005-9.026-7.858-14.686-9.542
				c4.021,4.396,6.548,9.916,8.045,15.622c2.853,8.044,3.742,16.604,4.584,25.069c0.046,6.454,0.186,13.096-1.591,19.364
				c-0.982-0.749-2.292-1.45-2.339-2.806c-0.654-4.21-2.245-8.279-5.051-11.459c0.981,3.929,2.525,7.717,3.32,11.693
				c0.795,3.695,0.654,7.53,0.654,11.272c0.094,6.408-0.279,12.862-1.777,19.13c-1.776,6.641-4.068,13.143-6.547,19.551
				c-1.17,3.367-1.029,6.969-1.404,10.477c-2.01-2.105-3.133-4.959-3.367-7.858c-0.468-5.378,0.094-11.038-2.011-16.183
				c-3.274-6.969-6.829-14.313-13.097-19.13c0.982,5.332,2.386,10.571,2.854,15.996c0.842,8.372,0.842,16.884-0.654,25.21
				c-1.497,6.455-2.9,13.002-5.707,19.083c-2.151,4.724-3.929,9.962-7.951,13.47c-0.421-2.572-0.094-5.145-0.047-7.717
				c-0.374-7.577-3.929-14.967-9.729-19.832c-0.047,4.771,1.17,9.448,1.123,14.219c-0.234,5.613,0.561,11.272-0.094,16.838
				c-1.543,9.309-4.724,18.148-7.391,27.129c-1.216,4.256-2.945,8.277-4.021,12.534c-0.469,0.047-0.936,0.094-1.404,0.14
				c-0.748-9.4-4.629-18.334-9.962-26.004c-0.748,7.67-5.051,14.312-7.249,21.561c-1.73,6.83-0.141,13.985,2.338,20.393
				c-5.752-2.619-10.195-7.576-13.049-13.143c-3.181-6.174-4.022-13.283-3.461-20.158c-2.9,2.151-5.005,5.145-7.53,7.717
				c-2.714,2.807-4.584,6.408-5.753,10.15c-1.496,5.799-3.274,11.6-2.994,17.68c-0.187,4.303,1.311,8.418,1.356,12.675
				c-2.525-0.421-3.087-3.087-4.35-4.864c-4.443-5.986-10.43-11.132-12.815-18.381c-1.778-6.034-0.188-12.348,1.543-18.241
				c-3.041,2.104-5.005,5.285-7.203,8.138c-5.005,7.25-8.559,15.575-9.869,24.321c-0.795,3.228-0.421,6.501-0.842,9.776
				c-1.591-1.591-2.854-3.556-3.461-5.707c-1.543-4.957-3.087-10.01-3.04-15.201c0.14-5.379,1.263-10.617,2.292-15.855
				c-2.854,2.432-5.566,5.145-7.109,8.606c-1.871,4.443-4.491,8.513-5.66,13.189c-0.795,2.853-0.561,5.94-2.151,8.56
				c-3.321-9.963-3.976-20.627-7.717-30.496c-1.263,4.21-3.181,8.139-5.099,12.067c-0.561,1.216-2.011,1.497-3.086,1.965
				c0.187-4.49,0.748-9.167-0.889-13.47c-1.964-5.146-4.116-10.431-7.951-14.547c-1.777-1.918-4.724-2.899-7.25-1.918
				c-1.59,0.702-2.058,2.62-2.385,4.163c-0.795,3.461,1.31,6.642,2.011,9.916c-2.292-0.936-3.882-2.854-5.707-4.443
				c-2.666-2.479-5.565-4.817-7.437-7.999c-2.853-4.35-4.35-9.4-6.408-14.171c-1.076-2.526-1.964-5.192-2.198-7.951
				c-0.748-7.577-2.011-15.247-1.122-22.919c0.327-3.741,1.59-7.343,1.684-11.084c-3.508,2.854-5.426,7.529-5.005,12.066
				c0,1.777,1.403,3.134,1.684,4.865c-3.508,0-6.221-2.667-8.326-5.192c-2.525-3.461-4.911-7.202-5.893-11.412
				c-0.982-3.835-1.123-7.812-1.497-11.693c-0.748-7.997,0.562-16.089,3.695-23.479c1.31-3.134,2.572-6.408,2.479-9.916
				c-3.087,2.011-4.958,5.379-6.595,8.56c-1.31,2.432-1.123,5.239-1.123,7.905c-0.421-0.141-1.263-0.422-1.731-0.563
				c-0.187-3.086,0.421-6.22-0.187-9.307c-0.515-2.9-1.216-5.8-2.386-8.513c-0.982,3.274-0.795,6.922-2.619,9.916
				c-1.684,2.807-3.228,5.707-5.332,8.232c-0.468,0.607-1.31,0.701-1.965,0.982c1.731-9.542-2.151-18.662-4.256-27.783
				c-1.356-5.191-1.543-10.57-1.263-15.902c0.094-2.619,1.403-4.911,2.713-7.109c-2.947-2.619-5.052-6.081-6.455-9.729
				c-3.367,2.572-7.062,4.677-10.991,6.314c0.655-2.853,2.105-5.472,2.666-8.372c0.936-5.332,1.169-10.804,0.749-16.183
				c-0.187-2.806-0.655-5.612-0.468-8.465c0.327-3.929,2.245-7.483,3.835-10.991c-3.04-0.468-5.939,1.028-8.091,3.086
				c-2.479,2.011-3.742,5.005-5.285,7.671c-0.608-0.468-1.403-0.889-1.497-1.778c-1.216-5.332-0.374-10.944,1.31-16.089
				c1.73-5.286,4.677-10.01,8.091-14.313c1.824-2.947,4.209-5.473,6.314-8.185c-1.684-2.245-2.993-4.818-3.789-7.53
				c-4.256-13.985-1.403-29.466,5.659-42.048c1.73-3.742,3.415-8.326,7.764-9.635c-1.637,4.677-0.701,10.243,3.041,13.611
				c0.374-3.742,1.216-7.39,1.777-11.085c0.467-2.994,0.233-6.034,0.655-9.027c0.748-5.987,2.619-11.74,3.461-17.727
				c0.281-2.151-1.169-4.022-1.871-5.987c1.123,0.608,2.245,1.216,3.134,2.151c2.9,3.18,5.051,6.922,7.109,10.664
				c2.807-7.016,6.221-13.844,10.758-19.972c3.274-3.789,6.595-8.559,11.973-9.308c-2.432,4.209-6.174,7.764-7.343,12.628
				c-1.45,4.256-0.936,8.934,0.936,12.956c0.421,0.842,0.749,1.964,1.824,2.151c3.04-5.987,5.659-12.254,9.495-17.867
				c2.9-5.004,6.969-9.214,10.617-13.704c2.105-2.572,4.724-4.724,7.53-6.501c2.994-1.777,5.894-3.929,9.401-4.49
				c-0.795,3.181-2.386,6.081-3.18,9.261c-1.45,6.314-1.965,13.096,0.14,19.364c4.724-1.917,9.214-4.63,12.862-8.185
				c3.086-3.181,6.033-6.501,8.605-10.103c1.824-2.479,2.246-5.52,3.415-8.279c2.619-6.688,7.156-12.722,13.096-16.791
				c2.573-1.777,5.659-2.432,8.372-3.835c2.292-1.216,4.817-1.777,7.25-2.573C398.69,34.526,400.467,33.45,402.479,33.029
				L402.479,33.029z"/>
			<path fill="#D9531E" d="M379.419,51.551c3.555-3.602,7.577-7.109,12.582-8.56c-2.058,7.063-1.59,14.874,1.73,21.468
				c1.73,3.835,4.817,6.735,7.67,9.729c3.04,2.899,6.127,5.846,9.448,8.419c2.011-5.94,4.396-11.974,8.699-16.698
				c2.151-2.526,5.052-4.256,7.671-6.314c2.994-2.338,5.8-4.911,9.167-6.735c2.76-1.497,5.332-3.415,8.278-4.443
				c-2.057,5.987-4.771,11.833-5.846,18.147c-0.795,3.882-0.469,7.858,0,11.74c0.561,4.209,0.467,8.7,2.525,12.582
				c2.105-3.461,4.771-6.642,7.951-9.214c4.817-4.49,10.336-8.185,15.996-11.553c6.455-3.228,13.33-6.081,20.627-6.735
				c-1.029,1.169-2.386,1.964-3.836,2.432c-4.303,1.543-8.699,3.134-12.488,5.753c-2.151,1.45-4.443,2.994-5.613,5.379
				c3.462-1.543,6.549-4.209,10.524-4.49c-0.981,1.918-2.104,3.882-1.917,6.127c1.169-0.702,2.244-1.637,3.227-2.62
				c0.889,1.263,2.105,2.526,1.918,4.163c-0.188,1.544-1.264,2.76-2.059,3.976c0.422,0.421,0.842,0.842,1.311,1.263
				c-0.702,0.608-1.451,1.169-1.965,1.917c0.234,2.245,1.449,4.21,2.713,5.987c1.449,2.011,2.9,4.022,4.724,5.707
				c-2.479-4.022-4.677-9.074-2.572-13.751c0.655,2.994,0.562,6.127,1.45,9.121c0.607-1.917-0.234-3.835-0.281-5.706
				c-0.28-3.789-0.327-7.624,0.281-11.319c0.795-4.771,3.227-8.98,4.817-13.47c0.187-0.748,0.935-1.029,1.543-1.31
				c1.544-0.655,3.134-1.123,4.725-1.59c-2.058,4.022-4.725,7.811-6.361,12.067c-2.198,5.191-2.946,10.944-1.823,16.463
				c0.888,4.396,2.665,8.56,5.098,12.301c1.777-2.9,3.227-6.127,5.799-8.419c6.127-6.127,15.107-9.682,23.761-7.951
				c-3.04,2.058-6.034,4.256-8.98,6.501c0.655-1.637,1.356-3.228,1.964-4.864c-2.01,0.327-3.787,1.496-5.004,3.086
				c-1.73,2.245-3.789,4.537-4.256,7.437c-0.422,2.198-0.141,4.443,0.374,6.595c2.011-2.807,2.058-6.642,4.583-9.074
				c0.047,3.368-1.871,6.595-0.889,9.962c3.228-0.187,6.502-1.356,9.682-0.374c7.156,1.964,14.313,5.472,18.85,11.553
				c2.432,3.367,5.098,6.595,7.016,10.29c-3.741-0.375-7.391-1.403-11.178-1.356c-5.66,0.094-11.133,2.011-16.043,4.677
				c3.32,2.853,7.717,3.882,11.506,5.847c3.273,1.59,5.846,4.163,8.84,6.08c1.917,1.216,3.648,2.666,5.051,4.443
				c-3.134-0.468-5.893-2.058-8.934-2.853c-4.536-1.169-9.213-1.543-13.844-1.216c-2.479,0.188-5.426-0.374-7.25,1.731
				c1.824,1.169,3.789,2.058,5.473,3.414c3.602,2.9,7.343,5.707,10.523,9.121c2.292,2.619,4.443,5.379,6.033,8.466
				c-2.012-0.328-3.929-0.936-5.846-1.637c-2.713-0.935-5.566-1.31-8.326-2.011c-2.291-0.608-4.63,0-6.922,0.141
				c-1.965,0.093-3.883,0.14-5.8,0.374c-0.047,0.515-0.141,1.029-0.187,1.543c1.449,0.889,2.853,1.871,4.162,3.041
				c3.789,3.461,8.139,6.594,10.758,11.178c6.455,11.131,9.963,23.76,11.786,36.435c-8.372-4.069-18.007-5.846-27.221-4.069
				c1.87,2.292,4.022,4.35,5.8,6.735c3.273,4.35,5.893,9.167,7.717,14.312c3.04,7.531,4.631,15.622,4.911,23.713
				c-5.332-3.274-10.851-7.624-17.493-6.875c1.123,2.854,3.648,4.865,4.959,7.624c1.496,3.087,2.385,6.455,3.273,9.729
				c1.777,6.641,2.946,13.517,2.479,20.392c-0.374,4.864,0.047,9.822-1.355,14.546c-4.49-6.875-10.664-12.862-18.055-16.604
				c-2.104-0.936-4.537-2.058-6.875-1.403c-1.45,0.515-0.982,2.105-0.375,3.134c3.789,7.624,3.274,16.37,3.836,24.648
				c-0.188,6.876,0.141,13.893-1.871,20.58c-0.936,3.367-1.496,6.922-3.18,10.057c-2.854-2.713-5.333-5.848-8.607-8.092
				c-3.602-2.713-8.091-3.976-12.487-4.631c0.141,2.994,0.515,5.986,1.263,8.934c1.263,5.145,1.637,10.43,1.918,15.715
				c0.141,5.146,0.141,10.384-0.842,15.482c-1.264,6.641-1.777,13.517-4.303,19.877c-4.537-4.77-4.678-12.02-9.027-16.931
				c-3.088-3.368-7.156-5.94-11.6-6.923c1.31,5.099,2.011,10.337,2.104,15.622c-0.046,3.415-0.888,6.829-2.339,9.962
				c-1.169,2.526-1.823,5.239-3.414,7.578c-1.59-5.754-1.824-12.161,0.748-17.68c-3.834,0.701-7.342,2.479-10.851,4.068
				c-3.602,1.638-6.642,4.21-9.588,6.782c-2.76,2.433-5.239,5.146-7.203,8.231c-1.497,2.293-2.011,5.052-3.462,7.344
				c-1.215-4.771-0.14-9.729,0.188-14.547c0.094-2.619,0.982-5.145,1.637-7.67c-5.472,1.029-9.494,5.145-13.844,8.232
				c-2.245,1.824-4.35,3.788-6.361,5.846c-1.871,1.918-3.134,4.35-4.958,6.268c-0.608-4.115,1.356-7.811,2.9-11.459
				c-3.602,0.748-6.922,2.339-10.337,3.602c-2.946,1.59-5.986,3.227-8.325,5.659c-1.684,1.73-3.134,3.647-4.817,5.379
				c-3.274-6.034-6.034-12.628-11.132-17.493c-1.871-1.964-4.256-3.414-6.782-4.443c0.234,1.918,0.655,3.789,0.982,5.66
				c-3.648-3.555-6.408-8.045-10.617-10.992c-3.04-2.151-7.296-2.806-10.57-0.936c-2.152,1.076-3.228,3.274-4.63,5.099
				c-1.731-2.807-2.432-6.127-2.993-9.354c-1.31-6.875-2.292-13.891-2.666-20.859c-0.234-3.742,0.234-7.484,0.14-11.227
				c-0.047-5.332,0.234-10.804-1.356-15.948c-0.468-1.497-0.468-3.087-0.375-4.631c-1.824,0.421-3.694,0.842-5.332,1.777
				c-3.04,1.685-5.332,4.396-7.905,6.688c-1.029-0.842-2.385-1.637-2.572-3.087c-0.655-2.993-0.514-6.081-0.702-9.12
				c-0.561-5.332,0.562-10.617,0.936-15.902c0.468-7.484,2.385-14.78,4.35-21.983c-2.479-0.234-5.004-0.514-7.483,0.14
				c-2.479,0.702-4.396,2.479-6.595,3.742c-2.76-5.378-4.303-11.693-9.261-15.575c0.187,5.707,0.093,11.506-1.824,16.932
				c-1.216-2.479-1.917-5.145-2.9-7.717c-1.31-3.695-2.713-7.577-2.619-11.553c0.281-3.228,1.169-6.408,2.9-9.121
				c2.619,1.169,5.191,2.432,8.044,3.04c2.854,0.655,5.8,0.562,8.7,0.514c1.637,4.069,4.022,7.765,6.501,11.366
				c0.562,0.888,1.403,1.45,2.246,2.058c0.093,0.14,0.28,0.374,0.374,0.468c1.31,2.479,3.508,4.35,5.847,5.846
				c-2.105-6.968-4.069-14.967-0.421-21.749c0.936,0.655,1.918,1.263,2.854,1.871c0.748-0.654,1.543-1.31,2.338-1.917
				c1.356,3.789,0.421,7.904,1.076,11.787c0.562,3.601,0.655,7.25,0.889,10.898c1.169-2.152,2.104-4.865,4.584-5.8
				c1.262-0.421,3.18-0.468,3.976,0.795c0.795,3.368-0.842,6.875-3.087,9.354c0.14-2.479,0.842-4.864,1.029-7.343
				c-0.982,1.824-2.151,3.555-3.181,5.332c-0.795,3.555-2.104,6.969-2.432,10.617c0.842-0.842,1.684-1.73,2.526-2.572
				c0,1.684-0.047,3.367,0.047,5.098c1.777-1.263,3.32-2.947,5.425-3.602c0.093,2.572-0.327,5.098-0.374,7.67
				c-0.094,3.368,1.543,6.455,3.134,9.355c0.514,1.028,1.263,2.058,1.076,3.273c-0.187,2.059-0.515,4.209-1.637,5.986
				c-1.076,1.73-2.479,3.274-3.227,5.239c-1.964,5.099-2.292,10.804-1.263,16.183c0.654,6.455,2.946,12.723,6.501,18.148
				c0.468-2.387,0.047-4.818,0.375-7.203c0.234-2.386,0.936-4.678,2.058-6.782c1.169,1.591,1.497,3.602,2.152,5.425
				c1.496,4.725,3.274,9.448,6.08,13.518c2.292,3.414,4.537,6.922,7.53,9.822c2.712,2.807,6.08,4.911,9.354,7.063
				c2.385,1.543,4.864,2.993,7.624,3.789c-1.543-3.088-4.022-5.613-5.659-8.653c-1.543-2.666-2.386-5.706-2.854-8.747
				c2.713,1.918,5.052,4.304,7.671,6.314c3.648,2.947,7.951,4.912,12.114,7.016c6.173,2.994,12.769,5.754,19.737,5.566
				c-1.824-2.572-5.004-3.695-6.969-6.127c-1.965-2.292-3.461-4.958-4.49-7.764c3.742,1.402,7.156,3.741,11.225,4.35
				c6.034,0.889,12.208,2.011,18.288,1.075c3.929-0.748,7.812-1.777,11.226-3.788c3.181-1.685,5.847-4.116,8.793-6.08
				c-2.151,0.14-4.35,0.42-6.501,0c-2.525-0.516-4.818-1.591-6.969-2.854c1.964-4.022,6.548-5.566,9.073-9.121
				c0.935-1.122,1.87-2.244,2.619-3.461c4.257-7.437,7.39-15.762,7.53-24.414c-0.047-4.07,0.094-8.139-0.188-12.161
				c-0.233-2.899-0.093-5.894,0.936-8.653c0.375,0.047,1.076,0.141,1.404,0.188c1.543,6.174-1.591,12.582,0.654,18.662
				c0.14-0.047,0.467-0.047,0.654-0.047c3.181-6.455-0.607-14.499,3.742-20.533c2.572,2.525,2.385,6.361,1.684,9.635
				c-1.076,5.099-1.029,10.337-2.385,15.342c-0.563,2.198-1.451,4.256-2.105,6.408c0.468,0.373,0.982,0.748,1.497,1.169
				c0.748-2.058,1.169-4.304,2.572-6.081c0.795-0.982,2.011-1.543,3.134-2.058c-0.281,1.263-0.654,2.526-0.982,3.788
				c4.022,0.375,7.344-2.057,10.664-3.881c3.32-1.871,5.8-4.818,8.466-7.438c2.151-2.012,3.976-4.396,5.847-6.642
				c2.807,1.965,2.993,5.706,2.385,8.794c1.076-1.544,2.386-2.947,3.555-4.443c1.123-3.041,1.497-6.361,2.479-9.449
				c0.421,0.702,0.888,1.404,1.31,2.105c2.011-1.73,2.385-4.49,3.04-6.876c1.356-6.782,1.777-14.031-0.515-20.672
				c-0.982-3.415-2.572-6.642-3.648-10.056c3.228,0.234,5.52,2.666,8.279,3.929c0.28-2.245,0-4.958,1.777-6.688
				c2.479-0.562,4.677,1.356,6.969,2.105c0.374-2.76-0.047-5.519-0.468-8.232c2.479-0.141,3.508,2.432,5.098,3.882
				c-0.28-3.134-1.543-5.986-2.385-8.934c-1.075-3.694-2.339-7.437-2.807-11.271c2.058,1.403,3.462,3.508,5.285,5.191
				c-0.608-3.181-1.777-6.267-3.04-9.308c-1.264-3.087-3.461-5.846-4.069-9.214c1.497,0.982,2.899,2.104,4.351,3.134
				c-0.422-3.929-2.152-7.577-2.62-11.553c2.479,2.432,3.602,5.8,6.034,8.185c-0.468-4.958-0.188-9.962-0.468-14.92
				c-1.029-6.875-4.397-13.143-6.034-19.831c1.543,1.076,2.9,2.385,4.35,3.555c-1.028-4.631-2.432-9.214-3.741-13.751
				c-0.374-1.684-1.777-2.807-2.899-4.022c1.262,0.141,2.899-0.421,3.882,0.702c0.981,0.935,1.777,2.058,2.712,3.04
				c-0.795-3.18-2.01-6.268-3.508-9.214c-2.244-4.303-5.939-7.53-9.26-10.898c-1.451-1.497-2.479-3.321-3.088-5.285
				c2.012-0.374,4.069-0.562,6.127-0.655c-2.338-1.684-6.08-3.274-5.705-6.735c2.197-3.227,6.969-4.209,8.185-8.278
				c-2.245,1.59-3.882,4.022-6.407,5.285c-1.217,0.608-2.573,0.702-3.883,0.749c2.151-2.806,5.566-4.49,7.25-7.67
				c2.572-4.817,4.957-10.149,4.069-15.762c-0.749-3.789-2.245-7.39-4.304-10.617c-1.59-2.385-2.338-5.285-4.396-7.343
				c-2.058-2.011-3.788-4.35-5.612-6.595c-1.497,2.9-3.461,5.706-6.407,7.343c-2.433,1.497-5.286,2.338-8.139,2.619
				c-3.742,0.374-7.483,1.029-11.226,1.403c-2.76,0.281-5.612,0.14-8.419,0.327c-3.461,0.234-7.016,0.608-10.523,0.047
				c3.273-4.022,9.494-3.976,12.254-8.512c1.45-2.479,4.022-3.882,6.268-5.52c-8.372,1.731-14.733,8.279-23.012,10.384
				c-1.123,0.28-2.291,0.093-3.414-0.047c2.525-2.058,5.893-2.619,8.746-4.116c3.882-1.824,7.109-4.771,10.758-6.969
				c1.169-0.702,2.244-1.543,3.227-2.479c-5.098,1.45-9.494,4.49-14.452,6.221c-4.069,1.497-8.185,2.994-12.301,4.35
				c-0.515-0.467-1.029-0.935-1.544-1.356c-0.936,2.151-1.59,4.443-2.338,6.688c-0.516-0.14-1.029-0.328-1.543-0.468
				c0.42-2.666,0.701-5.285,0.701-7.998c0-3.227,1.871-5.987,2.946-8.98c-1.403,1.31-2.62,2.853-3.882,4.256
				c-0.281-0.467-0.608-0.982-0.889-1.496c-3.883,1.964-6.502,6.501-11.179,6.688c-4.536,0-9.354,0.936-12.956,3.929
				c2.759-0.374,5.378-1.684,8.232-1.543c2.058-0.046,4.068,0.655,6.08,0.842c0.654,0.094,1.123-0.374,1.59-0.654
				c2.9-2.292,5.052-5.379,7.857-7.671c-0.607,3.461-2.338,6.782-4.91,9.261c-0.795,0.795-1.31,1.871-2.245,2.479
				c-4.49,0.094-8.887-1.497-13.377-0.795c-3.648,0.561-7.343,1.45-10.852,2.619c-2.666,0.889-4.958,2.666-7.483,3.789
				c1.637-3.181,4.303-5.706,7.203-7.764c4.209-2.993,8.98-5.098,13.61-7.483c2.012-1.076,4.21-2.479,4.864-4.864
				c0.702-2.479,0.281-5.145-0.188-7.624c-1.355,1.45-1.729,3.461-2.759,5.098c-2.104,2.619-5.192,4.303-8.419,5.145
				c-2.946,0.748-5.894,1.59-8.372,3.321c-4.069,2.666-6.735,6.829-9.775,10.523c-2.619-0.327-5.238-0.842-7.904-0.702
				c-6.034,0.188-11.88,2.152-17.353,4.677c-2.853,1.31-5.145,3.508-7.998,4.911c1.45-4.49,3.508-8.793,6.127-12.675
				c0.561,0.889,1.076,1.777,1.59,2.666c1.123-0.935,2.245-1.871,3.415-2.806c0.093,0.936,0.233,1.871,0.375,2.806
				c0.467-0.046,0.982-0.093,1.45-0.093c0.187-0.515,0.327-1.029,0.468-1.543c1.075,0,2.338,0.374,3.134-0.515
				c2.058-1.871,3.602-4.256,5.752-6.034c5.005-4.303,7.952-10.29,10.758-16.136c1.216,3.181,2.712,6.408,5.379,8.606
				c0.093-1.403,0.093-2.853,0.093-4.256c0.749,0.655,1.497,1.31,2.292,1.917c0.562-2.619,0.562-5.332,1.076-7.951
				c0.515-3.041,1.356-5.94,2.151-8.887c-0.702,0.047-1.45,0.14-2.151,0.234c0.281-0.748,0.515-1.543,0.795-2.292
				c-4.069,1.076-7.857,3.134-10.757,6.174c-2.105,2.245-4.443,4.256-6.642,6.454c-2.152,2.152-3.508,4.911-5.52,7.203
				c-1.356-3.835-1.637-8.092-3.976-11.506c-0.514,2.666-0.608,5.613-2.292,7.951c-2.479,3.415-4.63,7.156-7.483,10.243
				c-2.666,2.853-5.051,5.94-7.343,9.074c-1.403,1.964-3.695,2.9-5.519,4.256c-1.964,1.45-3.976,2.947-6.314,3.695
				c0.28-1.543,0.702-3.041,1.31-4.49c1.216-3.04,1.59-6.361,2.666-9.448c1.45-4.35,3.32-8.606,5.706-12.535
				c4.303-6.267,11.318-9.729,17.399-13.938c5.332-3.695,9.214-9.12,12.535-14.593c1.824-2.9,2.245-6.361,3.742-9.401
				C375.584,57.21,376.941,53.983,379.419,51.551L379.419,51.551z"/>
			<path fill="#D9531E" d="M331.479,74.235c1.169-1.216,2.666-1.964,4.209-2.572c-0.094,3.648-0.655,7.343,0.234,10.945
				c0.749,2.432,2.152,4.583,3.228,6.828c-3.929,4.958-7.437,10.431-8.98,16.651c-0.795,3.648-1.637,7.296-2.806,10.804
				c-2.292,0.375-4.631,0.655-6.969,0.842c0.468-3.742,1.824-7.25,3.508-10.617c-5.379,1.824-9.214,6.314-12.675,10.57
				c-5.473-0.515-10.945-0.14-16.37-1.029c0.701-4.911,2.76-9.495,4.677-14.032c0.421-1.123,1.076-2.151,1.825-3.04
				c2.104,5.051,4.724,10.43,9.775,13.096c0.281-2.62,0.281-5.379,1.356-7.858c2.432-5.8,5.379-11.413,8.185-17.025
				C323.293,82.561,327.363,78.257,331.479,74.235L331.479,74.235z"/>
			<path fill="#D9531E" d="M285.548,111.886c-0.888-1.917,0.141-4.069,1.216-5.659c1.637,3.321,3.742,6.455,5.519,9.729
				C289.711,115.301,287.092,114.131,285.548,111.886L285.548,111.886z"/>
			<path fill="#D9531E" d="M283.958,120.867c0.094-1.965,0-4.022,0.936-5.847c1.777,5.098,0.468,10.71,2.292,15.855
				c0.936,2.9,2.9,5.239,4.537,7.717c-2.151,0.328-4.396,0.375-6.595,0.047C284.333,132.747,283.912,126.807,283.958,120.867
				L283.958,120.867z"/>
			<path fill="#F3901D" d="M473.618,123.252c3.321-0.749,6.548-1.824,9.729-3.087c1.029,1.123,2.058,2.292,2.526,3.789
				c1.684,5.378,2.572,11.365,0.467,16.744c-1.964,5.472-5.472,11.038-11.131,13.19c-4.117,1.263-8.373,2.198-12.629,2.712
				c-3.32,0.421-6.642-0.234-9.916,0.375c0.748,1.543,2.105,2.525,3.648,3.086c3.555,1.45,6.735,3.555,10.103,5.333
				c9.168,5.098,18.101,11.412,23.573,20.58c-5.846-0.421-12.207-2.713-17.68,0.421c0.936,2.104,3.087,2.993,4.817,4.303
				c1.356,0.982,2.573,2.105,3.742,3.274c3.227,3.321,6.688,6.455,9.401,10.243c2.291,3.181,4.209,6.642,5.799,10.243
				c-3.367-1.871-6.688-3.929-10.336-5.238c-3.883-1.544-8.092-1.778-12.254-1.964c-1.357-0.094-2.62,0.514-3.789,1.169
				c2.059,2.339,4.584,4.163,6.502,6.595c2.899,3.461,6.127,6.688,9.166,10.009c3.041,3.321,5.099,7.39,7.016,11.459
				c-4.443-1.684-8.887-3.742-13.703-4.257c-3.087-0.093-6.221,0.141-9.262,0.795c1.918,2.994,4.959,5.004,7.25,7.717
				c5.098,5.566,10.29,11.413,13.143,18.522c-5.425-0.515-10.851-0.281-16.275-0.047c-1.918,0.093-3.275,1.497-4.49,2.759
				c8.231,10.384,13.47,23.292,13.844,36.576c-2.853-2.76-6.408-4.911-10.383-5.753c0.094,3.789,0.467,7.624-0.421,11.319
				c-0.515,2.338-1.778,4.396-2.993,6.407c-2.059,3.274-4.257,6.501-7.063,9.12c-0.234-3.788,0.561-7.67-0.281-11.459
				c-0.748-4.49-2.947-8.606-5.613-12.301c-2.291-3.321-5.238-6.361-9.12-7.764c-2.433-0.608-3.647-2.947-4.864-4.958
				c-1.543-2.619-0.842-5.753-0.654-8.653c-1.357,0.561-2.666,1.169-4.022,1.73c-1.122-2.386-1.544-5.051-0.936-7.624
				c1.028,0.561,2.011,1.122,3.04,1.637c-0.795-3.461-1.496-7.109-0.748-10.664c0.889-4.069,1.263-8.278,1.777-12.441
				c2.385,1.169,4.443,2.853,6.922,3.882c-1.076-1.59-2.619-2.666-4.303-3.508c-2.807-1.403-5.613-3.04-8.746-3.648
				c1.496,1.263,3.32,2.011,5.051,2.853c-2.151,1.964-4.817,3.415-6.268,5.987c-4.396,7.624-6.268,16.557-5.939,25.35
				c0.047,4.023,1.216,7.951,1.449,11.974c0.141,3.882,1.357,7.624,1.543,11.553c0.281,2.572,0.048,5.145,0.375,7.717
				c0.889,7.483,0.936,15.061,0.188,22.543c-0.563,6.549-2.292,13.33-6.689,18.429c-2.291,2.386-4.723,4.817-7.67,6.408
				c-2.012,1.028-3.835,2.433-5.8,3.554c-2.806,1.404-5.986,0.422-8.84-0.373c0.842,2.946,3.368,4.957,5.987,6.314
				c2.151,1.122,4.537,1.964,6.501,3.461c-4.21,0.561-8.513,0.42-12.675-0.281c-4.584-0.795-8.98-2.572-13.284-4.396
				c-7.437-3.134-13.283-8.887-18.802-14.64c0.468,3.648,0.795,7.39,2.011,10.897c0.935,2.947,2.292,5.754,3.555,8.56
				c-6.829-4.163-12.675-9.962-16.792-16.837c-4.209-5.801-7.811-12.255-8.886-19.411c-0.702,1.122-1.31,2.292-1.917,3.508
				c-0.234-0.889-0.468-1.73-0.702-2.572c-1.123,1.544-1.029,3.555-1.356,5.331c-0.421,3.977-1.637,8.139-0.047,12.021
				c1.497,4.209,5.332,7.904,4.303,12.676c-4.443-3.416-6.501-8.841-8.092-14.032c-2.198-7.765-2.105-15.902-1.543-23.854
				c-2.479,0.981-4.35,2.993-6.735,4.21c0.374-1.451,0.842-2.9,1.871-3.93c1.73-1.918,4.396-2.713,5.66-5.051
				c-2.433,0.467-4.303,2.104-6.127,3.602c-0.795,0.748-1.684,1.496-2.105,2.525c-0.562,1.73,0.187,3.741-0.702,5.426
				c-0.889,1.684-2.104,3.227-3.415,4.63c-0.608-5.005,0.281-10.149,2.104-14.827c1.918-3.928,6.642-5.004,10.571-5.705
				c4.49-1.029,9.074,0.046,13.517,0.701c4.49,0.748,9.12,1.216,13.33,3.04c5.052,2.198,10.384,3.741,15.622,5.425
				c4.724,1.217,10.384,1.264,14.266-2.104c2.712-2.76,5.145-5.987,6.174-9.729c0.936-2.994,1.122-6.128,1.216-9.262
				c0.094-3.789,0.982-7.53,2.339-11.038c0.936-2.619,3.835-4.022,4.443-6.782c1.965-7.764-0.281-15.809-2.9-23.105
				c-2.104-5.379-2.713-11.272-2.244-17.025c0.14-2.338,0.561-4.677,0.607-7.016c0.141-2.198-0.047-4.397,0.468-6.548
				c0.421-1.73,1.497-3.32,1.45-5.145c0.047-2.011,0.047-4.163,1.59-5.66c0.889,2.432,1.403,5.004,2.9,7.156
				c0.982,1.31,1.777,2.853,1.684,4.583c-0.234,5.285-0.608,10.664-0.234,15.996c0.889-0.515,2.059-0.795,2.479-1.824
				c1.73-3.415,3.228-7.016,3.788-10.851c0.562-3.601,0.607-7.25,0.889-10.851c0.094-0.889,0.094-1.918,0.842-2.526
				c1.357,0.889,1.45,2.759,2.386,4.069c0.421-1.076,0.795-2.198,1.075-3.321c2.525,0.047,5.099,0.047,7.577,0.702
				c1.591,0.327,3.134,1.123,4.864,1.076c1.918-0.047,3.883,0.093,5.613,0.935c1.029,0.421,1.917,1.123,2.993,1.403
				c0.655-0.281,1.169-0.842,1.73-1.216c-1.823-0.655-3.741-1.169-5.379-2.339c-1.31-0.935-2.619-1.917-4.069-2.666
				c0.608,0.889,1.217,1.731,1.871,2.62c-5.145-0.187-10.196-1.263-15.107-2.712c-0.607-3.087-1.355-6.127-1.964-9.214
				c6.922,0.748,14.031,0.608,20.767,2.572c2.338,0.655,4.91,0.842,6.922,2.339c-1.964,0.093-3.929-0.094-5.893-0.188
				c2.104,2.947,4.35,5.847,5.939,9.121c1.31,2.432,1.871,5.145,3.414,7.483c-0.467-2.759-1.777-5.191-2.713-7.717
				c-1.075-3.18-2.806-6.081-5.285-8.372c2.525,0.28,5.099,0.607,7.438,1.543c3.087,1.216,5.565,3.508,8.512,4.864
				c-1.355-4.864-3.881-9.401-6.922-13.47c-1.965-2.666-4.443-4.911-6.548-7.483c-1.871-2.199-3.882-4.256-6.268-5.847
				c-2.433-1.684-4.817-3.461-7.577-4.49c1.029,1.169,2.76,2.011,2.432,3.835c1.824,1.169,3.648,2.339,5.332,3.789
				c-0.187,0.187-0.561,0.655-0.748,0.889c3.134,2.619,6.642,5.098,8.699,8.746c-5.051-3.133-8.746-8.419-14.686-10.103
				c5.051,3.648,11.085,6.595,14.266,12.208c-2.807-1.263-5.006-3.929-8.326-3.929c2.526,2.058,5.66,3.274,7.857,5.753
				c-2.104-0.374-4.115-1.169-6.221-1.356c-2.338-0.047-4.63,0.749-6.922,0.233c-4.583-0.888-9.26-1.543-13.984-1.403
				c-0.795-2.713-1.45-5.472-1.59-8.278c1.169,0.608,2.338,1.262,3.508,1.824c-1.217-3.274-3.836-5.893-4.865-9.308
				c-0.981-3.18-2.011-6.407-2.338-9.775c-0.281-2.338-0.328-4.677-0.422-7.016c-0.467,0.187-0.981,0.328-1.449,0.515
				c-0.562,2.619-0.421,5.379-1.403,7.904c-1.122,3.228-2.245,6.455-3.508,9.635c-1.31,3.274-1.403,7.063-0.093,10.336
				c0.514,1.356,1.917,1.965,3.086,2.666c0,0.281,0,0.889,0,1.169c-3.414-0.047-6.734-0.515-10.148-0.608
				c-0.796-1.684-1.544-3.414-2.293-5.145c0.562-0.28,1.17-0.468,1.685-0.888c0.327-0.795,0.468-1.684,0.654-2.573
				c-2.479-0.889-5.051-1.964-6.595-4.256c1.497-1.637,3.041-3.274,4.209-5.192c-3.601,1.029-7.155,2.619-10.991,2.338
				c2.058-3.461,6.642-4.771,7.811-8.84c-2.947,1.31-5.379,3.555-8.326,4.864c-4.396,2.199-9.354,2.339-14.125,2.9
				c1.917,0.795,4.022,0.889,6.034,1.403c-4.49,0.281-9.027-0.608-13.424,0.421c-4.911,1.169-9.962,1.45-14.78,2.994
				c-2.572,0.842-5.379,1.403-7.53,3.18c5.145-0.936,10.243-2.198,15.481-2.245c3.461-0.187,6.875,0.562,10.29,0.702
				c6.034,0.328,11.787,2.619,16.791,5.893c1.964,1.263,4.116,2.947,3.976,5.566c-3.04-1.169-5.238-3.742-8.185-5.051
				c-7.483-3.227-15.622-5.378-23.807-4.771c-2.432,0.234-5.612-0.655-7.39,1.45c1.964,0.375,4.022,0.375,6.033,0.561
				c6.268,0.468,12.582,1.543,18.475,3.789c2.104,0.748,3.835,2.245,5.378,3.835c-7.764,0.749-15.528,1.45-23.198,2.9
				c-0.515-0.702-1.076-1.403-1.637-2.105c-1.871,0.281-4.303,0.983-4.724,3.181c-0.515,1.59,1.028,2.713,2.198,3.461
				c0.749,0.514,1.544-0.234,2.246-0.468c2.525-1.356,5.472-1.591,8.231-2.058c4.817-0.795,9.682-1.543,14.5-2.292
				c2.479-0.281,4.958-0.562,7.437-0.188c2.292,0.608,3.367,2.946,4.396,4.864c-3.648,0.047-7.203,0.655-10.804,1.076
				c-0.655,0-0.982,0.515-1.31,0.936c2.899-0.094,6.267-1.871,8.887,0.14c-2.994,0.515-6.034,0.795-9.074,0.702
				c-1.917-0.888-3.882-2.058-6.081-2.104c-1.403-0.187-3.134,0.889-2.946,2.432c0,1.029,0.842,1.824,1.73,2.198
				c1.684,0.982,2.993-1.31,4.677-1.403c3.742-0.561,7.577-0.701,11.365-0.468c0.14,1.543,0.328,3.041,0.421,4.584
				c-7.857-0.842-15.762-1.45-23.667-1.169c-3.414,0.046-6.829,0.514-10.196,0.14c-0.889-0.608-1.45-1.59-2.104-2.432
				c-1.31,0.842-3.04,1.59-3.368,3.228c0.328,2.198,2.9,2.666,4.724,2.338c0.141-0.655,0.281-1.31,0.421-1.917
				c11.505-0.328,23.012,0.655,34.471,1.403c-0.374,2.712-1.824,5.238-4.069,6.782c-2.151,1.45-4.163,3.04-5.893,4.958
				c2.339-0.375,4.771-0.749,6.829-2.059c3.274-2.104,6.314-4.536,9.635-6.501c0.608,0.187,1.169,0.421,1.778,0.655
				c-3.134,3.555-6.501,7.25-11.039,9.027c-3.368,1.122-6.782,2.292-10.383,2.432c-3.976,0.141-7.764,1.544-11.693,1.45
				c-2.853-0.094-5.659-0.421-8.466-0.281c0.655-0.515,1.357-1.076,2.011-1.637c-3.648-0.28-7.39-0.14-10.897-1.216
				c-3.929-1.123-7.811-2.338-11.833-3.134c-2.292-0.468-4.396-1.684-6.127-3.274c0.702-0.187,1.45-0.328,2.199-0.515
				c-1.356-1.075-2.619-2.479-4.443-2.666c-2.199-0.28-4.396,0.188-6.548,0.234c1.263-1.917,3.087-3.368,5.051-4.443
				c0.281-1.497,0.047-3.274,1.076-4.49c2.011-1.684,4.864-1.169,7.25-1.123c-0.421-2.713-0.702-5.425-0.935-8.139
				c-0.094-1.076,0.561-2.011,1.403-2.525c0.702,2.806,0.795,5.753,2.058,8.372c0.702-3.695,0.188-7.437-0.42-11.084
				c0.702,0.514,1.356,1.075,2.058,1.543c-0.187-3.134-2.479-5.519-4.583-7.67c0.842-0.094,1.73-0.187,2.572-0.281
				c-0.842-1.497-2.011-2.994-2.104-4.771c0.28-4.958,3.228-9.121,4.817-13.704c-3.134,1.31-5.098,4.209-6.408,7.203
				c-1.31,3.04-3.041,6.034-3.789,9.308c-0.468,1.777-0.889,3.602-1.684,5.285c-0.702-2.993-0.468-6.127-0.375-9.167
				c-3.835,2.853-3.367,8.372-3.227,12.675c-5.753,1.684-11.833,2.713-17.072,5.894c-2.386-1.497-4.864-2.76-7.343-3.976
				c1.964-5.52,5.566-10.477,6.221-16.371c-1.122,1.356-1.917,2.994-3.321,4.116c-3.321,2.713-6.782,5.191-10.243,7.717
				c0.655,0.421,1.31,0.889,1.964,1.31c-1.824,1.637-4.069,2.76-5.519,4.724c-1.731,3.181-0.795,7.016,0.888,10.01
				c1.918-1.216,3.882,0.187,5.613,1.076c2.338,1.123,1.543,4.396,3.555,5.846c3.602,2.994,8.232,4.116,12.675,5.379
				c-0.655,5.753-4.724,10.43-9.308,13.611c-2.338,1.543-4.584,3.555-7.437,3.929c-5.566,0.701-11.271-1.543-15.294-5.426
				c2.245-1.543,5.099-1.45,7.531-2.479c1.543-1.356,0.374-3.461-0.562-4.864c2.058-0.702,4.116-1.31,6.221-1.684
				c0.468-1.263,0.842-2.526,1.123-3.789c-0.936-0.28-1.824-0.514-2.713-0.795c-1.216,1.357-2.292,2.994-4.116,3.649
				c-3.32,1.356-6.688,2.759-10.103,3.976c-0.701,0.14-1.871,0.701-2.245-0.234c-0.748-1.871-0.608-3.929-0.702-5.894
				c2.9-1.123,5.987-1.824,9.074-1.356c0.655-0.936,1.357-1.825,1.871-2.807c-0.468-1.497-2.198-2.292-3.648-2.386
				c-1.497-0.233-2.105,1.357-3.134,2.105c-1.123,0.982-2.713,0.749-4.069,0.842c0.702-3.367,2.104-6.501,4.022-9.307
				c2.573-3.882,5.379-7.858,9.588-10.103c0.187-2.666,0.468-5.332,1.543-7.764c1.123-2.76,3.134-4.958,4.958-7.203
				c2.432-2.854,5.286-5.379,8.045-7.905c1.871-1.777,4.63-2.245,6.268-4.303c-5.192-2.479-8.325-7.718-13.517-10.196
				c-6.081-3.04-13.33-1.076-19.457-3.976c-3.835-1.918-7.109-5.706-7.203-10.196c3.648,2.104,7.297,4.864,11.74,4.49
				c-1.403-2.479-2.806-5.098-2.9-7.998c1.871,0.748,3.508,1.824,5.379,2.572c2.9,1.123,6.033,1.216,8.98,2.151
				c2.432,0.749,4.49,2.386,5.893,4.443c1.59,2.245,2.806,4.958,5.285,6.361c1.964,1.029,4.022,2.151,6.314,1.824
				c-0.561-2.104-3.274-2.011-4.49-3.602c-2.105-2.712-2.76-6.314-5.332-8.699c-3.508-3.882-8.7-5.332-13.611-6.455
				c0.982-1.871,2.058-3.695,3.648-5.098c1.356-1.31,3.134-2.151,4.583-3.368c3.274-2.993,7.483-4.443,10.945-7.203
				c-1.59-0.141-3.134-0.234-4.677-0.515c3.227-2.339,7.016-4.163,9.307-7.624c1.918-3.041,2.713-6.595,3.835-10.009
				c2.806,1.123,4.163,4.209,7.063,5.145c0.702,0.28,1.403,0.514,2.151,0.795c-1.076,3.929-2.245,7.904-4.209,11.506
				c0.561,0.327,1.123,0.655,1.684,0.982c1.169-2.245,2.152-4.677,3.835-6.595c3.134-3.789,7.25-7.063,12.161-7.998
				c-1.123,6.174-1.029,12.909,2.198,18.428c2.479-5.94,5.847-12.114,11.74-15.248c5.472-2.806,10.945-6.081,17.071-7.296
				c1.544-0.328,3.087,0.047,4.584,0.421c-1.357,1.824-3.087,3.227-5.005,4.303c-3.789,2.151-7.483,4.537-11.459,6.361
				c-1.263,0.561-2.386,1.45-3.321,2.432c4.537,0.374,8.793-1.45,13.19-2.385c6.642-1.45,13.47-2.853,19.364-6.361
				c2.432-1.403,4.35-3.555,6.922-4.771c5.379-2.76,11.88-2.713,17.446-0.655c-3.368,1.684-7.203-0.515-10.758,0.374
				c-3.321,0.749-7.063,2.198-8.606,5.473c1.076-0.608,1.964-1.45,2.807-2.386c0,0.702-0.047,1.403-0.047,2.105
				c1.59-0.328,3.134-0.936,4.771-1.169c1.59-0.047,3.134,0.234,4.677,0.374c-0.936-0.468-1.824-0.936-2.76-1.356
				c0.094-0.281,0.327-0.795,0.468-1.029c2.151,0.094,4.351,0.374,6.361,1.31c-2.713,2.853-5.94,5.753-6.502,9.869
				c2.76-1.076,4.958-3.181,7.718-4.35c1.402-0.608,2.9-0.982,4.209-1.824c1.777-1.122,3.414-2.385,5.426-3.04
				c2.807-0.982,5.52-2.245,8.466-2.666c4.583-0.515,8.98,1.169,13.517,1.309c4.396,0.14,8.746,0.702,13.144,0.608
				C459.587,125.965,466.603,124.702,473.618,123.252L473.618,123.252z"/>
			<path fill="#F3901D" d="M291.489,128.911c-1.263-2.619-0.936-5.612-0.608-8.419c3.929,0.655,7.904,1.59,11.973,1.216
				c2.339-0.234,4.677-0.094,7.016,0.187c-0.046,0.561-0.14,1.076-0.187,1.59c-2.339-0.187-4.724-0.047-7.016,0.374
				c1.871,0.655,3.789,1.169,5.613,1.824c0.047,0.281,0.14,0.889,0.187,1.169c-1.777,0.094-3.648,0.468-5.425-0.093
				c-3.835-1.029-7.203-3.227-10.898-4.584c2.338,4.958,5.565,9.588,10.009,12.862c-1.262,0.562-2.666,1.591-4.116,0.889
				C295.137,134.43,292.798,131.858,291.489,128.911L291.489,128.911z"/>
			<path d="M476.752,125.076c1.965-0.608,3.648-1.777,5.473-2.713c1.122,1.543,2.525,3.087,2.806,5.098
				c0.655,3.695,0.749,7.483,0.188,11.178c-0.14,1.263-0.89,2.386-1.638,3.415c-0.561-4.256-1.262-8.747-3.928-12.301
				c-2.807,1.918-5.94,3.321-9.121,4.49c-8.278,3.321-17.072,5.192-25.818,6.922c-3.741,0.842-7.623,0.889-11.459,1.123
				c4.022,1.59,8.42,0.936,12.629,0.701c4.724-0.28,9.447-1.029,14.219-1.169c-3.602,3.742-8.699,5.238-13.377,7.063
				c2.572,0.094,5.145,0,7.67-0.374c2.947-0.375,5.66-1.73,8.606-2.292c-1.87,4.677-6.127,8.372-10.944,9.822
				c-1.871,0.608-3.742,1.45-5.613,2.058c-0.187-0.654-0.326-1.31-0.467-1.964c3.133-0.889,6.268-2.104,8.652-4.443
				c-4.584,0.328-9.214,0.141-13.657-1.076c-1.544-0.421-2.76-1.497-3.882-2.572c3.741-0.187,7.576-0.468,10.944-2.245
				c-4.49-0.187-8.98-0.515-13.376-1.497c-2.152-0.468-3.93-1.964-6.081-2.385c-2.526-0.515-5.146-0.421-7.624-1.169
				c-2.619-0.795-5.566-1.356-7.484-3.555c4.585,0.702,9.309,1.637,13.846,0.234c-3.135-1.169-6.502-2.105-9.027-4.35
				c-0.795-0.608-0.047-1.59,0-2.339c3.976,2.432,8.84,2.619,13.236,1.59c-2.059-1.543-4.49-2.339-6.875-3.227
				c0.421-0.421,0.748-0.936,1.263-1.169c2.011,0.187,3.929,0.936,5.987,0.936c4.536,0.093,9.119,0.608,13.656,0.14
				c5.285-0.327,10.524-0.468,15.763-1.123c3.555-0.374,6.923-1.731,10.431-2.105C473.432,125.544,475.162,125.544,476.752,125.076
				L476.752,125.076z"/>
			<path fill="#F6BA66" d="M307.485,140.324c2.806-2.292,5.098-5.052,7.39-7.811c0.14,3.508,0.749,7.811-2.105,10.43
				c-3.32,2.947-7.202,5.051-10.897,7.39c-2.105,1.309-4.163,2.759-6.642,3.414c1.824-2.385,4.63-3.695,7.016-5.425
				c3.087-2.245,6.642-4.022,8.934-7.203C309.963,140.838,308.748,140.604,307.485,140.324L307.485,140.324z"/>
			<path fill="#D9531E" d="M270.301,132.934c1.918,1.45,3.041,3.742,5.145,4.958c0.795,0.468,1.684,0.795,2.339,1.497
				c1.263,2.759,1.497,5.94,3.04,8.606c0.702,1.263,1.637,2.385,2.104,3.789c-0.233,1.216-1.263,2.105-2.104,2.947
				c-0.234-2.339-0.655-4.677-1.824-6.782c-1.123-2.151-2.058-4.443-3.274-6.595c-1.076-1.73-2.713-2.993-4.35-4.163
				c-1.216,2.245-2.151,4.677-2.245,7.25c1.637-0.468,1.684-2.432,2.292-3.742c3.368,3.134,5.192,7.483,6.408,11.833
				c-0.982,1.216-2.011,2.479-2.479,3.976c-0.515,1.543-0.562,3.18-0.795,4.771c-2.292-1.263-3.929-3.321-5.94-4.958
				c-2.619,2.292-2.806,5.894-2.993,9.121c-0.982-5.145-0.328-10.383,0.28-15.528C266.793,144.159,267.542,138.219,270.301,132.934
				L270.301,132.934z"/>
			<path d="M396.959,137.518c3.321,0.514,5.145,3.461,7.109,5.846c0.281-1.123,0.607-2.245,0.889-3.368
				c3.134,2.853,5.706,6.548,6.922,10.617c1.029,3.228,0.889,7.016-1.169,9.822c-2.151,2.479-4.817,4.537-7.904,5.706
				c-1.917,0.702-3.742,1.777-5.098,3.321c-3.695,4.163-5.894,9.542-10.243,13.096c-3.788,3.508-8.98,5.005-14.031,4.864
				c-3.648-0.14-7.624-0.327-10.664-2.573c-1.31-0.701-2.76-2.198-4.35-1.356c-2.386,0.982-4.865,1.871-7.437,1.824
				c-4.817-0.14-9.729-3.414-10.711-8.325c2.105,0.889,4.163,2.198,6.501,2.432c1.964,0.234,3.882-0.561,5.519-1.637
				c2.479-1.637,4.35-4.022,6.688-5.894c2.479-2.104,5.004-4.396,8.185-5.332c3.695-1.123,7.53-2.104,11.412-2.058
				c4.584,0.047,9.214,0.655,13.751-0.374c3.835-0.795,7.67-1.684,11.226-3.321c3.647-2.245,4.583-7.156,3.555-11.085
				c-3.229,1.917-6.081,5.098-10.103,5.098c1.216-2.806,2.666-5.753,2.198-8.933c-2.151,0.795-4.116,1.964-6.173,2.946
				c-2.059,1.029-4.303,1.543-6.361,2.572c-2.011,0.982-3.227,2.994-4.583,4.677c-1.076-2.058-1.403-4.396-1.684-6.641
				c-3.461,4.256-8.185,7.343-13.377,9.027c0.749-2.058,1.591-4.163,1.871-6.361c-4.022,2.432-8.699,3.602-12.535,6.408
				c-4.256,3.134-4.958,8.887-8.373,12.675c-0.702,0.889-1.917,1.123-2.946,1.45c0.842-2.385,2.432-4.677,2.104-7.343
				c-0.046-2.479-0.561-5.566,1.59-7.39c3.882-3.695,9.962-3.835,13.658-7.858c2.011-1.964,2.946-4.724,3.742-7.343
				c3.367,1.216,5.565,4.163,7.437,7.016c2.62-3.274,3.321-7.717,2.292-11.74c4.209,0.889,7.016,4.443,8.793,8.092
				c2.198-1.403,4.771-2.011,7.296-2.432c1.964-0.421,4.069-1.076,5.192-2.853C397.38,139.715,397.053,138.593,396.959,137.518
				L396.959,137.518z"/>
			<path fill="#D9531E" d="M284.988,141.072c2.058,1.263,4.162,2.432,6.22,3.695c-1.356,1.169-2.806,2.292-4.583,2.853
				C285.923,145.469,285.362,143.317,284.988,141.072L284.988,141.072z"/>
			<path d="M428.951,150.707c4.957-0.094,9.261,2.713,13.33,5.191c1.871,1.169,4.069,1.965,5.613,3.695
				c2.899,2.9,6.22,5.285,8.886,8.465c2.292,2.667,4.817,5.332,6.034,8.747c-6.361-2.993-11.6-8.56-18.803-9.682
				c1.637,1.497,3.414,2.9,4.678,4.724c2.15,3.087,4.91,5.8,6.314,9.354c-4.21-0.889-8.467-2.245-12.816-1.777
				c-3.414,0.187-6.268,2.713-9.729,2.479c1.73-3.368,5.145-5.285,7.951-7.577c-2.338-1.964-5.332-2.9-7.297-5.238
				c1.357-0.141,2.713-0.234,4.07-0.328c-0.889-1.637-1.918-3.274-3.461-4.303c-2.573-1.871-5.895-2.245-8.467-4.116
				c4.631-1.216,9.494-1.169,14.219-0.608c-1.637-2.385-3.695-4.583-6.174-6.174C431.852,152.625,430.354,151.783,428.951,150.707
				L428.951,150.707z"/>
			<path d="M312.255,159.781c1.356-1.871,3.789-2.572,5.987-2.526c1.824,0.047,3.461,1.263,5.332,0.889
				c2.525-0.374,5.191-0.374,7.483,0.936c2.993,1.45,6.081,4.256,5.659,7.998c-2.853-1.029-5.472-3.181-8.652-2.947
				c-2.058,0.608-3.181,2.9-3.368,4.911c-0.187,3.789,1.263,7.483,2.806,10.898c0.936,2.198,2.713,3.882,4.396,5.472
				c-0.047,0.374-0.14,1.076-0.187,1.403c-2.619-0.515-5.191-1.497-7.857-1.777c-3.181-0.188-6.221,1.029-9.354,1.403
				c1.263-2.76,3.18-5.239,4.069-8.185c1.263-3.742,2.666-7.858,1.31-11.74c-0.562-1.497-2.385-3.134-4.022-2.198
				c-2.338,1.356-3.742,3.976-6.408,4.818C309.355,165.814,310.244,162.447,312.255,159.781L312.255,159.781z"/>
			<path fill="#F6BA66" d="M283.023,163.429c3.04,0.094,6.174,0.328,9.027,1.356c1.357,0.468,2.058,1.824,2.76,2.947
				c0.982,1.824,2.151,3.508,3.274,5.191c-2.853-1.637-5.286-3.835-8.044-5.612C287.84,165.768,285.314,164.785,283.023,163.429
				L283.023,163.429z"/>
			<path fill="#D9531E" d="M265.951,166.703c1.31,2.666,2.339,5.472,4.116,7.904c1.684,2.479,4.022,4.443,6.454,6.174
				c-1.403,1.918-2.899,3.742-3.695,5.987c-0.936,2.385-0.889,5.004-1.076,7.577c-0.141,1.59-0.187,3.18,0.281,4.724
				c1.543-0.749,2.759-1.918,4.069-2.947c0.046,1.356,0.046,2.666,0.046,4.022c-4.256,0-8.279-2.058-12.535-1.497
				c-3.274,0.281-5.707,2.62-8.513,4.023c0.515-5.613,4.35-9.963,7.857-14.032c2.947-2.853,5.566-6.08,8.793-8.606
				C268.477,176.338,266.419,171.614,265.951,166.703L265.951,166.703z"/>
			<path fill="#FFFFFF" d="M367.633,172.128c1.778-1.637,3.929-3.04,6.361-3.321c2.807-0.468,5.753-0.515,8.559-0.047
				c-1.73,1.123-3.835,1.076-5.8,1.45c2.339,0.748,5.192,0.795,6.689,3.087c-1.871,2.058-4.023,3.882-5.8,6.08
				c2.385-0.561,4.864-1.45,6.595-3.274c0.982-0.982,1.497-2.292,2.104-3.508c0.188,1.169,0.375,2.338,0.608,3.461
				c-3.508,2.667-7.577,4.958-12.114,4.911c-3.134,0-6.875-0.281-8.98-2.9C365.107,175.917,365.996,173.532,367.633,172.128
				L367.633,172.128z"/>
			<path d="M388.914,185.973c2.854-1.403,5.052-3.695,7.484-5.66c0.187,1.356,0.842,2.947,0,4.256
				c-3.555,5.706-10.29,8.84-16.838,9.121c-4.303,0.14-8.7,0.514-12.862-0.655c-2.899-0.748-5.94-1.122-8.84-1.964
				c0.047-0.655,0.047-1.356,0.047-2.012c3.508,0.375,6.875,1.544,10.383,1.45c2.76-0.093,5.613,0.047,8.372-0.468
				C380.917,189.34,385.032,187.938,388.914,185.973L388.914,185.973z"/>
			<path fill="#FFFFFF" d="M283.771,183.915c2.479-1.637,5.566-1.543,8.326-0.982c2.806,0.608,5.052,2.573,7.063,4.443
				c-2.104,1.543-4.022,3.321-5.846,5.098c-2.807-0.281-5.894-1.076-7.671-3.461C284.379,187.61,284.099,185.692,283.771,183.915
				L283.771,183.915z"/>
			<path fill="#F38D32" d="M276.007,193.129c0.187-2.292,1.122-4.396,2.432-6.267c1.45,1.917,2.853,3.976,4.771,5.519
				c2.058,1.824,4.49,3.087,6.969,4.256c-0.281,0.562-0.562,1.123-0.795,1.684c-3.461-0.421-6.782-1.59-9.588-3.602
				c0-1.59-0.093-3.134-0.42-4.677C278.252,191.071,277.223,192.193,276.007,193.129L276.007,193.129z"/>
			<path fill="#FEC057" d="M314.781,188.078c2.386-1.123,5.099-0.935,7.671-0.889c2.058,0,4.116,0.421,6.08,1.029
				c-1.123,3.695-3.929,6.501-5.425,10.009c-0.889,2.105-1.45,4.303-2.338,6.408c-0.421-2.151-0.749-4.303-1.169-6.408
				c-1.263-0.093-2.572-0.187-3.835-0.327c0.982-1.076,1.965-2.152,2.9-3.274c-1.31-0.421-2.619-0.842-3.882-1.31
				c1.637-1.637,3.742-2.572,5.8-3.601C318.616,189.2,316.652,188.779,314.781,188.078L314.781,188.078z"/>
			<path fill="#F38D32" d="M279.515,200.565c0.982,0.936,2.105,1.918,2.713,3.181c0.187,1.403-0.281,2.759-0.328,4.116
				c-0.094,1.497,0.421,2.853,0.842,4.256c-0.982,0.655-1.917,1.31-2.947,1.918C278.813,209.593,279.234,205.056,279.515,200.565
				L279.515,200.565z"/>
			<path fill="#D9531E" d="M272.874,203.653c0.702-1.076,1.73-1.917,2.759-2.619c0,4.069-0.795,8.231,0.281,12.254
				c0.188,1.497,1.216,3.274-0.046,4.584c-1.778,2.151-2.994,4.77-5.005,6.688c0.093-2.432,0.936-4.771,1.356-7.109
				c-2.105,1.076-2.479,3.555-2.806,5.707c-0.234,1.076,0.514,1.964,0.982,2.9c-1.31,2.946-2.151,6.033-3.415,8.979
				c-2.245-5.893-2.479-12.581-0.467-18.568C267.916,211.884,270.208,207.628,272.874,203.653L272.874,203.653z"/>
			<path fill="#F3901D" d="M406.127,213.755c2.713-0.14,5.425,0.047,8.138,0.141c-0.654,2.338-1.356,4.677-2.058,6.969
				c-1.123,0.14-2.198,0.281-3.321,0.421C407.951,218.76,406.922,216.328,406.127,213.755L406.127,213.755z"/>
			<path fill="#FFFFFF" d="M304.912,221.894c2.245-0.889,4.631-1.824,7.063-1.263c2.245,0.515,4.771,0.234,6.735,1.637
				c-2.198,1.637-5.005,0.608-7.483,0.655C309.075,222.735,306.456,223.952,304.912,221.894L304.912,221.894z"/>
			<path fill="#F3776F" d="M315.482,238.919c1.964,1.122,4.022,2.245,5.753,3.742c-1.45,0.561-2.854,1.262-4.397,1.637
				c-0.982-0.234-1.917-0.608-2.853-0.983C314.454,241.818,314.921,240.369,315.482,238.919L315.482,238.919z"/>
			<path fill="#F38D32" d="M276.849,245.607c2.479-1.169,5.145-1.917,7.811-2.666c0,0.749,0.046,1.543,0.046,2.339
				c-1.871,0.935-3.742,1.871-5.612,2.712C278.346,247.197,277.597,246.449,276.849,245.607L276.849,245.607z"/>
			<path fill="#D9531E" d="M378.25,273.155c1.216,1.357,0.655,3.181,0.187,4.725c-0.842,2.525-2.479,4.724-2.806,7.437
				c2.011-2.339,2.292-5.847,4.911-7.67c1.169-1.169,2.525,0.327,3.602,0.888c-0.702,1.778-1.357,3.695-2.76,5.052
				c-0.936,0.842-1.824,1.73-2.526,2.759c2.526,0.14,4.958-0.702,7.39-1.31c-0.328,2.385-0.982,4.724-1.497,7.063
				c2.806-3.041,5.425-6.361,7.062-10.196c1.497-3.087,2.433-6.922,5.753-8.606c0.047,1.263,0.094,2.525,0.141,3.789
				c1.497-1.076,3.087-2.151,4.771-2.9c0.421,2.946-0.328,5.894-1.076,8.747c1.217-0.094,2.807-0.842,3.836,0.28
				c0.981,1.123,0.748,2.76,0.936,4.163c-1.264-0.748-2.479-1.497-3.742-2.292c0,2.199,0,4.397-0.188,6.595
				c-1.403-0.749-2.666-1.637-3.929-2.479c-0.889,3.788,0.281,7.624,0.655,11.412c-2.105-1.45-3.882-3.227-5.847-4.818
				c-0.374,5.005,0.515,10.057,1.918,14.873c0.328,1.357,0.795,2.713,0.655,4.116c-0.421,1.169-1.45,2.245-2.666,2.666
				c-4.069-0.468-7.391-3.087-10.571-5.425c-4.303-3.93-6.081-9.822-6.875-15.435c-0.421-2.666,0.467-5.285,0.701-7.951
				c-3.04,1.543-4.817,4.677-6.08,7.67c-1.356,3.508-0.982,7.343-1.824,10.944c-2.292-2.104-4.116-4.631-6.174-6.969
				c-0.842,0.842-1.637,1.637-2.432,2.479c-1.59-1.59-3.04-3.32-4.63-4.864c-0.702,1.169-1.45,2.338-2.292,3.415
				c-1.684-1.777-2.947-3.929-4.677-5.66c-0.749,1.637-1.263,3.368-1.637,5.098c-0.468-0.047-0.889-0.093-1.356-0.14
				c-0.608-0.562-1.169-1.123-1.777-1.684c-1.169-2.712-3.227-4.911-4.163-7.764c-1.169-3.648-2.245-7.67-1.029-11.459
				c0.42-1.637,1.45-2.993,2.525-4.209c4.35,3.602,8.092,8.045,13.096,10.898c4.35,2.759,9.963,2.573,14.64,0.702
				c2.479-0.982,4.256-3.274,4.958-5.753c0.842-2.525,0.421-5.425,2.058-7.67c0.234,0.935,0.514,1.871,0.748,2.759
				C376.894,275.307,377.549,274.231,378.25,273.155L378.25,273.155z"/>
			<path fill="#C7501A" d="M328.953,292.098c0.654-1.917,2.806-2.619,4.537-3.321c0.749,2.807,1.637,5.566,2.666,8.279
				c0.515,1.122,0.234,2.385-0.047,3.555C332.32,299.535,329.233,296.027,328.953,292.098L328.953,292.098z"/>
			<g id="Lion_Teeth">
				<path fill="#FFFFFF" d="M332.601,247.431c1.684,0.421,3.415,0.795,5.051,1.356c0.795,0.14,0.702,1.029,0.842,1.637
					c0.374,2.76-0.28,5.613-1.59,8.045C334.378,255.382,332.133,251.594,332.601,247.431L332.601,247.431z"/>
				<path fill="#FFFFFF" d="M311.788,250.378c-0.421-2.572,3.415-2.9,4.911-1.637c1.403,1.45,2.058,3.508,2.713,5.425
					c-0.234,1.731-0.842,3.415-1.403,5.052C315.716,256.458,312.583,254.026,311.788,250.378L311.788,250.378z"/>
				<path fill="#FFFFFF" d="M318.804,250.705c-0.468-1.59,1.169-3.087,2.712-2.853c1.824-0.094,3.087,1.497,3.648,3.04
					c1.029,2.76,0.141,5.753-1.122,8.279C321.797,256.692,319.926,253.839,318.804,250.705L318.804,250.705z"/>
				<path fill="#FFFFFF" d="M327.175,248.6c1.263-0.842,2.9-0.702,4.397-0.842c0.421,2.432,1.263,4.865,1.403,7.343
					c-0.467,1.403-1.543,2.479-2.385,3.648c-1.45-2.339-3.181-4.537-4.209-7.109C325.959,250.612,326.193,249.208,327.175,248.6
					L327.175,248.6z"/>
				<path fill="#FFFFFF" d="M338.728,249.208c2.526,0.468,5.051,1.076,7.531,1.637c-0.889,2.666-2.058,5.191-3.04,7.857
					C340.786,256.084,338.962,252.81,338.728,249.208L338.728,249.208z"/>
				<path fill="#FFFFFF" d="M307.017,252.997c0.982-1.076,2.011-2.151,3.04-3.134c0.795,1.356,0.046,2.712-0.702,3.929
					c0.842,0.655,1.637,1.356,2.479,2.011c-0.094-1.169-0.234-2.338-0.374-3.461c0.889,1.263,2.104,2.479,2.198,4.116
					c-0.234,1.356-1.076,2.432-1.918,3.461C309.777,257.955,307.812,255.757,307.017,252.997L307.017,252.997z"/>
				<path fill="#FFFFFF" d="M346.679,251.22c2.199,0.047,4.35,0.328,6.455,0.842c2.713,0.702,5.566,0.562,8.326,0.842
					c-2.713,5.332-3.087,11.553-1.637,17.259c0.608,2.853,1.871,5.519,2.993,8.186c-4.256-2.105-7.343-5.753-10.336-9.308
					C348.457,264.082,346.071,257.674,346.679,251.22L346.679,251.22z"/>
				<path fill="#FFFFFF" d="M295.558,260.153c3.742-1.169,6.782-3.602,9.962-5.752c0.608,1.029,1.216,2.011,1.637,3.086
					c-0.328,2.994-1.731,5.8-1.731,8.84c0.141,3.742,1.029,7.39,1.637,11.085c-1.122-0.842-2.198-1.777-3.227-2.76
					c-0.094-0.094-0.281-0.328-0.374-0.468c-2.338-2.947-4.209-6.174-6.174-9.401C296.399,263.38,295.979,261.743,295.558,260.153
					L295.558,260.153z"/>
				<path fill="#FFFFFF" d="M403.788,286.907c1.028,0.935,2.011,1.917,2.993,2.9c-0.982,1.403-1.824,3.227-3.789,3.32
					C403.133,291.022,403.367,288.917,403.788,286.907L403.788,286.907z"/>
				<path fill="#FFFFFF" d="M399.157,291.022c1.637,1.076,3.648,2.292,4.069,4.35c-0.561,2.246-1.871,4.209-2.994,6.222
					C398.877,298.226,399.672,294.53,399.157,291.022L399.157,291.022z"/>
				<path fill="#FFFFFF" d="M370.626,297.711c0.328-1.59,1.123-3.041,2.011-4.443c0.421,6.688,2.76,13.424,7.577,18.194
					c2.526,2.946,6.314,4.163,9.354,6.407c-2.011,0.094-4.069-0.14-5.987-0.936c-4.116-1.637-8.325-3.039-12.395-4.863
					c-0.608-0.188-0.702-0.889-0.889-1.404C369.177,306.41,369.598,301.92,370.626,297.711L370.626,297.711z"/>
				<path fill="#FFFFFF" d="M326.287,293.642c2.058,3.648,4.958,6.922,8.839,8.793c-0.654,2.385-1.028,4.816-1.637,7.202
					c-0.702,1.497-2.619,1.45-4.022,1.777c-1.31-2.479-2.76-4.911-3.32-7.671C325.445,300.424,326.1,297.009,326.287,293.642
					L326.287,293.642z"/>
				<path fill="#FFFFFF" d="M348.129,296.635c2.666,2.947,5.8,6.643,4.583,10.898c-1.637,0.233-3.227-0.421-4.817-0.842
					C347.287,303.37,346.913,299.862,348.129,296.635L348.129,296.635z"/>
				<path fill="#FFFFFF" d="M393.685,297.524c2.666,1.403,4.397,3.929,6.221,6.22c-1.216,2.947-1.871,6.127-3.555,8.84
					C394.761,307.721,393.639,302.669,393.685,297.524L393.685,297.524z"/>
				<path fill="#FFFFFF" d="M340.833,307.86c-1.029-3.368-0.655-7.109,1.123-10.196c0.468,0.421,0.982,0.842,1.45,1.263
					c0.608,0.562,1.169,1.123,1.777,1.684c1.964,1.497,1.544,4.209,1.964,6.361C345.042,307.439,342.938,307.767,340.833,307.86
					L340.833,307.86z"/>
				<path fill="#FFFFFF" d="M354.958,298.927c1.777,1.637,4.397,3.461,4.069,6.175c-0.047,1.215-0.281,2.432-0.421,3.647
					c-1.497-0.374-2.993-0.749-4.49-1.075C353.415,304.773,353.368,301.546,354.958,298.927L354.958,298.927z"/>
				<path fill="#FFFFFF" d="M334.659,309.685c-0.374-3.508,0.936-6.876,2.199-10.103c0.795,0.936,1.777,1.731,2.338,2.854
					c0.655,1.964,0.655,4.068,0.842,6.127c-0.468-0.047-1.45-0.047-1.964-0.047c0.468-0.655,0.982-1.311,1.496-1.965
					c-0.374-1.263-0.842-2.525-1.684-3.602c-0.187,1.777-1.123,3.695-0.094,5.379C336.811,308.843,335.782,309.357,334.659,309.685
					L334.659,309.685z"/>
				<path fill="#FFFFFF" d="M361.88,301.172c2.853,3.228,6.268,6.221,7.904,10.336c-3.321-1.028-6.782-1.637-10.149-2.479
					C359.261,306.223,360.243,303.464,361.88,301.172L361.88,301.172z"/>
			</g>
		</g>
		<g id="Text">
			<g id="Text_Group">
				<g id="Lions_Background_Text">
					<path id="S" fill="#29292A" d="M505.47,411.834c0.233,1.496,1.497,2.807,3.134,2.432c15.248-2.853,30.448-5.799,45.649-8.699
						c0.935-0.14,1.87-0.561,2.479-1.309c3.555-4.21,7.108-8.467,10.991-12.395c0.935-0.889,0.935-2.246,1.075-3.462
						c0.608-8.746,1.31-17.493,1.777-26.239c0.141-1.31-0.514-2.525-1.59-3.32c-2.619-2.199-5.052-4.771-8.186-6.221
						c-2.058-0.982-4.209-0.047-6.268,0.374c-8.559,2.198-17.165,4.21-25.725,6.313c0.094-2.291-0.047-4.583-0.094-6.875
						c12.395-3.273,24.789-6.641,37.091-10.242c1.356-0.234,1.964-1.591,1.918-2.854c-0.142-5.379-0.327-10.805-1.029-16.09
						c-0.188-1.73-2.339-2.385-3.741-1.777c-3.742,1.263-7.484,2.619-11.226,3.883l-48.456,14.398c0,0-0.545,2.706-0.521,4.331
						c-0.394-0.521,0.798,28.206,0.891,30.729c0.021,0.594,13.102,8.912,13.102,8.912l27.829-5.707l-0.28,8.092
						c0,0-35.332,7.097-36.075,7.174c-2.403,0.248-3.247,1.201-3.528,2.78C504.019,399.821,505.5,412.279,505.47,411.834z"/>
					<path id="N" fill="#29292A" d="M448.455,354.68c-5.145,1.215-10.337,2.244-15.528,3.461c-1.403,0.14-2.151,1.684-1.87,2.993
						c3.133,20.205,6.033,40.41,9.166,60.616c0.234,1.263,0.281,2.572,0.842,3.741c0.702,0.936,2.012,1.263,3.135,0.983
						c5.659-1.076,11.365-2.152,17.071-3.182c1.028-0.234,2.151-0.42,2.899-1.216c0.795-0.702,0.655-1.87,0.562-2.806
						c-2.058-16.651-3.788-33.349-5.753-50.047c6.174-1.355,12.348-2.666,18.475-4.162c1.264,15.902,2.292,31.805,3.555,47.66
						c0.188,1.637,0.141,3.32,0.655,4.911c0.608,1.356,2.292,1.403,3.508,1.123c6.127-1.217,12.302-2.292,18.382-3.556
						c1.637-0.279,2.011-1.964,1.917-3.367c0.233,1.496-1.72-65.568-2.72-67.751c-0.852-1.125-3.125-1.36-3.125-1.36L448.455,354.68
						z"/>
					<path id="O" fill="#29292A" d="M411.459,362.303c4.63-0.889,8.979,1.403,13.143,2.993c1.684,0.702,3.461,1.216,5.238,1.778
						c1.263,0.373,1.543,1.823,1.73,2.992c2.292,14.266,4.537,28.531,6.875,42.75c0.234,1.17,0.047,2.432-0.842,3.32
						c-3.18,3.742-5.939,7.812-8.652,11.928c-0.515,0.842-1.31,1.637-2.386,1.73c-12.113,2.291-24.228,4.537-36.341,6.781
						c-1.123,0.328-2.198,0-3.087-0.607c-4.584-2.807-9.308-5.426-13.985-7.998c-0.842-0.375-1.45-1.17-1.637-2.059
						c-4.069-14.639-8.326-29.232-12.254-43.918c-0.468-1.264,0.14-2.572,1.122-3.368c3.181-2.759,6.455-5.472,9.916-7.857
						c1.543-1.029,3.134-2.151,5.051-2.386C387.418,366.605,399.485,364.594,411.459,362.303L411.459,362.303z M386.583,383.209
						l7.729,31.979l18.813-3.563l-6.375-31.833L386.583,383.209z"/>
					<path id="I" fill="#29292A" d="M351.17,371.703c1.403-0.14,3.133-0.607,4.209,0.608c0.842,1.263,0.982,2.854,1.403,4.304
						c5.425,20.064,11.693,39.943,17.212,60.008c0.374,1.356-0.327,3.181-1.918,3.321c-6.314,1.263-12.628,2.339-18.942,3.554
						c-1.45,0.328-2.899-0.701-3.227-2.104c-5.94-18.99-12.675-37.792-18.428-56.875c-0.702-2.572-1.59-5.145-2.151-7.811
						c-0.281-1.497,1.169-2.666,2.525-2.76C338.26,373.201,344.715,372.545,351.17,371.703L351.17,371.703z"/>
					<path id="L" fill="#29292A" d="M266.793,378.626c7.016-0.28,14.079-0.654,21.094-1.075c1.356-0.188,2.806,0.607,3.181,1.964
						c5.004,17.212,12.067,33.723,18.802,50.327c10.29-1.777,20.58-3.648,30.917-5.473c1.356-0.375,2.947,0.234,3.321,1.684
						c1.73,4.957,3.368,9.869,4.958,14.873c0.608,1.403-0.141,3.462-1.824,3.648c-16.838,3.181-33.722,6.221-50.56,9.354
						c-1.169,0.233-2.666,0.327-3.461-0.795c-0.982-1.544-1.543-3.368-2.338-5.052c-9.354-21.655-20.112-42.889-26.52-65.668
						C263.613,380.684,264.875,378.626,266.793,378.626L266.793,378.626z"/>
				</g>
				<g id="Lions_Foreground_Text">
					<path id="S_1_" fill="#FEFEFE" d="M552.102,327.645L552.102,327.645c4.115-1.355,8.186-2.853,12.301-4.256
						c0.654,5.52,0.842,11.038,1.029,16.51c-12.956,3.789-26.006,7.344-39.055,10.805c0.047,3.789,0.047,7.624,0.28,11.412
						c9.869-2.291,19.691-4.677,29.514-7.156c1.31-0.279,2.806-0.842,4.116-0.046c2.993,1.684,5.378,4.21,7.951,6.407
						c-0.375,8.887-1.17,17.773-1.777,26.66c-0.094,0.842,0.046,1.824-0.655,2.432c-3.648,3.836-7.109,7.857-10.524,11.928
						c-0.42,0.607-1.028,0.982-1.73,1.029c-15.293,2.852-30.541,5.893-45.789,8.699c-0.188-5.566-0.515-10.758-0.562-16.277
						c13.097-2.619,26.192-5.145,39.288-7.811c0.188-4.257,0.422-8.934,0.469-13.189c-9.775,2.105-19.598,4.256-29.42,6.221
						c-4.116-2.245-7.764-5.332-11.834-7.717c-0.233-7.109-0.936-14.212-0.936-21.329c0-2.341-0.351-9.936,1.357-10.591"/>
					<path id="N_1_" fill="#FEFEFE" d="M496.068,346c4.855-1.375,4.182,2.625,4.537,7.463c1.453,19.78,1.59,39.662,2.666,59.447
						c-6.501,1.31-13.049,2.525-19.551,3.742c-1.59-18.102-2.619-36.296-4.162-54.396c-7.671,1.824-15.389,3.508-23.105,5.191
						c2.059,17.727,3.882,35.5,6.08,53.227c-6.502,1.217-13.049,2.433-19.551,3.695c-3.32-21.328-6.361-42.656-9.729-63.984
						c5.052-1.122,15.107-3.32,15.107-3.32"/>
					<path id="O_1_" fill="#FFFFFF" d="M383.956,381.315c8.138-1.31,16.23-2.759,24.322-4.256
						c2.338,12.021,4.816,24.04,7.109,36.061c-7.577,1.356-15.154,2.807-22.685,4.163
						C389.802,405.309,386.855,393.336,383.956,381.315L383.956,381.315z M374.602,370.955c-4.958,2.525-9.027,6.408-13.283,9.963
						c2.713,10.103,5.613,20.205,8.466,30.309c1.45,4.771,2.573,9.729,4.209,14.452c4.958,2.899,10.056,5.659,14.967,8.653
						c1.543,0,2.993-0.469,4.49-0.702c11.039-2.058,22.076-4.163,33.114-6.174c2.993-4.631,6.175-9.167,9.683-13.376
						c-2.386-14.968-4.725-29.935-7.156-44.855c-2.012-0.561-4.022-1.215-5.94-2.011c-3.602-1.403-7.343-3.414-11.366-2.62
						C399.438,367.027,386.997,368.897,374.602,370.955L374.602,370.955z"/>
					<path id="I_1_" fill="#FEFEFE" d="M331.525,376.287c7.39-0.748,14.78-1.637,22.17-2.525
						c5.566,21.422,12.348,42.516,18.194,63.891c-6.548,1.217-13.05,2.432-19.598,3.648
						C345.557,419.551,337.652,398.224,331.525,376.287L331.525,376.287z"/>
					<path id="L_1_" fill="#FEFEFE" d="M266.372,380.965c7.484-0.234,14.967-0.654,22.45-1.123
						c5.099,18.055,12.582,35.266,19.598,52.572c11.132-1.918,22.263-3.883,33.396-5.894c1.824,5.239,3.554,10.478,5.238,15.716
						c-17.305,3.273-34.658,6.407-51.963,9.635c-7.25-16.791-15.201-33.256-21.843-50.279
						C270.628,394.81,268.196,387.98,266.372,380.965L266.372,380.965z"/>
				</g>
			</g>
			<g id="Text_Shading_Group">
				<linearGradient id="S_3_" gradientUnits="userSpaceOnUse" x1="540.4492" y1="409.4219" x2="536.1076" y2="373.4121">
					<stop  offset="0" style="stop-color:#FFFFFF"/>
					<stop  offset="0.1596" style="stop-color:#F8F8F8"/>
					<stop  offset="0.8834" style="stop-color:#DCDDDE"/>
				</linearGradient>
				<path id="S_2_" fill="url(#S_3_)" d="M508.125,373.625L566.5,361.75l-1.438,27.375l-11.396,12.542l-44.917,8.583l-0.313-13.563
					l38.049-7.45c1.964-0.302,1.776-0.263,1.92-8.243c0.127-7.434,0.127-7.586-1.769-7.315c0,0-18.088,3.959-28.888,6.196
					C516.275,380.181,508.125,373.625,508.125,373.625z"/>
				<linearGradient id="N2_1_" gradientUnits="userSpaceOnUse" x1="495.082" y1="413.5508" x2="491.0063" y2="379.7463">
					<stop  offset="0" style="stop-color:#FFFFFF"/>
					<stop  offset="0.1596" style="stop-color:#F8F8F8"/>
					<stop  offset="0.8834" style="stop-color:#DCDDDE"/>
				</linearGradient>
				<polygon id="N2" fill="url(#N2_1_)" points="483.343,378.26 499.652,375.506 500.924,410.243 485.885,413.209 				"/>
				<linearGradient id="N1_1_" gradientUnits="userSpaceOnUse" x1="451.6289" y1="419.2207" x2="447.4679" y2="384.7087">
					<stop  offset="0" style="stop-color:#FFFFFF"/>
					<stop  offset="0.1596" style="stop-color:#F8F8F8"/>
					<stop  offset="0.8834" style="stop-color:#DCDDDE"/>
				</linearGradient>
				<polygon id="N1" fill="url(#N1_1_)" points="440.006,385.849 445,421.438 459.063,418.125 454.875,383.125 				"/>
				<linearGradient id="O_3_" gradientUnits="userSpaceOnUse" x1="403.1289" y1="425.1807" x2="398.9862" y2="390.8203">
					<stop  offset="0" style="stop-color:#FFFFFF"/>
					<stop  offset="0.1596" style="stop-color:#F8F8F8"/>
					<stop  offset="0.8834" style="stop-color:#DCDDDE"/>
				</linearGradient>
				<path id="O_2_" fill="url(#O_3_)" d="M369.125,398.375L376,425.063l13,7.313l35.188-7.125l8.313-11.688l-4-25.688l-14.75,2.5
					c0,0,4.417,22.792,4,24.375s-26.375,5.375-28.063,4.313S383.5,395.75,383.5,395.75L369.125,398.375z"/>
				<linearGradient id="I_3_" gradientUnits="userSpaceOnUse" x1="357.3203" y1="430.7373" x2="353.2151" y2="396.6884">
					<stop  offset="0" style="stop-color:#FFFFFF"/>
					<stop  offset="0.1596" style="stop-color:#F8F8F8"/>
					<stop  offset="0.8834" style="stop-color:#DCDDDE"/>
				</linearGradient>
				<polygon id="I_2_" fill="url(#I_3_)" points="342.375,403.125 358.75,400.5 369.563,435.938 353.688,439.563 				"/>
				<linearGradient id="L_3_" gradientUnits="userSpaceOnUse" x1="312.7886" y1="436.2148" x2="308.6355" y2="401.7685">
					<stop  offset="0" style="stop-color:#FFFFFF"/>
					<stop  offset="0.1596" style="stop-color:#F8F8F8"/>
					<stop  offset="0.8834" style="stop-color:#DCDDDE"/>
				</linearGradient>
				<polygon id="L_2_" fill="url(#L_3_)" points="280.125,413.625 297.375,411 307.167,434.667 339.188,428.25 343.313,441.063 
					296.688,450.375 				"/>
			</g>
		</g>
	</g>
</g>
</svg>
