<?xml version="1.0" encoding="UTF-8" standalone="no"?>
<!-- Created with Inkscape (http://www.inkscape.org/) -->

<svg
   xmlns:dc="http://purl.org/dc/elements/1.1/"
   xmlns:cc="http://creativecommons.org/ns#"
   xmlns:rdf="http://www.w3.org/1999/02/22-rdf-syntax-ns#"
   xmlns:svg="http://www.w3.org/2000/svg"
   xmlns="http://www.w3.org/2000/svg"
   xmlns:xlink="http://www.w3.org/1999/xlink"
   xmlns:sodipodi="http://sodipodi.sourceforge.net/DTD/sodipodi-0.dtd"
   xmlns:inkscape="http://www.inkscape.org/namespaces/inkscape"
   width="440"
   height="594"
   id="svg4344"
   version="1.1"
   inkscape:version="0.48.1 "
   sodipodi:docname="lions2.svg">
  <defs
     id="defs4346">
    <clipPath
       clipPathUnits="userSpaceOnUse"
       id="clipPath3163">
      <path
         inkscape:connector-curvature="0"
         d="m 2641.25,1791.25 172.5,26.25 97.92,-236.67 320.21,64.17 41.25,-128.13 -466.25,-93.12 -165.63,367.5 z"
         id="path3165" />
    </clipPath>
    <linearGradient
       inkscape:collect="always"
       xlink:href="#linearGradient3167"
       id="linearGradient4181"
       gradientUnits="userSpaceOnUse"
       gradientTransform="matrix(-4.15309,34.4463,34.4463,4.15309,296.788,156.535)"
       spreadMethod="pad"
       x1="0"
       y1="0"
       x2="1"
       y2="0" />
    <linearGradient
       x1="0"
       y1="0"
       x2="1"
       y2="0"
       gradientUnits="userSpaceOnUse"
       gradientTransform="matrix(-4.15309,34.4463,34.4463,4.15309,296.788,156.535)"
       spreadMethod="pad"
       id="linearGradient3167">
      <stop
         style="stop-opacity:1;stop-color:#ffffff"
         offset="0"
         id="stop3169" />
      <stop
         style="stop-opacity:1;stop-color:#deddde"
         offset="0.883436"
         id="stop3171" />
      <stop
         style="stop-opacity:1;stop-color:#deddde"
         offset="1"
         id="stop3173" />
    </linearGradient>
    <clipPath
       clipPathUnits="userSpaceOnUse"
       id="clipPath3181">
      <path
         inkscape:connector-curvature="0"
         d="m 3263.75,1896.25 163.75,26.25 108.13,-354.38 -158.75,-36.25 -113.13,364.38 z"
         id="path3183" />
    </clipPath>
    <linearGradient
       inkscape:collect="always"
       xlink:href="#linearGradient3185"
       id="linearGradient4183"
       gradientUnits="userSpaceOnUse"
       gradientTransform="matrix(-4.10507,34.0481,34.0481,4.10507,341.319,162.013)"
       spreadMethod="pad"
       x1="0"
       y1="0"
       x2="1"
       y2="0" />
    <linearGradient
       x1="0"
       y1="0"
       x2="1"
       y2="0"
       gradientUnits="userSpaceOnUse"
       gradientTransform="matrix(-4.10507,34.0481,34.0481,4.10507,341.319,162.013)"
       spreadMethod="pad"
       id="linearGradient3185">
      <stop
         style="stop-opacity:1;stop-color:#ffffff"
         offset="0"
         id="stop3187" />
      <stop
         style="stop-opacity:1;stop-color:#deddde"
         offset="0.883436"
         id="stop3189" />
      <stop
         style="stop-opacity:1;stop-color:#deddde"
         offset="1"
         id="stop3191" />
    </linearGradient>
    <clipPath
       clipPathUnits="userSpaceOnUse"
       id="clipPath3199">
      <path
         inkscape:connector-curvature="0"
         d="m 3531.25,1943.75 68.75,-266.88 130,-73.12 351.88,71.25 83.12,116.87 -40,256.88 -147.5,-25 c 0,0 44.17,-227.92 40,-243.75 -4.17,-15.83 -263.75,-53.75 -280.62,-43.13 C 3720,1747.5 3675,1970 3675,1970 l -143.75,-26.25 z"
         id="path3201" />
    </clipPath>
    <linearGradient
       inkscape:collect="always"
       xlink:href="#linearGradient3203"
       id="linearGradient4185"
       gradientUnits="userSpaceOnUse"
       gradientTransform="matrix(-4.14263,34.3595,34.3595,4.14263,387.128,167.57)"
       spreadMethod="pad"
       x1="0"
       y1="0"
       x2="1"
       y2="0" />
    <linearGradient
       x1="0"
       y1="0"
       x2="1"
       y2="0"
       gradientUnits="userSpaceOnUse"
       gradientTransform="matrix(-4.14263,34.3595,34.3595,4.14263,387.128,167.57)"
       spreadMethod="pad"
       id="linearGradient3203">
      <stop
         style="stop-opacity:1;stop-color:#ffffff"
         offset="0"
         id="stop3205" />
      <stop
         style="stop-opacity:1;stop-color:#deddde"
         offset="0.883436"
         id="stop3207" />
      <stop
         style="stop-opacity:1;stop-color:#deddde"
         offset="1"
         id="stop3209" />
    </linearGradient>
    <clipPath
       clipPathUnits="userSpaceOnUse"
       id="clipPath3217">
      <path
         inkscape:connector-curvature="0"
         d="m 4240.06,2069.01 49.94,-355.89 140.63,33.13 -41.88,350 -148.69,-27.24 z"
         id="path3219" />
    </clipPath>
    <linearGradient
       inkscape:collect="always"
       xlink:href="#linearGradient3221"
       id="linearGradient4187"
       gradientUnits="userSpaceOnUse"
       gradientTransform="matrix(-4.16112,34.5129,34.5129,4.16112,435.628,173.529)"
       spreadMethod="pad"
       x1="0"
       y1="0"
       x2="1"
       y2="0" />
    <linearGradient
       x1="0"
       y1="0"
       x2="1"
       y2="0"
       gradientUnits="userSpaceOnUse"
       gradientTransform="matrix(-4.16112,34.5129,34.5129,4.16112,435.628,173.529)"
       spreadMethod="pad"
       id="linearGradient3221">
      <stop
         style="stop-opacity:1;stop-color:#ffffff"
         offset="0"
         id="stop3223" />
      <stop
         style="stop-opacity:1;stop-color:#deddde"
         offset="0.883436"
         id="stop3225" />
      <stop
         style="stop-opacity:1;stop-color:#deddde"
         offset="1"
         id="stop3227" />
    </linearGradient>
    <clipPath
       clipPathUnits="userSpaceOnUse"
       id="clipPath3235">
      <path
         inkscape:connector-curvature="0"
         d="m 4673.43,2144.9 163.09,27.54 12.72,-347.37 -150.39,-29.66 -25.42,349.49 z"
         id="path3237" />
    </clipPath>
    <linearGradient
       inkscape:collect="always"
       xlink:href="#linearGradient3239"
       id="linearGradient4189"
       gradientUnits="userSpaceOnUse"
       gradientTransform="matrix(-4.07559,33.8035,33.8035,4.07559,479.082,179.2)"
       spreadMethod="pad"
       x1="0"
       y1="0"
       x2="1"
       y2="0" />
    <linearGradient
       x1="0"
       y1="0"
       x2="1"
       y2="0"
       gradientUnits="userSpaceOnUse"
       gradientTransform="matrix(-4.07559,33.8035,33.8035,4.07559,479.082,179.2)"
       spreadMethod="pad"
       id="linearGradient3239">
      <stop
         style="stop-opacity:1;stop-color:#ffffff"
         offset="0"
         id="stop3241" />
      <stop
         style="stop-opacity:1;stop-color:#deddde"
         offset="0.883436"
         id="stop3243" />
      <stop
         style="stop-opacity:1;stop-color:#deddde"
         offset="1"
         id="stop3245" />
    </linearGradient>
    <clipPath
       clipPathUnits="userSpaceOnUse"
       id="clipPath3253">
      <path
         inkscape:connector-curvature="0"
         d="M 4921.25,2191.25 5505,2310 5490.63,2036.25 5376.67,1910.83 4927.5,1825 l -3.12,135.62 380.48,74.5 c 19.64,3.02 17.77,2.63 19.2,82.44 1.27,74.33 1.27,75.85 -17.68,73.15 0,0 -180.88,-39.59 -288.88,-61.96 -14.75,-3.06 -96.25,62.5 -96.25,62.5 z"
         id="path3255" />
    </clipPath>
    <linearGradient
       inkscape:collect="always"
       xlink:href="#linearGradient3257"
       id="linearGradient4191"
       gradientUnits="userSpaceOnUse"
       gradientTransform="matrix(-4.3416,36.0098,36.0098,4.3416,524.448,183.329)"
       spreadMethod="pad"
       x1="0"
       y1="0"
       x2="1"
       y2="0" />
    <linearGradient
       x1="0"
       y1="0"
       x2="1"
       y2="0"
       gradientUnits="userSpaceOnUse"
       gradientTransform="matrix(-4.3416,36.0098,36.0098,4.3416,524.448,183.329)"
       spreadMethod="pad"
       id="linearGradient3257">
      <stop
         style="stop-opacity:1;stop-color:#ffffff"
         offset="0"
         id="stop3259" />
      <stop
         style="stop-opacity:1;stop-color:#deddde"
         offset="0.883436"
         id="stop3261" />
      <stop
         style="stop-opacity:1;stop-color:#deddde"
         offset="1"
         id="stop3263" />
    </linearGradient>
  </defs>
  <sodipodi:namedview
     id="base"
     pagecolor="#ffffff"
     bordercolor="#666666"
     borderopacity="1.0"
     inkscape:pageopacity="0.0"
     inkscape:pageshadow="2"
     inkscape:zoom="0.35"
     inkscape:cx="375"
     inkscape:cy="520"
     inkscape:document-units="px"
     inkscape:current-layer="layer1"
     showgrid="false"
     inkscape:window-width="1920"
     inkscape:window-height="1018"
     inkscape:window-x="1272"
     inkscape:window-y="-8"
     inkscape:window-maximized="1" />
  <metadata
     id="metadata4349">
    <rdf:RDF>
      <cc:Work
         rdf:about="">
        <dc:format>image/svg+xml</dc:format>
        <dc:type
           rdf:resource="http://purl.org/dc/dcmitype/StillImage" />
        <dc:title></dc:title>
      </cc:Work>
    </rdf:RDF>
  </metadata>
  <g
     inkscape:label="Layer 1"
     inkscape:groupmode="layer"
     id="layer1"
     transform="translate(0,-458.36218)">
    <g
       id="g4089"
       transform="matrix(0.125,0,0,-0.125,-262.85303,1162.0258)">
      <path
         d="m 3777.32,5152.41 c 416.27,10.29 833.94,-37.42 1238.52,-137.51 208.13,-50.98 412.99,-115.53 613.65,-190.83 10.75,-3.28 14.03,-15.9 13.56,-25.72 -6.55,-360.15 -13.1,-720.29 -19.65,-1080.43 -7.48,-383.53 -89.8,-765.19 -238.54,-1118.31 -107.1,-258.19 -249.29,-501.41 -415.33,-725.9 -144.05,-193.18 -305.42,-373.71 -480.35,-539.29 -158.09,-147.8 -326,-285.77 -505.14,-406.908 -36.94,-24.332 -72.95,-49.582 -112.24,-69.703 -11.22,-6.067 -21.99,2.343 -31.81,7.023 -94.01,53.32 -181.94,115.527 -269.4,178.668 -231.52,172.12 -444.8,369.03 -634.23,586.99 -242.74,279.69 -445.27,595.87 -585.11,939.64 -153.41,372.77 -228.72,777.35 -222.64,1180.53 0,349.38 0,698.77 0,1048.15 -0.93,20.11 21.99,22.92 36.01,28.53 515.43,194.11 1061.26,311.04 1612.7,325.07 l 0,0"
         style="fill:#393536;fill-opacity:1;fill-rule:nonzero;stroke:none"
         id="path3015"
         inkscape:connector-curvature="0" />
      <path
         d="m 2646.38,4871.31 c 573.42,161.36 1178.18,210.48 1769.84,141.71 217.49,-25.25 434.04,-64.54 645.46,-120.66 159.02,-42.57 315.7,-92.15 470.06,-148.27 -5.16,-272.21 -9.83,-543.96 -14.5,-815.7 -2.82,-112.26 -2.34,-224.51 -8.9,-336.76 -12.15,-185.69 -39.75,-371.37 -87.46,-551.44 -83.25,-311.03 -216.55,-607.57 -387.74,-879.78 -151.54,-241.81 -334.88,-463.04 -536.47,-664.62 -155.75,-156.22 -323.66,-299.82 -502.8,-428.9 -42.56,-30.41 -86.99,-59.4 -131.43,-88.398 -200.18,121.598 -383.99,268.468 -556.11,427.488 -241.81,226.85 -460.24,481.75 -631.89,766.59 -101.5,167.92 -188.02,345.18 -257.25,528.52 -63.14,168.38 -111.78,342.37 -139.84,520.11 -25.73,159.49 -38.36,320.85 -38.82,482.68 0.46,344.71 0,689.89 0.46,1035.06 134.24,49.11 269.88,93.55 407.39,132.37 l 0,0"
         style="fill:#da4219;fill-opacity:1;fill-rule:nonzero;stroke:none"
         id="path3017"
         inkscape:connector-curvature="0" />
      <path
         d="m 3093.52,4865.7 c 536.47,94.94 1089.78,93.07 1626.26,-5.15 239.46,-41.63 473.79,-111.31 703.44,-190.83 -4.68,-219.36 -7.95,-439.19 -12.17,-659.02 C 4434.47,3620.16 3458.33,3230.08 2481.74,2839.54 l -0.47,-0.47 c -30.86,94.95 -61.27,190.83 -79.51,289.05 -36.48,186.15 -54.72,376.52 -55.66,566.41 0,323.19 0.47,646.85 0,970.05 128.15,44.43 257.24,86.53 388.21,121.6 118.33,33.21 238.53,58.46 359.21,79.52 l 0,0"
         style="fill:#ffffff;fill-opacity:1;fill-rule:nonzero;stroke:none"
         id="path3019"
         inkscape:connector-curvature="0" />
      <path
         d="m 2481.74,2839.54 c 976.59,390.54 1952.73,780.62 2929.31,1171.16 -1.86,-109.91 -3.73,-219.82 -6.07,-329.74 -5.15,-144.05 -19.18,-287.64 -45.37,-428.89 C 4498.54,2905.49 3637,2559.37 2775.93,2212.8 c -82.78,132.82 -153.41,273.14 -215.15,416.73 -28.52,69.22 -56.59,138.91 -79.04,210.01 l 0,0"
         style="fill:#393536;fill-opacity:1;fill-rule:nonzero;stroke:none"
         id="path3021"
         inkscape:connector-curvature="0" />
      <path
         d="m 3864.79,5597.2 c 23.84,5.62 48.64,8.89 73.42,10.3 -19.64,-19.65 -45.83,-30.87 -63.6,-51.92 -20.59,-24.32 -45.37,-47.7 -51.46,-79.98 -5.14,-27.13 -16.36,-54.26 -13.09,-82.31 4.68,-27.14 20.11,-50.99 29.93,-76.72 12.63,-34.14 39.76,-61.27 70.17,-80.44 28.05,51.91 67.34,95.88 110.38,135.64 24.78,22.44 44.42,50.04 72.96,67.82 35.54,21.98 67.82,49.11 106.64,65.48 45.37,18.71 91.68,36.95 140.78,41.16 41.16,3.74 81.85,0 123.01,0 -19.64,-22.45 -47.24,-36.96 -66.41,-60.34 -33.68,-40.69 -65.96,-86.53 -76.24,-139.85 -11.69,-47.7 -27.13,-100.56 -1.88,-146.86 26.21,23.86 50.05,50.98 80.91,68.75 82.33,45.84 170.73,84.19 264.74,99.16 71.56,8.42 145.93,5.14 214.68,-17.78 -43.5,-30.86 -68.28,-79.97 -85.59,-129.08 -26.19,-50.05 -26.66,-108.52 -22.92,-163.71 42.57,37.89 91.2,74.84 150.14,79.52 63.6,2.8 131.42,-12.16 180.53,-54.25 12.17,-9.36 18.72,-23.4 25.73,-36.96 -52.39,-5.61 -107.1,-43.03 -109.44,-99.62 52.86,-6.55 105.71,-23.85 149.67,-54.73 50.51,-36.95 90.73,-86.52 120.67,-140.78 40.69,-75.77 84.19,-152.01 94.94,-238.54 -26.18,22.45 -47.23,51.45 -78.11,68.29 -29.46,14.97 -60.33,29.47 -93.06,33.21 -30.88,4.21 -61.74,10.76 -93.09,6.55 26.19,-16.37 56.6,-24.33 81.85,-42.09 89.81,-65.96 159.5,-163.71 176.33,-275.49 4.22,-30.41 4.22,-60.81 2.82,-91.21 -21.06,13.57 -33.68,35.55 -43.51,58 -12.63,30.4 -34.6,55.19 -57.06,79.04 -53.32,55.19 -122.07,98.69 -199.25,109.45 16.38,-12.63 34.62,-24.33 48.17,-40.69 41.64,-51.45 85.13,-102.9 110.86,-165.11 25.73,-64.54 40.69,-133.76 41.16,-203.46 -24.32,25.73 -38.82,58 -62.21,84.19 -38.82,52.39 -94,98.23 -160.9,104.77 56.13,-48.64 84.19,-119.26 112.26,-186.15 9.82,-25.72 24.32,-50.51 29.46,-78.11 10.76,-51.91 31.82,-101.96 33.21,-155.75 5.62,-86.06 17.31,-177.73 -19.17,-259.11 -6.09,-0.47 -12.17,-1.4 -18.24,-2.34 -7.02,38.82 -9.35,80.45 -32.28,114.12 -33.68,50.05 -90.27,78.58 -146.86,95.41 40.21,-43.96 65.48,-99.15 80.45,-156.22 28.52,-80.44 37.42,-166.03 45.84,-250.69 0.46,-64.54 1.85,-130.96 -15.91,-193.64 -9.82,7.49 -22.92,14.5 -23.39,28.06 -6.54,42.1 -22.45,82.79 -50.51,114.6 9.82,-39.29 25.26,-77.17 33.21,-116.93 7.95,-36.95 6.54,-75.3 6.54,-112.72 0.94,-64.08 -2.79,-128.62 -17.77,-191.3 -17.77,-66.41 -40.69,-131.43 -65.47,-195.51 -11.7,-33.67 -10.29,-69.69 -14.04,-104.77 -20.1,21.06 -31.33,49.59 -33.68,78.59 -4.67,53.78 0.94,110.38 -20.1,161.82 -32.75,69.69 -68.3,143.13 -130.97,191.3 9.82,-53.32 23.86,-105.71 28.53,-159.96 8.42,-83.72 8.42,-168.84 -6.54,-252.1 -14.97,-64.55 -29,-130.02 -57.07,-190.83 -21.51,-47.23 -39.29,-99.62 -79.51,-134.7 -4.21,25.73 -0.94,51.45 -0.47,77.17 -3.74,75.77 -39.29,149.67 -97.28,198.32 -0.47,-47.71 11.69,-94.48 11.23,-142.18 -2.35,-56.14 5.6,-112.73 -0.94,-168.38 -15.43,-93.09 -47.24,-181.49 -73.91,-271.29 -12.16,-42.56 -29.45,-82.78 -40.21,-125.34 -4.69,-0.47 -9.36,-0.94 -14.05,-1.4 -7.48,94 -46.28,183.34 -99.61,260.04 -7.49,-76.7 -50.51,-143.12 -72.5,-215.61 -17.3,-68.3 -1.4,-139.85 23.38,-203.92 -57.52,26.19 -101.95,75.76 -130.48,131.42 -31.81,61.74 -40.23,132.83 -34.61,201.58 -29.01,-21.51 -50.05,-51.44 -75.31,-77.16 -27.14,-28.07 -45.84,-64.09 -57.53,-101.51 -14.96,-57.99 -32.74,-115.99 -29.94,-176.79 -1.86,-43.03 13.11,-84.18 13.57,-126.75 -25.26,4.21 -30.87,30.87 -43.5,48.64 -44.43,59.86 -104.3,111.32 -128.15,183.81 -17.78,60.34 -1.87,123.48 15.44,182.41 -30.41,-21.04 -50.05,-52.85 -72.04,-81.38 -50.04,-72.5 -85.59,-155.75 -98.68,-243.21 -7.96,-32.27 -4.22,-65.01 -8.42,-97.76 -15.91,15.91 -28.53,35.55 -34.61,57.07 -15.44,49.57 -30.87,100.1 -30.4,152.01 1.4,53.79 12.62,106.17 22.92,158.55 -28.54,-24.31 -55.67,-51.44 -71.1,-86.06 -18.71,-44.43 -44.91,-85.13 -56.59,-131.89 -7.95,-28.53 -5.62,-59.41 -21.52,-85.6 -33.21,99.63 -39.75,206.27 -77.17,304.96 -12.63,-42.1 -31.81,-81.39 -50.99,-120.67 -5.6,-12.16 -20.1,-14.97 -30.86,-19.65 1.87,44.9 7.48,91.67 -8.89,134.7 -19.64,51.45 -41.16,104.3 -79.52,145.46 -17.77,19.18 -47.23,29 -72.49,19.18 -15.9,-7.02 -20.58,-26.2 -23.85,-41.63 -7.96,-34.61 13.09,-66.41 20.11,-99.16 -22.92,9.36 -38.82,28.54 -57.07,44.44 -26.65,24.79 -55.65,48.17 -74.36,79.99 -28.53,43.49 -43.5,94 -64.08,141.71 -10.76,25.26 -19.64,51.92 -21.98,79.51 -7.48,75.77 -20.11,152.47 -11.22,229.19 3.27,37.41 15.9,73.42 16.83,110.84 -35.08,-28.54 -54.25,-75.3 -50.04,-120.67 0,-17.77 14.03,-31.34 16.84,-48.65 -35.08,0 -62.22,26.67 -83.26,51.92 -25.25,34.61 -49.11,72.03 -58.93,114.13 -9.82,38.34 -11.23,78.11 -14.97,116.93 -7.48,79.97 5.61,160.89 36.95,234.79 13.1,31.34 25.72,64.08 24.79,99.16 -30.87,-20.11 -49.58,-53.79 -65.95,-85.6 -13.1,-24.31 -11.22,-52.38 -11.22,-79.04 -4.22,1.4 -12.63,4.21 -17.31,5.62 -1.87,30.86 4.21,62.2 -1.87,93.07 -5.15,29 -12.16,57.99 -23.85,85.12 -9.82,-32.74 -7.96,-69.22 -26.2,-99.15 -16.84,-28.07 -32.27,-57.07 -53.32,-82.32 -4.67,-6.08 -13.09,-7.01 -19.64,-9.83 17.31,95.42 -21.52,186.63 -42.56,277.83 -13.57,51.92 -15.44,105.71 -12.63,159.03 0.93,26.19 14.03,49.11 27.13,71.09 -29.47,26.19 -50.52,60.8 -64.55,97.28 -33.67,-25.72 -70.62,-46.77 -109.91,-63.14 6.54,28.53 21.05,54.73 26.66,83.73 9.35,53.32 11.69,108.04 7.48,161.83 -1.87,28.06 -6.55,56.12 -4.68,84.65 3.28,39.29 22.46,74.83 38.35,109.91 -30.4,4.68 -59.39,-10.28 -80.91,-30.86 -24.78,-20.11 -37.42,-50.05 -52.85,-76.71 -6.08,4.68 -14.03,8.89 -14.97,17.78 -12.16,53.31 -3.74,109.44 13.1,160.89 17.3,52.85 46.77,100.09 80.91,143.12 18.24,29.47 42.1,54.73 63.15,81.85 -16.84,22.45 -29.93,48.18 -37.89,75.3 -42.56,139.85 -14.03,294.67 56.59,420.48 17.31,37.42 34.15,83.26 77.64,96.36 -16.36,-46.78 -7.01,-102.44 30.41,-136.11 3.74,37.41 12.16,73.9 17.77,110.85 4.68,29.93 2.34,60.33 6.55,90.26 7.48,59.88 26.19,117.4 34.61,177.27 2.81,21.51 -11.69,40.22 -18.71,59.87 11.23,-6.08 22.45,-12.16 31.34,-21.51 29,-31.81 50.51,-69.23 71.09,-106.65 28.07,70.17 62.21,138.45 107.58,199.72 32.74,37.89 65.95,85.59 119.73,93.08 -24.32,-42.1 -61.74,-77.64 -73.43,-126.29 -14.5,-42.56 -9.36,-89.33 9.35,-129.56 4.21,-8.42 7.49,-19.64 18.25,-21.51 30.4,59.87 56.59,122.54 94.94,178.67 29,50.05 69.69,92.14 106.17,137.04 21.05,25.72 47.25,47.24 75.31,65.01 29.93,17.78 58.93,39.29 94.01,44.91 -7.95,-31.81 -23.86,-60.81 -31.8,-92.61 -14.5,-63.15 -19.65,-130.97 1.4,-193.64 47.24,19.17 92.14,46.3 128.62,81.85 30.87,31.81 60.34,65.01 86.06,101.02 18.24,24.8 22.45,55.2 34.15,82.79 26.18,66.89 71.56,127.23 130.96,167.91 25.72,17.78 56.59,24.32 83.72,38.36 22.92,12.16 48.17,17.77 72.49,25.73 19.65,6.54 37.42,17.3 57.54,21.5 l 0,0"
         style="fill:#231f20;fill-opacity:1;fill-rule:nonzero;stroke:none"
         id="path3023"
         inkscape:connector-curvature="0" />
      <path
         d="m 3634.19,5411.99 c 35.56,36.01 75.78,71.09 125.82,85.6 -20.58,-70.63 -15.9,-148.74 17.31,-214.69 17.3,-38.35 48.17,-67.35 76.7,-97.29 30.4,-28.99 61.27,-58.46 94.49,-84.19 20.1,59.41 43.96,119.74 86.99,166.98 21.51,25.26 50.52,42.56 76.71,63.15 29.94,23.38 58,49.1 91.67,67.34 27.59,14.97 53.32,34.15 82.78,44.44 -20.57,-59.87 -47.7,-118.33 -58.46,-181.48 -7.95,-38.81 -4.68,-78.58 0,-117.39 5.61,-42.1 4.67,-87 25.26,-125.82 21.05,34.61 47.71,66.41 79.51,92.14 48.17,44.9 103.36,81.85 159.96,115.52 64.55,32.28 133.3,60.81 206.27,67.36 -10.29,-11.7 -23.86,-19.64 -38.36,-24.32 -43.03,-15.44 -86.99,-31.34 -124.88,-57.53 -21.52,-14.51 -44.44,-29.94 -56.14,-53.79 34.62,15.43 65.49,42.09 105.25,44.9 -9.82,-19.18 -21.05,-38.82 -19.17,-61.27 11.69,7.01 22.44,16.37 32.26,26.19 8.89,-12.63 21.06,-25.25 19.18,-41.62 -1.87,-15.44 -12.63,-27.6 -20.58,-39.76 4.22,-4.21 8.42,-8.42 13.1,-12.63 -7.02,-6.08 -14.51,-11.69 -19.65,-19.17 2.35,-22.46 14.5,-42.11 27.13,-59.87 14.5,-20.11 29.01,-40.23 47.24,-57.07 -24.79,40.23 -46.77,90.74 -25.72,137.51 6.55,-29.93 5.61,-61.27 14.5,-91.2 6.07,19.18 -2.34,38.35 -2.81,57.06 -2.81,37.89 -3.27,76.24 2.81,113.19 7.95,47.7 32.27,89.8 48.17,134.7 1.87,7.48 9.35,10.29 15.43,13.1 15.44,6.55 31.34,11.22 47.25,15.9 -20.58,-40.22 -47.25,-78.11 -63.61,-120.68 -21.99,-51.91 -29.47,-109.44 -18.24,-164.63 8.88,-43.96 26.65,-85.59 50.98,-123.01 17.77,29 32.27,61.27 57.99,84.19 61.27,61.27 151.07,96.82 237.61,79.51 -30.4,-20.58 -60.35,-42.56 -89.81,-65.01 6.55,16.37 13.57,32.27 19.64,48.64 -20.1,-3.27 -37.87,-14.96 -50.04,-30.86 -17.3,-22.45 -37.89,-45.38 -42.56,-74.38 -4.22,-21.98 -1.4,-44.43 3.74,-65.94 20.11,28.07 20.58,66.41 45.83,90.74 0.47,-33.68 -18.71,-65.95 -8.88,-99.63 32.27,1.87 65.02,13.56 96.81,3.74 71.56,-19.64 143.13,-54.72 188.5,-115.53 24.31,-33.67 50.97,-65.94 70.15,-102.89 -37.41,3.74 -73.9,14.03 -111.77,13.56 -56.6,-0.94 -111.33,-20.11 -160.43,-46.77 33.2,-28.53 77.17,-38.82 115.06,-58.47 32.73,-15.9 58.45,-41.62 88.39,-60.8 19.17,-12.16 36.49,-26.66 50.51,-44.43 -31.34,4.68 -58.92,20.58 -89.33,28.53 -45.37,11.69 -92.13,15.43 -138.44,12.16 -24.79,-1.87 -54.26,3.74 -72.5,-17.31 18.24,-11.69 37.89,-20.58 54.73,-34.14 36.01,-29 73.42,-57.06 105.23,-91.2 22.92,-26.2 44.43,-53.79 60.33,-84.66 -20.12,3.27 -39.29,9.35 -58.46,16.37 -27.12,9.35 -55.66,13.1 -83.26,20.11 -22.91,6.08 -46.3,0 -69.22,-1.4 -19.64,-0.94 -38.82,-1.41 -57.99,-3.74 -0.47,-5.15 -1.41,-10.29 -1.87,-15.44 14.49,-8.89 28.53,-18.71 41.62,-30.4 37.89,-34.61 81.39,-65.95 107.58,-111.79 64.55,-111.31 99.63,-237.6 117.86,-364.35 -83.72,40.7 -180.07,58.46 -272.21,40.7 18.71,-22.92 40.23,-43.5 58,-67.36 32.74,-43.49 58.93,-91.67 77.17,-143.12 30.4,-75.3 46.31,-156.22 49.11,-237.13 -53.32,32.74 -108.5,76.23 -174.93,68.75 11.23,-28.53 36.48,-48.64 49.59,-76.24 14.96,-30.87 23.85,-64.54 32.73,-97.29 17.78,-66.41 29.47,-135.16 24.79,-203.92 -3.74,-48.64 0.47,-98.22 -13.56,-145.46 -44.9,68.75 -106.64,128.63 -180.54,166.04 -21.05,9.36 -45.37,20.58 -68.75,14.04 -14.5,-5.15 -9.83,-21.05 -3.75,-31.34 37.89,-76.24 32.74,-163.7 38.36,-246.49 -1.88,-68.76 1.4,-138.92 -18.71,-205.8 -9.36,-33.67 -14.96,-69.21 -31.8,-100.56 -28.54,27.13 -53.33,58.47 -86.07,80.92 -36.02,27.12 -80.91,39.75 -124.88,46.3 1.41,-29.94 5.15,-59.86 12.63,-89.33 12.63,-51.45 16.37,-104.3 19.18,-157.15 1.41,-51.46 1.41,-103.84 -8.42,-154.82 -12.64,-66.41 -17.77,-135.17 -43.03,-198.77 -45.37,47.69 -46.77,120.19 -90.27,169.3 -30.88,33.68 -71.56,59.41 -116,69.23 13.1,-50.99 20.11,-103.37 21.05,-156.22 -0.46,-34.15 -8.88,-68.29 -23.39,-99.62 -11.69,-25.26 -18.23,-52.39 -34.14,-75.78 -15.9,57.54 -18.24,121.61 7.48,176.8 -38.34,-7.01 -73.42,-24.79 -108.51,-40.69 -36.01,-16.37 -66.41,-42.1 -95.87,-67.82 -27.6,-24.33 -52.4,-51.45 -72.04,-82.31 -14.97,-22.93 -20.1,-50.52 -34.62,-73.44 -12.14,47.71 -1.39,97.28 1.88,145.47 0.94,26.19 9.82,51.44 16.37,76.7 -54.72,-10.3 -94.94,-51.45 -138.44,-82.33 -22.45,-18.24 -43.5,-37.88 -63.61,-58.45 -18.71,-19.18 -31.34,-43.5 -49.58,-62.68 -6.08,41.15 13.56,78.11 29,114.59 -36.02,-7.48 -69.22,-23.39 -103.37,-36.02 -29.46,-15.89 -59.86,-32.26 -83.25,-56.59 -16.84,-17.3 -31.34,-36.47 -48.17,-53.79 -32.74,60.35 -60.34,126.28 -111.32,174.93 -18.71,19.64 -42.57,34.15 -67.82,44.44 2.34,-19.18 6.55,-37.89 9.82,-56.6 -36.48,35.54 -64.08,80.45 -106.17,109.92 -30.4,21.51 -72.97,28.06 -105.71,9.35 -21.51,-10.76 -32.27,-32.74 -46.3,-50.98 -17.31,28.06 -24.32,61.27 -29.93,93.54 -13.1,68.75 -22.92,138.91 -26.66,208.6 -2.34,37.42 2.34,74.84 1.4,112.26 -0.47,53.32 2.34,108.04 -13.56,159.48 -4.68,14.98 -4.68,30.87 -3.75,46.31 -18.24,-4.21 -36.94,-8.41 -53.32,-17.77 -30.4,-16.85 -53.32,-43.97 -79.04,-66.88 -10.29,8.41 -23.85,16.36 -25.73,30.86 -6.54,29.94 -5.14,60.81 -7.01,91.21 -5.61,53.32 5.61,106.17 9.35,159.02 4.68,74.84 23.86,147.8 43.5,219.83 -24.79,2.34 -50.04,5.14 -74.83,-1.4 -24.79,-7.02 -43.97,-24.79 -65.95,-37.42 -27.6,53.79 -43.03,116.93 -92.61,155.75 1.87,-57.06 0.93,-115.06 -18.24,-169.31 -12.16,24.79 -19.18,51.45 -29,77.17 -13.1,36.95 -27.13,75.77 -26.19,115.53 2.81,32.27 11.69,64.08 29,91.2 26.19,-11.69 51.91,-24.32 80.44,-30.4 28.54,-6.55 58,-5.61 87,-5.14 16.37,-40.69 40.22,-77.65 65.01,-113.66 5.61,-8.88 14.03,-14.5 22.45,-20.58 0.94,-1.4 2.81,-3.74 3.74,-4.68 13.1,-24.78 35.08,-43.49 58.47,-58.46 -21.05,69.68 -40.69,149.67 -4.21,217.49 9.35,-6.55 19.18,-12.63 28.53,-18.71 7.48,6.54 15.44,13.1 23.39,19.18 13.56,-37.89 4.21,-79.05 10.75,-117.87 5.62,-36.01 6.55,-72.5 8.89,-108.98 11.69,21.52 21.04,48.65 45.84,58 12.62,4.21 31.8,4.68 39.76,-7.95 7.94,-33.68 -8.43,-68.76 -30.88,-93.55 1.4,24.79 8.42,48.65 10.29,73.44 -9.81,-18.25 -21.51,-35.55 -31.8,-53.32 -7.95,-35.55 -21.05,-69.69 -24.32,-106.18 8.41,8.43 16.83,17.31 25.26,25.73 0,-16.84 -0.47,-33.68 0.46,-50.98 17.77,12.63 33.21,29.46 54.26,36.01 0.93,-25.72 -3.27,-50.98 -3.74,-76.7 -0.94,-33.68 15.43,-64.55 31.33,-93.55 5.15,-10.29 12.63,-20.58 10.76,-32.74 -1.87,-20.58 -5.15,-42.09 -16.37,-59.86 -10.76,-17.31 -24.79,-32.74 -32.27,-52.39 -19.64,-50.99 -22.92,-108.04 -12.63,-161.83 6.54,-64.55 29.46,-127.23 65.01,-181.48 4.68,23.86 0.47,48.18 3.75,72.03 2.34,23.85 9.35,46.77 20.57,67.82 11.7,-15.91 14.97,-36.02 21.52,-54.25 14.96,-47.24 32.74,-94.48 60.8,-135.17 22.92,-34.14 45.37,-69.22 75.3,-98.23 27.13,-28.06 60.81,-49.11 93.55,-70.62 23.85,-15.43 48.64,-29.93 76.24,-37.89 -15.44,30.88 -40.22,56.13 -56.6,86.53 -15.43,26.66 -23.85,57.06 -28.53,87.47 27.13,-19.18 50.52,-43.04 76.71,-63.14 36.48,-29.48 79.51,-49.12 121.14,-70.16 61.73,-29.94 127.69,-57.54 197.37,-55.66 -18.23,25.72 -50.04,36.95 -69.68,61.27 -19.65,22.92 -34.62,49.58 -44.91,77.63 37.42,-14.02 71.57,-37.41 112.25,-43.49 60.34,-8.89 122.08,-20.11 182.88,-10.76 39.29,7.49 78.12,17.78 112.26,37.89 31.8,16.84 58.46,41.16 87.93,60.8 -21.52,-1.4 -43.5,-4.2 -65.01,0 -25.26,5.15 -48.19,15.9 -69.69,28.53 19.64,40.23 65.48,55.67 90.73,91.21 9.35,11.22 18.7,22.44 26.19,34.61 42.57,74.37 73.9,157.62 75.3,244.14 -0.46,40.71 0.94,81.39 -1.87,121.61 -2.33,29 -0.93,58.94 9.36,86.54 3.75,-0.47 10.76,-1.41 14.04,-1.88 15.43,-61.74 -15.91,-125.82 6.54,-186.62 1.4,0.47 4.67,0.47 6.54,0.47 31.81,64.55 -6.07,144.99 37.43,205.33 25.72,-25.25 23.84,-63.61 16.83,-96.35 -10.76,-50.98 -10.29,-103.36 -23.85,-153.41 -5.62,-21.99 -14.51,-42.56 -21.05,-64.09 4.68,-3.73 9.82,-7.48 14.97,-11.69 7.48,20.58 11.69,43.04 25.72,60.82 7.95,9.82 20.11,15.43 31.34,20.57 -2.81,-12.63 -6.54,-25.26 -9.82,-37.88 40.22,-3.75 73.43,20.57 106.64,38.81 33.2,18.71 58,48.18 84.66,74.37 21.51,20.12 39.75,43.97 58.46,66.42 28.07,-19.65 29.93,-57.06 23.85,-87.94 10.76,15.44 23.86,29.47 35.55,44.43 11.23,30.41 14.97,63.62 24.79,94.5 4.21,-7.02 8.88,-14.05 13.1,-21.06 20.1,17.31 23.85,44.9 30.4,68.76 13.56,67.82 17.77,140.31 -5.15,206.73 -9.82,34.15 -25.72,66.42 -36.48,100.56 32.27,-2.34 55.19,-26.66 82.79,-39.29 2.8,22.45 0,49.58 17.77,66.88 24.79,5.62 46.77,-13.56 69.69,-21.05 3.74,27.6 -0.47,55.2 -4.68,82.32 24.8,1.41 35.08,-24.31 50.98,-38.81 -2.8,31.33 -15.43,59.86 -23.85,89.33 -10.75,36.94 -23.39,74.37 -28.06,112.72 20.57,-14.03 34.61,-35.08 52.85,-51.92 -6.09,31.81 -17.78,62.67 -30.4,93.08 -12.64,30.87 -34.61,58.46 -40.7,92.14 14.97,-9.82 29,-21.05 43.51,-31.34 -4.22,39.29 -21.52,75.77 -26.2,115.53 24.79,-24.32 36.01,-58 60.34,-81.85 -4.68,49.57 -1.87,99.62 -4.68,149.2 -10.29,68.75 -43.97,131.43 -60.34,198.31 15.43,-10.76 29,-23.85 43.5,-35.55 -10.29,46.31 -24.32,92.15 -37.42,137.51 -3.74,16.84 -17.77,28.07 -28.99,40.23 12.62,-1.41 28.99,4.21 38.82,-7.02 9.81,-9.35 17.77,-20.58 27.12,-30.4 -7.95,31.8 -20.1,62.68 -35.08,92.14 -22.44,43.03 -59.39,75.3 -92.6,108.98 -14.51,14.97 -24.79,33.21 -30.88,52.85 20.12,3.74 40.7,5.62 61.27,6.55 -23.38,16.84 -60.8,32.74 -57.05,67.35 21.97,32.27 69.69,42.1 81.85,82.79 -22.45,-15.9 -38.82,-40.22 -64.07,-52.85 -12.17,-6.09 -25.74,-7.02 -38.83,-7.49 21.51,28.07 55.66,44.91 72.5,76.71 25.72,48.17 49.57,101.49 40.69,157.62 -7.49,37.89 -22.45,73.9 -43.04,106.17 -15.89,23.85 -23.38,52.85 -43.96,73.43 -20.58,20.11 -37.88,43.5 -56.12,65.95 -14.98,-29 -34.61,-57.06 -64.08,-73.43 -24.32,-14.97 -52.86,-23.38 -81.38,-26.19 -37.43,-3.74 -74.84,-10.29 -112.26,-14.04 -27.6,-2.8 -56.12,-1.4 -84.19,-3.27 -34.61,-2.34 -70.15,-6.08 -105.23,-0.47 32.73,40.23 94.94,39.76 122.54,85.13 14.5,24.79 40.22,38.82 62.67,55.19 -83.72,-17.31 -147.33,-82.79 -230.12,-103.84 -11.23,-2.8 -22.91,-0.93 -34.14,0.47 25.26,20.58 58.93,26.19 87.46,41.16 38.82,18.25 71.1,47.71 107.58,69.69 11.69,7.02 22.44,15.44 32.27,24.79 -50.98,-14.49 -94.94,-44.9 -144.52,-62.2 -40.7,-14.97 -81.85,-29.94 -123.01,-43.5 -5.15,4.67 -10.29,9.35 -15.44,13.56 -9.36,-21.52 -15.9,-44.44 -23.38,-66.88 -5.16,1.4 -10.29,3.27 -15.43,4.68 4.2,26.66 7.01,52.85 7.01,79.98 0,32.27 18.71,59.87 29.47,89.8 -14.04,-13.1 -26.21,-28.54 -38.82,-42.56 -2.81,4.67 -6.09,9.82 -8.89,14.96 -38.83,-19.64 -65.02,-65.01 -111.79,-66.88 -45.36,0 -93.54,-9.36 -129.55,-39.29 27.59,3.74 53.78,16.84 82.32,15.44 20.57,0.46 40.68,-6.56 60.8,-8.42 6.54,-0.94 11.23,3.74 15.9,6.54 29,22.92 50.51,53.79 78.57,76.71 -6.07,-34.61 -23.38,-67.82 -49.1,-92.61 -7.95,-7.95 -13.1,-18.71 -22.45,-24.79 -44.9,-0.93 -88.87,14.97 -133.77,7.95 -36.49,-5.61 -73.43,-14.49 -108.52,-26.19 -26.65,-8.89 -49.57,-26.66 -74.83,-37.89 16.37,31.81 43.03,57.07 72.03,77.65 42.09,29.93 89.8,50.98 136.1,74.83 20.12,10.76 42.1,24.79 48.65,48.64 7.02,24.79 2.81,51.45 -1.88,76.24 -13.55,-14.5 -17.29,-34.61 -27.59,-50.98 -21.04,-26.19 -51.92,-43.03 -84.19,-51.45 -29.46,-7.48 -58.93,-15.9 -83.72,-33.2 -40.69,-26.67 -67.35,-68.29 -97.75,-105.24 -26.19,3.27 -52.38,8.42 -79.04,7.02 -60.34,-1.88 -118.81,-21.52 -173.53,-46.78 -28.53,-13.1 -51.44,-35.07 -79.98,-49.11 14.5,44.9 35.08,87.93 61.27,126.75 5.62,-8.89 10.76,-17.77 15.9,-26.66 11.23,9.36 22.45,18.71 34.15,28.07 0.93,-9.36 2.33,-18.71 3.74,-28.07 4.68,0.47 9.82,0.94 14.5,0.94 1.87,5.14 3.27,10.29 4.68,15.43 10.75,0 23.38,-3.74 31.34,5.15 20.57,18.7 36.01,42.56 57.52,60.33 50.05,43.03 79.52,102.9 107.58,161.37 12.16,-31.81 27.12,-64.08 53.79,-86.06 0.93,14.03 0.93,28.52 0.93,42.56 7.49,-6.55 14.97,-13.1 22.92,-19.18 5.61,26.19 5.61,53.32 10.76,79.51 5.14,30.41 13.56,59.4 21.51,88.87 -7.02,-0.47 -14.5,-1.4 -21.51,-2.34 2.81,7.48 5.14,15.44 7.95,22.92 -40.69,-10.76 -78.58,-31.34 -107.58,-61.74 -21.05,-22.45 -44.43,-42.57 -66.41,-64.54 -21.52,-21.52 -35.08,-49.11 -55.2,-72.03 -13.56,38.35 -16.36,80.91 -39.75,115.06 -5.15,-26.66 -6.08,-56.13 -22.92,-79.52 -24.78,-34.14 -46.3,-71.55 -74.83,-102.43 -26.66,-28.53 -50.52,-59.4 -73.44,-90.74 -14.03,-19.64 -36.95,-28.99 -55.19,-42.55 -19.64,-14.51 -39.75,-29.47 -63.14,-36.96 2.81,15.44 7.02,30.41 13.1,44.91 12.16,30.4 15.9,63.61 26.66,94.47 14.5,43.5 33.2,86.07 57.06,125.35 43.03,62.68 113.18,97.29 173.99,139.38 53.32,36.95 92.14,91.21 125.35,145.93 18.24,29 22.45,63.61 37.42,94.01 14.96,29.94 28.53,62.21 53.31,86.53 l 0,0"
         style="fill:#da4219;fill-opacity:1;fill-rule:nonzero;stroke:none"
         id="path3025"
         inkscape:connector-curvature="0" />
      <path
         d="m 3154.79,5185.15 c 11.69,12.15 26.66,19.64 42.09,25.72 -0.94,-36.48 -6.55,-73.43 2.34,-109.45 7.48,-24.31 21.52,-45.83 32.27,-68.28 -39.29,-49.58 -74.37,-104.3 -89.8,-166.51 -7.95,-36.48 -16.37,-72.96 -28.06,-108.04 -22.92,-3.74 -46.31,-6.55 -69.69,-8.42 4.67,37.41 18.24,72.5 35.07,106.17 -53.79,-18.24 -92.13,-63.14 -126.74,-105.7 -54.73,5.14 -109.45,1.4 -163.71,10.28 7.02,49.12 27.6,94.95 46.77,140.32 4.22,11.23 10.76,21.52 18.25,30.4 21.04,-50.51 47.24,-104.3 97.75,-130.96 2.81,26.2 2.81,53.79 13.56,78.58 24.32,58 53.79,114.13 81.85,170.25 26.19,52.38 66.89,95.42 108.05,135.64 l 0,0"
         style="fill:#da4219;fill-opacity:1;fill-rule:nonzero;stroke:none"
         id="path3027"
         inkscape:connector-curvature="0" />
      <path
         d="m 2695.48,4808.63 c -8.88,19.18 1.41,40.69 12.17,56.6 16.37,-33.21 37.41,-64.55 55.19,-97.29 -25.73,6.55 -51.92,18.24 -67.36,40.69 l 0,0"
         style="fill:#da4219;fill-opacity:1;fill-rule:nonzero;stroke:none"
         id="path3029"
         inkscape:connector-curvature="0" />
      <path
         d="m 2679.58,4718.83 c 0.94,19.65 0,40.22 9.36,58.47 17.77,-50.98 4.68,-107.11 22.92,-158.56 9.35,-29 28.99,-52.39 45.37,-77.17 -21.52,-3.28 -43.97,-3.75 -65.95,-0.47 -7.95,58.93 -12.16,118.33 -11.7,177.73 l 0,0"
         style="fill:#da4219;fill-opacity:1;fill-rule:nonzero;stroke:none"
         id="path3031"
         inkscape:connector-curvature="0" />
      <path
         d="m 4576.18,4694.98 c 33.21,7.48 65.48,18.24 97.29,30.87 10.29,-11.23 20.57,-22.92 25.26,-37.89 16.84,-53.78 25.72,-113.65 4.67,-167.44 -19.64,-54.72 -54.72,-110.38 -111.31,-131.9 -41.17,-12.63 -83.73,-21.98 -126.29,-27.12 -33.2,-4.21 -66.42,2.33 -99.16,-3.75 7.48,-15.43 21.06,-25.25 36.49,-30.86 35.54,-14.51 67.35,-35.55 101.02,-53.33 91.68,-50.98 181.01,-114.12 235.73,-205.79 -58.45,4.21 -122.07,27.12 -176.79,-4.21 9.35,-21.05 30.87,-29.94 48.17,-43.03 13.56,-9.83 25.73,-21.05 37.42,-32.74 32.27,-33.21 66.89,-64.55 94.02,-102.43 22.91,-31.81 42.09,-66.42 57.98,-102.43 -33.67,18.71 -66.87,39.28 -103.36,52.38 -38.82,15.44 -80.91,17.78 -122.53,19.64 -13.58,0.94 -26.21,-5.14 -37.9,-11.69 20.59,-23.39 45.84,-41.62 65.02,-65.94 29,-34.62 61.27,-66.89 91.66,-100.1 30.41,-33.2 50.99,-73.9 70.16,-114.59 -44.43,16.84 -88.87,37.42 -137.03,42.57 -30.87,0.93 -62.21,-1.41 -92.62,-7.96 19.18,-29.93 49.59,-50.04 72.5,-77.17 50.98,-55.66 102.9,-114.13 131.43,-185.22 -54.25,5.15 -108.51,2.81 -162.76,0.47 -19.18,-0.93 -32.75,-14.97 -44.9,-27.59 82.32,-103.84 134.7,-232.93 138.44,-365.76 -28.53,27.6 -64.08,49.11 -103.83,57.53 0.94,-37.89 4.67,-76.24 -4.21,-113.19 -5.14,-23.38 -17.78,-43.97 -29.93,-64.08 -20.59,-32.74 -42.57,-65.01 -70.62,-91.2 -2.35,37.88 5.6,76.7 -2.82,114.59 -7.48,44.9 -29.47,86.06 -56.13,123.01 -22.91,33.21 -52.38,63.61 -91.2,77.64 -24.33,6.08 -36.48,29.47 -48.64,49.58 -15.43,26.19 -8.42,57.53 -6.55,86.52 -13.57,-5.61 -26.66,-11.68 -40.22,-17.3 -11.22,23.86 -15.44,50.51 -9.36,76.24 10.29,-5.61 20.11,-11.23 30.4,-16.37 -7.95,34.61 -14.96,71.09 -7.48,106.64 8.89,40.69 12.63,82.78 17.78,124.41 23.84,-11.69 44.43,-28.53 69.22,-38.82 -10.77,15.9 -26.2,26.66 -43.03,35.08 -28.07,14.03 -56.13,30.4 -87.46,36.48 14.96,-12.63 33.2,-20.11 50.5,-28.53 -21.51,-19.64 -48.17,-34.14 -62.67,-59.87 -43.97,-76.24 -62.68,-165.57 -59.4,-253.5 0.47,-40.23 12.16,-79.51 14.5,-119.74 1.4,-38.82 13.57,-76.23 15.43,-115.53 2.81,-25.72 0.47,-51.45 3.75,-77.17 8.88,-74.83 9.35,-150.6 1.87,-225.43 -5.62,-65.49 -22.92,-133.3 -66.89,-184.29 -22.91,-23.85 -47.23,-48.17 -76.7,-64.08 -20.12,-10.28 -38.35,-24.32 -58,-35.53 -28.06,-14.05 -59.86,-4.22 -88.4,3.73 8.42,-29.47 33.68,-49.57 59.87,-63.15 21.52,-11.22 45.38,-19.64 65.01,-34.61 -42.1,-5.6 -85.12,-4.2 -126.74,2.81 -45.85,7.95 -89.81,25.73 -132.84,43.97 -74.37,31.34 -132.83,88.87 -188.02,146.4 4.67,-36.49 7.95,-73.9 20.11,-108.98 9.35,-29.47 22.92,-57.54 35.55,-85.59 -68.3,41.63 -126.76,99.61 -167.92,168.36 -42.09,58.01 -78.1,122.55 -88.86,194.12 -7.02,-11.22 -13.1,-22.92 -19.18,-35.08 -2.34,8.88 -4.67,17.3 -7.01,25.72 -11.23,-15.44 -10.3,-35.55 -13.57,-53.31 -4.21,-39.77 -16.37,-81.39 -0.47,-120.21 14.97,-42.09 53.32,-79.05 43.04,-126.76 -44.44,34.16 -65.02,88.41 -80.92,140.32 -21.98,77.65 -21.05,159.02 -15.44,238.53 -24.79,-9.81 -43.49,-29.93 -67.35,-42.09 3.75,14.51 8.42,29 18.71,39.29 17.31,19.18 43.97,27.13 56.6,50.51 -24.33,-4.67 -43.03,-21.05 -61.27,-36.02 -7.96,-7.48 -16.84,-14.96 -21.05,-25.25 -5.62,-17.3 1.87,-37.41 -7.02,-54.26 -8.89,-16.83 -21.04,-32.26 -34.14,-46.3 -6.08,50.05 2.8,101.5 21.04,148.28 19.18,39.27 66.42,50.03 105.71,57.05 44.9,10.29 90.74,-0.46 135.17,-7.02 44.9,-7.48 91.2,-12.15 133.3,-30.4 50.51,-21.98 103.83,-37.41 156.22,-54.24 47.23,-12.17 103.83,-12.64 142.65,21.03 27.13,27.6 51.45,59.87 61.74,97.29 9.36,29.94 11.22,61.28 12.16,92.61 0.94,37.89 9.82,75.31 23.39,110.38 9.35,26.2 38.35,40.22 44.43,67.82 19.65,77.64 -2.81,158.09 -29,231.05 -21.05,53.79 -27.13,112.73 -22.44,170.26 1.39,23.38 5.6,46.77 6.07,70.15 1.41,21.98 -0.47,43.97 4.68,65.48 4.21,17.31 14.97,33.21 14.5,51.45 0.47,20.11 0.47,41.63 15.9,56.6 8.89,-24.32 14.03,-50.05 29,-71.57 9.83,-13.09 17.78,-28.53 16.84,-45.83 -2.35,-52.85 -6.09,-106.64 -2.35,-159.96 8.89,5.14 20.59,7.95 24.8,18.24 17.3,34.15 32.28,70.16 37.88,108.51 5.62,36.01 6.07,72.5 8.89,108.51 0.93,8.89 0.93,19.18 8.42,25.26 13.57,-8.89 14.5,-27.6 23.85,-40.69 4.21,10.75 7.95,21.98 10.75,33.21 25.26,-0.47 50.99,-0.47 75.78,-7.02 15.9,-3.27 31.33,-11.23 48.64,-10.76 19.18,0.47 38.83,-0.93 56.13,-9.35 10.29,-4.21 19.17,-11.23 29.93,-14.04 6.56,2.81 11.69,8.43 17.31,12.17 -18.23,6.54 -37.41,11.69 -53.79,23.39 -13.1,9.35 -26.19,19.17 -40.69,26.66 6.08,-8.9 12.16,-17.31 18.71,-26.2 -51.45,1.87 -101.97,12.63 -151.08,27.12 -6.07,30.88 -13.55,61.28 -19.64,92.15 69.22,-7.48 140.32,-6.08 207.67,-25.73 23.38,-6.54 49.1,-8.41 69.22,-23.38 -19.64,-0.94 -39.29,0.93 -58.93,1.87 21.05,-29.47 43.5,-58.47 59.4,-91.21 13.09,-24.32 18.71,-51.45 34.14,-74.83 -4.67,27.59 -17.78,51.91 -27.13,77.17 -10.75,31.8 -28.06,60.81 -52.85,83.72 25.25,-2.8 50.98,-6.08 74.37,-15.43 30.87,-12.16 55.66,-35.08 85.12,-48.64 -13.56,48.64 -38.81,94.01 -69.22,134.7 -19.65,26.66 -44.43,49.11 -65.48,74.83 -18.71,21.99 -38.82,42.57 -62.67,58.47 -24.33,16.84 -48.18,34.61 -75.78,44.9 10.3,-11.69 27.6,-20.11 24.32,-38.35 18.24,-11.7 36.49,-23.39 53.32,-37.89 -1.86,-1.87 -5.6,-6.55 -7.48,-8.89 31.34,-26.19 66.42,-50.98 86.99,-87.46 -50.5,31.34 -87.46,84.19 -146.85,101.03 50.51,-36.48 110.85,-65.95 142.65,-122.08 -28.06,12.63 -50.05,39.29 -83.26,39.29 25.27,-20.57 56.6,-32.74 78.58,-57.53 -21.04,3.74 -41.16,11.7 -62.21,13.57 -23.38,0.47 -46.3,-7.49 -69.22,-2.34 -45.83,8.88 -92.6,15.43 -139.84,14.03 -7.95,27.13 -14.51,54.72 -15.9,82.78 11.69,-6.08 23.38,-12.62 35.08,-18.23 -12.17,32.74 -38.36,58.93 -48.66,93.07 -9.81,31.8 -20.1,64.08 -23.37,97.76 -2.82,23.38 -3.29,46.76 -4.22,70.15 -4.67,-1.87 -9.82,-3.27 -14.5,-5.14 -5.61,-26.19 -4.2,-53.79 -14.03,-79.05 -11.22,-32.27 -22.45,-64.54 -35.08,-96.35 -13.09,-32.74 -14.03,-70.62 -0.92,-103.36 5.13,-13.57 19.17,-19.65 30.85,-26.66 0,-2.81 0,-8.89 0,-11.7 -34.14,0.47 -67.34,5.15 -101.48,6.09 -7.96,16.83 -15.44,34.14 -22.93,51.45 5.62,2.8 11.7,4.67 16.85,8.88 3.27,7.95 4.67,16.84 6.54,25.73 -24.79,8.88 -50.51,19.64 -65.95,42.55 14.97,16.38 30.41,32.75 42.09,51.92 -36.01,-10.28 -71.55,-26.19 -109.91,-23.38 20.58,34.61 66.42,47.7 78.12,88.4 -29.48,-13.1 -53.79,-35.55 -83.26,-48.64 -43.97,-21.99 -93.55,-23.39 -141.25,-29 19.17,-7.96 40.22,-8.89 60.34,-14.04 -44.91,-2.8 -90.28,6.08 -134.24,-4.21 -49.11,-11.69 -99.63,-14.5 -147.8,-29.93 -25.72,-8.42 -53.79,-14.03 -75.3,-31.8 51.45,9.35 102.43,21.98 154.81,22.45 34.61,1.87 68.76,-5.62 102.9,-7.02 60.34,-3.28 117.87,-26.19 167.91,-58.93 19.64,-12.63 41.16,-29.47 39.76,-55.66 -30.4,11.69 -52.39,37.42 -81.85,50.51 -74.84,32.27 -156.22,53.79 -238.07,47.71 -24.33,-2.34 -56.13,6.55 -73.9,-14.5 19.64,-3.74 40.22,-3.74 60.33,-5.61 62.68,-4.68 125.82,-15.43 184.75,-37.89 21.05,-7.48 38.36,-22.45 53.79,-38.35 -77.64,-7.48 -155.28,-14.5 -231.99,-29 -5.14,7.02 -10.75,14.03 -16.37,21.05 -18.71,-2.81 -43.03,-9.83 -47.23,-31.81 -5.16,-15.9 10.28,-27.12 21.97,-34.61 7.49,-5.14 15.44,2.34 22.46,4.68 25.25,13.56 54.72,15.91 82.31,20.58 48.18,7.95 96.82,15.43 145,22.91 24.78,2.82 49.57,5.62 74.36,1.88 22.92,-6.08 33.68,-29.46 43.97,-48.64 -36.48,-0.47 -72.03,-6.55 -108.04,-10.76 -6.55,0 -9.83,-5.15 -13.1,-9.36 28.99,0.94 62.67,18.71 88.87,-1.4 -29.94,-5.14 -60.34,-7.95 -90.74,-7.01 -19.17,8.88 -38.82,20.57 -60.81,21.04 -14.03,1.87 -31.33,-8.89 -29.46,-24.32 0,-10.29 8.42,-18.24 17.31,-21.98 16.83,-9.82 29.93,13.09 46.77,14.03 37.42,5.61 75.77,7.01 113.65,4.68 1.4,-15.44 3.28,-30.41 4.21,-45.84 -78.57,8.42 -157.62,14.5 -236.66,11.69 -34.15,-0.46 -68.29,-5.14 -101.97,-1.4 -8.88,6.08 -14.5,15.9 -21.04,24.32 -13.1,-8.42 -30.4,-15.9 -33.68,-32.27 3.28,-21.98 29,-26.66 47.24,-23.39 1.4,6.55 2.8,13.1 4.21,19.18 115.05,3.28 230.12,-6.55 344.71,-14.03 -3.74,-27.13 -18.24,-52.38 -40.7,-67.82 -21.51,-14.5 -41.62,-30.4 -58.93,-49.58 23.39,3.74 47.71,7.48 68.29,20.58 32.74,21.05 63.14,45.37 96.35,65.01 6.08,-1.87 11.69,-4.21 17.78,-6.54 -31.34,-35.55 -65.02,-72.5 -110.39,-90.28 -33.68,-11.22 -67.82,-22.91 -103.83,-24.31 -39.76,-1.41 -77.64,-15.44 -116.93,-14.51 -28.53,0.94 -56.59,4.21 -84.66,2.81 6.55,5.15 13.57,10.76 20.11,16.37 -36.48,2.81 -73.89,1.41 -108.97,12.16 -39.29,11.23 -78.11,23.39 -118.34,31.34 -22.92,4.68 -43.96,16.84 -61.27,32.74 7.02,1.87 14.5,3.28 21.99,5.15 -13.57,10.75 -26.2,24.78 -44.44,26.66 -21.98,2.8 -43.96,-1.88 -65.48,-2.34 12.63,19.17 30.87,33.67 50.51,44.43 2.81,14.97 0.48,32.74 10.76,44.9 20.12,16.84 48.65,11.69 72.5,11.22 -4.21,27.13 -7.02,54.26 -9.35,81.39 -0.94,10.76 5.6,20.11 14.03,25.25 7.01,-28.06 7.95,-57.52 20.57,-83.72 7.02,36.95 1.88,74.37 -4.2,110.85 7.02,-5.14 13.56,-10.75 20.57,-15.43 -1.87,31.34 -24.79,55.19 -45.83,76.7 8.42,0.94 17.3,1.87 25.72,2.81 -8.42,14.97 -20.11,29.94 -21.04,47.71 2.8,49.58 32.27,91.2 48.17,137.04 -31.34,-13.1 -50.98,-42.1 -64.08,-72.03 -13.09,-30.4 -30.4,-60.34 -37.88,-93.08 -4.68,-17.77 -8.89,-36.01 -16.84,-52.85 -7.01,29.93 -4.68,61.27 -3.74,91.67 -38.35,-28.52 -33.67,-83.71 -32.27,-126.75 -57.53,-16.84 -118.33,-27.12 -170.72,-58.93 -23.86,14.96 -48.64,27.6 -73.43,39.75 19.64,55.2 55.66,104.78 62.2,163.71 -11.22,-13.56 -19.17,-29.94 -33.2,-41.16 -33.21,-27.13 -67.82,-51.92 -102.44,-77.17 6.56,-4.21 13.1,-8.89 19.65,-13.1 -18.24,-16.37 -40.69,-27.6 -55.19,-47.24 -17.31,-31.81 -7.95,-70.16 8.88,-100.09 19.18,12.16 38.83,-1.87 56.13,-10.76 23.39,-11.23 15.44,-43.97 35.55,-58.46 36.01,-29.94 82.32,-41.16 126.75,-53.79 -6.55,-57.53 -47.24,-104.3 -93.07,-136.11 -23.39,-15.43 -45.84,-35.55 -74.37,-39.29 -55.66,-7.01 -112.72,15.44 -152.95,54.26 22.45,15.43 50.99,14.5 75.31,24.79 15.43,13.56 3.74,34.61 -5.62,48.64 20.58,7.01 41.16,13.09 62.21,16.84 4.68,12.63 8.42,25.26 11.23,37.88 -9.36,2.81 -18.25,5.15 -27.13,7.96 -12.16,-13.57 -22.92,-29.94 -41.17,-36.49 -33.2,-13.56 -66.88,-27.59 -101.02,-39.76 -7.01,-1.4 -18.71,-7.01 -22.45,2.34 -7.48,18.71 -6.08,39.29 -7.02,58.94 29,11.22 59.87,18.24 90.74,13.56 6.55,9.35 13.57,18.24 18.71,28.06 -4.68,14.97 -21.98,22.92 -36.48,23.86 -14.97,2.34 -21.05,-13.57 -31.34,-21.05 -11.22,-9.82 -27.13,-7.48 -40.69,-8.42 7.02,33.68 21.04,65.01 40.22,93.08 25.73,38.82 53.79,78.57 95.89,101.03 1.86,26.66 4.68,53.32 15.43,77.64 11.23,27.59 31.34,49.57 49.58,72.02 24.32,28.54 52.85,53.79 80.45,79.05 18.7,17.77 46.3,22.45 62.67,43.03 -51.92,24.79 -83.25,77.18 -135.17,101.96 -60.8,30.4 -133.3,10.76 -194.57,39.76 -38.35,19.18 -71.09,57.06 -72.03,101.96 36.48,-21.04 72.97,-48.64 117.4,-44.9 -14.03,24.79 -28.06,50.98 -29,79.98 18.71,-7.48 35.08,-18.24 53.79,-25.72 29,-11.23 60.33,-12.16 89.8,-21.52 24.32,-7.48 44.9,-23.86 58.93,-44.43 15.91,-22.45 28.06,-49.58 52.85,-63.61 19.65,-10.29 40.23,-21.52 63.14,-18.24 -5.61,21.04 -32.74,20.11 -44.89,36.01 -21.05,27.13 -27.6,63.14 -53.32,87 -35.09,38.82 -87,53.32 -136.11,64.54 9.82,18.71 20.58,36.95 36.48,50.98 13.57,13.1 31.34,21.52 45.84,33.68 32.74,29.93 74.83,44.43 109.45,72.03 -15.91,1.4 -31.34,2.33 -46.78,5.14 32.27,23.39 70.16,41.63 93.07,76.24 19.18,30.4 27.14,65.95 38.36,100.09 28.06,-11.22 41.63,-42.09 70.63,-51.45 7.02,-2.8 14.03,-5.14 21.51,-7.95 -10.75,-39.29 -22.45,-79.04 -42.09,-115.06 5.61,-3.27 11.22,-6.55 16.83,-9.82 11.69,22.45 21.52,46.78 38.36,65.95 31.34,37.89 72.49,70.63 121.6,79.98 -11.22,-61.74 -10.29,-129.09 21.99,-184.28 24.79,59.4 58.46,121.14 117.39,152.47 54.73,28.07 109.45,60.81 170.72,72.97 15.44,3.27 30.87,-0.47 45.84,-4.21 -13.57,-18.24 -30.87,-32.27 -50.05,-43.03 -37.89,-21.52 -74.83,-45.37 -114.59,-63.61 -12.63,-5.61 -23.85,-14.5 -33.21,-24.32 45.37,-3.74 87.93,14.5 131.9,23.85 66.42,14.5 134.7,28.53 193.64,63.61 24.32,14.03 43.49,35.55 69.22,47.71 53.79,27.6 118.79,27.13 174.46,6.55 -33.68,-16.84 -72.03,5.14 -107.58,-3.74 -33.21,-7.49 -70.62,-21.99 -86.06,-54.73 10.76,6.08 19.64,14.5 28.07,23.86 0,-7.02 -0.48,-14.04 -0.48,-21.05 15.91,3.27 31.34,9.35 47.71,11.69 15.91,0.47 31.34,-2.34 46.78,-3.74 -9.36,4.68 -18.25,9.36 -27.6,13.57 0.94,2.8 3.27,7.94 4.68,10.28 21.51,-0.93 43.5,-3.74 63.61,-13.09 -27.13,-28.53 -59.4,-57.53 -65.02,-98.69 27.6,10.76 49.58,31.8 77.18,43.5 14.02,6.08 29,9.82 42.09,18.24 17.77,11.22 34.14,23.85 54.26,30.4 28.06,9.82 55.19,22.45 84.65,26.66 45.83,5.14 89.81,-11.69 135.17,-13.1 43.96,-1.4 87.46,-7.01 131.44,-6.07 71.09,6.54 141.25,19.17 211.4,33.67 l 0,0"
         style="fill:#f48412;fill-opacity:1;fill-rule:nonzero;stroke:none"
         id="path3033"
         inkscape:connector-curvature="0" />
      <path
         d="m 2754.89,4638.39 c -12.63,26.19 -9.36,56.12 -6.08,84.18 39.29,-6.54 79.04,-15.9 119.73,-12.16 23.39,2.34 46.77,0.94 70.16,-1.87 -0.47,-5.61 -1.41,-10.76 -1.87,-15.9 -23.39,1.87 -47.24,0.47 -70.16,-3.74 18.71,-6.55 37.89,-11.7 56.13,-18.24 0.47,-2.81 1.4,-8.89 1.87,-11.69 -17.78,-0.94 -36.49,-4.68 -54.25,0.93 -38.36,10.29 -72.04,32.27 -108.98,45.84 23.38,-49.58 55.65,-95.88 100.08,-128.62 -12.62,-5.62 -26.65,-15.91 -41.15,-8.9 -29,14.98 -52.39,40.7 -65.48,70.17 l 0,0"
         style="fill:#f48412;fill-opacity:1;fill-rule:nonzero;stroke:none"
         id="path3035"
         inkscape:connector-curvature="0" />
      <path
         d="m 4607.52,4676.74 c 19.65,6.08 36.48,17.77 54.73,27.12 11.22,-15.43 25.25,-30.87 28.05,-50.98 6.56,-36.95 7.49,-74.83 1.88,-111.78 -1.4,-12.63 -8.9,-23.86 -16.38,-34.15 -5.6,42.57 -12.62,87.47 -39.28,123.02 -28.06,-19.18 -59.4,-33.22 -91.21,-44.9 -82.78,-33.21 -170.72,-51.92 -258.18,-69.23 -37.41,-8.42 -76.23,-8.89 -114.59,-11.22 40.22,-15.91 84.2,-9.36 126.29,-7.02 47.23,2.81 94.47,10.29 142.19,11.69 -36.02,-37.41 -87,-52.38 -133.77,-70.62 25.72,-0.94 51.44,0 76.7,3.74 29.47,3.74 56.6,17.3 86.06,22.92 -18.7,-46.77 -61.27,-83.72 -109.44,-98.22 -18.71,-6.08 -37.43,-14.5 -56.14,-20.58 -1.86,6.54 -3.26,13.1 -4.66,19.64 31.32,8.89 62.67,21.05 86.52,44.44 -45.84,-3.28 -92.14,-1.41 -136.57,10.75 -15.44,4.21 -27.6,14.97 -38.82,25.73 37.41,1.87 75.76,4.67 109.44,22.45 -44.9,1.87 -89.8,5.14 -133.76,14.96 -21.52,4.68 -39.29,19.65 -60.81,23.86 -25.26,5.14 -51.45,4.21 -76.24,11.69 -26.19,7.95 -55.66,13.56 -74.84,35.55 45.85,-7.02 93.08,-16.37 138.45,-2.34 -31.34,11.69 -65.01,21.05 -90.27,43.49 -7.95,6.09 -0.47,15.91 0,23.39 39.76,-24.32 88.4,-26.19 132.36,-15.9 -20.58,15.43 -44.9,23.39 -68.75,32.27 4.21,4.21 7.48,9.36 12.63,11.69 20.11,-1.87 39.29,-9.35 59.87,-9.35 45.37,-0.93 91.2,-6.08 136.57,-1.4 52.85,3.27 105.24,4.68 157.62,11.22 35.55,3.74 69.23,17.31 104.31,21.05 16.84,2.34 34.14,2.34 50.04,7.02 l 0,0"
         style="fill:#231f20;fill-opacity:1;fill-rule:nonzero;stroke:none"
         id="path3037"
         inkscape:connector-curvature="0" />
      <path
         d="m 2914.85,4524.26 c 28.06,22.92 50.98,50.52 73.9,78.11 1.4,-35.08 7.48,-78.11 -21.05,-104.3 -33.21,-29.47 -72.03,-50.51 -108.98,-73.9 -21.05,-13.09 -41.63,-27.6 -66.42,-34.14 18.25,23.85 46.31,36.94 70.16,54.25 30.87,22.45 66.42,40.22 89.34,72.03 -12.17,2.8 -24.32,5.14 -36.95,7.95 l 0,0"
         style="fill:#f4b34c;fill-opacity:1;fill-rule:nonzero;stroke:none"
         id="path3039"
         inkscape:connector-curvature="0" />
      <path
         d="m 2543.01,4598.16 c 19.18,-14.5 30.4,-37.42 51.45,-49.58 7.95,-4.68 16.83,-7.95 23.39,-14.97 12.62,-27.59 14.96,-59.39 30.4,-86.05 7.01,-12.63 16.37,-23.86 21.04,-37.89 -2.33,-12.16 -12.62,-21.05 -21.04,-29.47 -2.34,23.39 -6.55,46.77 -18.25,67.82 -11.22,21.52 -20.57,44.44 -32.73,65.95 -10.76,17.31 -27.13,29.93 -43.51,41.63 -12.15,-22.45 -21.5,-46.78 -22.44,-72.5 16.37,4.68 16.83,24.32 22.91,37.42 33.68,-31.34 51.92,-74.83 64.08,-118.34 -9.82,-12.15 -20.11,-24.78 -24.78,-39.75 -5.15,-15.44 -5.62,-31.8 -7.96,-47.71 -22.91,12.63 -39.29,33.21 -59.4,49.58 -26.19,-22.92 -28.06,-58.93 -29.93,-91.2 -9.82,51.45 -3.28,103.83 2.8,155.28 8.89,57.53 16.38,116.93 43.97,169.78 l 0,0"
         style="fill:#da4219;fill-opacity:1;fill-rule:nonzero;stroke:none"
         id="path3041"
         inkscape:connector-curvature="0" />
      <path
         d="m 3809.59,4552.32 c 33.21,-5.14 51.45,-34.61 71.09,-58.46 2.82,11.22 6.08,22.45 8.89,33.68 31.34,-28.53 57.06,-65.48 69.22,-106.18 10.29,-32.27 8.89,-70.16 -11.69,-98.22 -21.51,-24.79 -48.17,-45.36 -79.04,-57.06 -19.18,-7.02 -37.42,-17.77 -50.98,-33.21 -36.95,-41.62 -58.94,-95.41 -102.44,-130.96 -37.88,-35.08 -89.8,-50.05 -140.31,-48.64 -36.48,1.4 -76.24,3.27 -106.64,25.73 -13.1,7.01 -27.6,21.97 -43.5,13.56 -23.85,-9.82 -48.64,-18.71 -74.37,-18.24 -48.17,1.4 -97.28,34.14 -107.11,83.25 21.05,-8.89 41.64,-21.98 65.02,-24.32 19.64,-2.34 38.82,5.61 55.19,16.37 24.79,16.37 43.5,40.22 66.88,58.93 24.79,21.05 50.05,43.97 81.86,53.32 36.94,11.23 75.3,21.05 114.12,20.58 45.84,-0.47 92.14,-6.55 137.51,3.74 38.35,7.95 76.7,16.84 112.26,33.21 36.47,22.45 45.83,71.56 35.54,110.85 -32.28,-19.17 -60.81,-50.98 -101.03,-50.98 12.16,28.06 26.66,57.53 21.98,89.33 -21.51,-7.95 -41.16,-19.64 -61.73,-29.46 -20.59,-10.3 -43.03,-15.44 -63.62,-25.73 -20.11,-9.82 -32.27,-29.93 -45.83,-46.77 -10.76,20.58 -14.03,43.97 -16.84,66.41 -34.61,-42.56 -81.85,-73.42 -133.77,-90.27 7.49,20.59 15.91,41.63 18.71,63.62 -40.22,-24.32 -86.99,-36.02 -125.35,-64.08 -42.56,-31.34 -49.57,-88.87 -83.72,-126.75 -7.02,-8.89 -19.18,-11.23 -29.47,-14.5 8.42,23.85 24.33,46.77 21.05,73.43 -0.46,24.79 -5.61,55.66 15.9,73.9 38.83,36.95 99.63,38.35 136.58,78.57 20.11,19.65 29.46,47.25 37.42,73.44 33.67,-12.16 55.65,-41.63 74.36,-70.16 26.2,32.74 33.21,77.17 22.92,117.4 42.1,-8.89 70.16,-44.44 87.93,-80.92 21.98,14.03 47.71,20.11 72.97,24.32 19.64,4.21 40.68,10.76 51.91,28.53 2.34,10.76 -0.93,21.99 -1.87,32.74 l 0,0"
         style="fill:#231f20;fill-opacity:1;fill-rule:nonzero;stroke:none"
         id="path3043"
         inkscape:connector-curvature="0" />
      <path
         d="m 2689.88,4516.77 c 20.57,-12.62 41.62,-24.31 62.2,-36.94 -13.56,-11.7 -28.06,-22.92 -45.83,-28.53 -7.02,21.51 -12.63,43.03 -16.37,65.47 l 0,0"
         style="fill:#da4219;fill-opacity:1;fill-rule:nonzero;stroke:none"
         id="path3045"
         inkscape:connector-curvature="0" />
      <path
         d="m 4129.51,4420.43 c 49.57,0.93 92.61,-27.13 133.3,-51.92 18.71,-11.69 40.7,-19.65 56.14,-36.95 28.99,-29 62.19,-52.85 88.85,-84.65 22.92,-26.67 48.18,-53.32 60.34,-87.47 -63.61,29.93 -115.99,85.6 -188.02,96.82 16.36,-14.97 34.14,-29 46.77,-47.24 21.51,-30.87 49.11,-58 63.15,-93.54 -42.1,8.88 -84.67,22.45 -128.16,17.77 -34.15,-1.87 -62.68,-27.13 -97.29,-24.79 17.3,33.68 51.45,52.85 79.51,75.77 -23.38,19.64 -53.32,29 -72.97,52.38 13.58,1.41 27.13,2.34 40.71,3.28 -8.89,16.37 -19.18,32.74 -34.61,43.03 -25.74,18.71 -58.95,22.45 -84.67,41.16 46.31,12.16 94.94,11.69 142.19,6.08 -16.37,23.85 -36.96,45.83 -61.74,61.74 -14.49,9.35 -29.47,17.77 -43.5,28.53 l 0,0"
         style="fill:#231f20;fill-opacity:1;fill-rule:nonzero;stroke:none"
         id="path3047"
         inkscape:connector-curvature="0" />
      <path
         d="m 2962.55,4329.69 c 13.56,18.71 37.89,25.72 59.87,25.26 18.24,-0.47 34.62,-12.63 53.32,-8.89 25.26,3.74 51.92,3.74 74.84,-9.35 29.93,-14.5 60.8,-42.57 56.59,-79.98 -28.53,10.28 -54.72,31.8 -86.53,29.46 -20.58,-6.08 -31.8,-29 -33.67,-49.11 -1.87,-37.88 12.62,-74.83 28.06,-108.98 9.35,-21.98 27.13,-38.82 43.96,-54.72 -0.46,-3.74 -1.4,-10.76 -1.87,-14.03 -26.19,5.14 -51.91,14.97 -78.57,17.77 -31.81,1.88 -62.21,-10.29 -93.55,-14.03 12.63,27.6 31.81,52.39 40.7,81.85 12.63,37.42 26.66,78.58 13.09,117.4 -5.61,14.97 -23.85,31.34 -40.22,21.98 -23.38,-13.56 -37.42,-39.75 -64.08,-48.18 -0.94,33.21 7.95,66.89 28.06,93.55 l 0,0"
         style="fill:#231f20;fill-opacity:1;fill-rule:nonzero;stroke:none"
         id="path3049"
         inkscape:connector-curvature="0" />
      <path
         d="m 2670.23,4293.21 c 30.4,-0.94 61.74,-3.28 90.27,-13.56 13.57,-4.68 20.58,-18.25 27.6,-29.47 9.82,-18.24 21.51,-35.08 32.73,-51.92 -28.53,16.37 -52.85,38.35 -80.44,56.13 -21.99,15.43 -47.25,25.26 -70.16,38.82 l 0,0"
         style="fill:#f4b34c;fill-opacity:1;fill-rule:nonzero;stroke:none"
         id="path3051"
         inkscape:connector-curvature="0" />
      <path
         d="m 2499.51,4260.47 c 13.1,-26.66 23.39,-54.73 41.16,-79.05 16.84,-24.79 40.22,-44.43 64.54,-61.74 -14.02,-19.18 -28.99,-37.41 -36.94,-59.86 -9.36,-23.86 -8.89,-50.05 -10.76,-75.78 -1.41,-15.9 -1.87,-31.8 2.81,-47.24 15.43,7.49 27.59,19.18 40.69,29.47 0.46,-13.56 0.46,-26.66 0.46,-40.22 -42.56,0 -82.78,20.58 -125.34,14.97 -32.74,-2.81 -57.07,-26.2 -85.13,-40.23 5.15,56.13 43.5,99.63 78.58,140.32 29.46,28.53 55.66,60.8 87.93,86.06 -32.74,36.95 -53.32,84.19 -58,133.3 l 0,0"
         style="fill:#da4219;fill-opacity:1;fill-rule:nonzero;stroke:none"
         id="path3053"
         inkscape:connector-curvature="0" />
      <path
         d="m 3516.33,4206.21 c 17.78,16.37 39.29,30.4 63.61,33.21 28.07,4.68 57.53,5.15 85.59,0.47 -17.3,-11.23 -38.35,-10.76 -58,-14.5 23.39,-7.48 51.92,-7.95 66.89,-30.87 -18.71,-20.58 -40.23,-38.82 -57.99,-60.8 23.85,5.61 48.64,14.49 65.94,32.74 9.83,9.82 14.97,22.91 21.05,35.07 1.87,-11.69 3.74,-23.38 6.08,-34.6 -35.08,-26.67 -75.77,-49.58 -121.14,-49.12 -31.34,0 -68.76,2.81 -89.8,29 -7.49,21.52 1.4,45.37 17.77,59.4 l 0,0"
         style="fill:#ffffff;fill-opacity:1;fill-rule:nonzero;stroke:none"
         id="path3055"
         inkscape:connector-curvature="0" />
      <path
         d="m 3729.14,4067.77 c 28.54,14.03 50.52,36.95 74.84,56.59 1.87,-13.56 8.42,-29.47 0,-42.56 -35.55,-57.06 -102.9,-88.4 -168.38,-91.21 -43.03,-1.4 -87,-5.14 -128.62,6.56 -29,7.48 -59.4,11.22 -88.4,19.63 0.47,6.55 0.47,13.57 0.47,20.12 35.08,-3.74 68.75,-15.44 103.83,-14.5 27.6,0.93 56.13,-0.47 83.72,4.68 42.57,7.01 83.72,21.04 122.54,40.69 l 0,0"
         style="fill:#231f20;fill-opacity:1;fill-rule:nonzero;stroke:none"
         id="path3057"
         inkscape:connector-curvature="0" />
      <path
         d="m 2677.71,4088.35 c 24.79,16.37 55.66,15.43 83.26,9.82 28.06,-6.08 50.51,-25.73 70.62,-44.43 -21.04,-15.44 -40.22,-33.21 -58.46,-50.98 -28.07,2.8 -58.94,10.75 -76.71,34.6 -12.63,14.04 -15.43,33.21 -18.71,50.99 l 0,0"
         style="fill:#ffffff;fill-opacity:1;fill-rule:nonzero;stroke:none"
         id="path3059"
         inkscape:connector-curvature="0" />
      <path
         d="m 2600.07,3996.21 c 1.87,22.91 11.22,43.96 24.32,62.67 14.5,-19.18 28.53,-39.76 47.71,-55.19 20.58,-18.24 44.9,-30.87 69.69,-42.56 -2.81,-5.62 -5.61,-11.23 -7.95,-16.84 -34.61,4.21 -67.82,15.9 -95.89,36.01 0,15.91 -0.93,31.34 -4.2,46.78 -11.23,-10.3 -21.52,-21.52 -33.68,-30.87 l 0,0"
         style="fill:#f37e23;fill-opacity:1;fill-rule:nonzero;stroke:none"
         id="path3061"
         inkscape:connector-curvature="0" />
      <path
         d="m 2987.81,4046.72 c 23.86,11.23 50.98,9.35 76.71,8.89 20.58,0 41.15,-4.21 60.8,-10.29 -11.23,-36.95 -39.29,-65.02 -54.26,-100.09 -8.88,-21.05 -14.5,-43.03 -23.38,-64.08 -4.21,21.51 -7.48,43.03 -11.69,64.08 -12.63,0.93 -25.73,1.87 -38.36,3.27 9.83,10.76 19.65,21.52 29,32.74 -13.09,4.21 -26.19,8.42 -38.82,13.1 16.37,16.36 37.41,25.72 58,36.01 -19.65,5.14 -39.29,9.35 -58,16.37 l 0,0"
         style="fill:#fab93d;fill-opacity:1;fill-rule:nonzero;stroke:none"
         id="path3063"
         inkscape:connector-curvature="0" />
      <path
         d="m 2635.15,3921.84 c 9.82,-9.36 21.05,-19.18 27.13,-31.8 1.87,-14.04 -2.81,-27.6 -3.28,-41.17 -0.93,-14.96 4.21,-28.52 8.42,-42.55 -9.82,-6.56 -19.17,-13.11 -29.47,-19.18 -9.82,44.43 -5.61,89.8 -2.8,134.7 l 0,0"
         style="fill:#f37e23;fill-opacity:1;fill-rule:nonzero;stroke:none"
         id="path3065"
         inkscape:connector-curvature="0" />
      <path
         d="m 2568.74,3890.97 c 7.01,10.76 17.3,19.17 27.59,26.19 0,-40.69 -7.95,-82.31 2.81,-122.54 1.87,-14.97 12.15,-32.74 -0.47,-45.84 -17.78,-21.51 -29.93,-47.7 -50.05,-66.88 0.94,24.32 9.36,47.71 13.57,71.09 -21.05,-10.75 -24.79,-35.54 -28.06,-57.06 -2.34,-10.76 5.14,-19.64 9.82,-29 -13.1,-29.46 -21.52,-60.33 -34.15,-89.79 -22.45,58.92 -24.79,125.81 -4.67,185.67 14.03,45.84 36.95,88.4 63.61,128.16 l 0,0"
         style="fill:#da4219;fill-opacity:1;fill-rule:nonzero;stroke:none"
         id="path3067"
         inkscape:connector-curvature="0" />
      <path
         d="m 3901.27,3789.94 c 27.13,1.4 54.25,-0.47 81.38,-1.4 -6.55,-23.39 -13.57,-46.78 -20.58,-69.69 -11.23,-1.4 -21.98,-2.81 -33.21,-4.21 -9.35,25.26 -19.64,49.58 -27.59,75.3 l 0,0"
         style="fill:#f48412;fill-opacity:1;fill-rule:nonzero;stroke:none"
         id="path3069"
         inkscape:connector-curvature="0" />
      <path
         d="m 2889.12,3708.56 c 22.45,8.89 46.31,18.24 70.63,12.63 22.45,-5.15 47.71,-2.34 67.35,-16.37 -21.98,-16.37 -50.05,-6.08 -74.83,-6.55 -21.52,1.87 -47.71,-10.29 -63.15,10.29 l 0,0"
         style="fill:#ffffff;fill-opacity:1;fill-rule:nonzero;stroke:none"
         id="path3071"
         inkscape:connector-curvature="0" />
      <path
         d="m 2994.82,3538.31 c 19.65,-11.22 40.23,-22.45 57.54,-37.42 -14.5,-5.61 -28.54,-12.62 -43.97,-16.37 -9.82,2.34 -19.18,6.08 -28.53,9.83 4.68,14.96 9.35,29.46 14.96,43.96 l 0,0"
         style="fill:#f35b65;fill-opacity:1;fill-rule:nonzero;stroke:none"
         id="path3073"
         inkscape:connector-curvature="0" />
      <path
         d="m 2608.49,3471.43 c 24.79,11.69 51.45,19.17 78.11,26.66 0,-7.49 0.47,-15.44 0.47,-23.39 -18.71,-9.35 -37.42,-18.71 -56.13,-27.13 -7.48,7.95 -14.97,15.44 -22.45,23.86 l 0,0"
         style="fill:#f37e23;fill-opacity:1;fill-rule:nonzero;stroke:none"
         id="path3075"
         inkscape:connector-curvature="0" />
      <path
         d="m 3166.01,3453.19 c 16.84,-4.21 34.15,-7.95 50.51,-13.57 7.96,-1.4 7.02,-10.29 8.42,-16.37 3.74,-27.59 -2.8,-56.12 -15.9,-80.45 -25.26,30.87 -47.71,68.76 -43.03,110.39 l 0,0"
         style="fill:#ffffff;fill-opacity:1;fill-rule:nonzero;stroke:none"
         id="path3077"
         inkscape:connector-curvature="0" />
      <path
         d="m 2957.88,3423.72 c -4.21,25.72 34.14,29 49.11,16.37 14.03,-14.5 20.57,-35.08 27.13,-54.25 -2.34,-17.31 -8.42,-34.15 -14.04,-50.52 -22.92,27.6 -54.25,51.92 -62.2,88.4 l 0,0"
         style="fill:#ffffff;fill-opacity:1;fill-rule:nonzero;stroke:none"
         id="path3079"
         inkscape:connector-curvature="0" />
      <path
         d="m 3028.04,3420.45 c -4.68,15.89 11.69,30.87 27.12,28.53 18.24,0.93 30.87,-14.97 36.48,-30.4 10.29,-27.6 1.41,-57.53 -11.22,-82.79 -22.45,24.78 -41.16,53.32 -52.38,84.66 l 0,0"
         style="fill:#ffffff;fill-opacity:1;fill-rule:nonzero;stroke:none"
         id="path3081"
         inkscape:connector-curvature="0" />
      <path
         d="m 3111.75,3441.5 c 12.63,8.41 29,7.01 43.97,8.41 4.21,-24.32 12.63,-48.64 14.03,-73.43 -4.67,-14.03 -15.43,-24.79 -23.85,-36.48 -14.5,23.39 -31.81,45.37 -42.09,71.09 -4.22,10.29 -1.88,24.32 7.94,30.41 l 0,0"
         style="fill:#ffffff;fill-opacity:1;fill-rule:nonzero;stroke:none"
         id="path3083"
         inkscape:connector-curvature="0" />
      <path
         d="m 3227.28,3435.41 c 25.26,-4.68 50.51,-10.76 75.31,-16.37 -8.89,-26.66 -20.58,-51.91 -30.4,-78.57 -24.33,26.19 -42.57,58.93 -44.91,94.94 l 0,0"
         style="fill:#ffffff;fill-opacity:1;fill-rule:nonzero;stroke:none"
         id="path3085"
         inkscape:connector-curvature="0" />
      <path
         d="m 2910.17,3397.53 c 9.82,10.75 20.11,21.51 30.4,31.33 7.96,-13.56 0.47,-27.12 -7.02,-39.28 8.42,-6.55 16.38,-13.57 24.79,-20.12 -0.93,11.7 -2.33,23.39 -3.74,34.62 8.89,-12.63 21.05,-24.8 21.99,-41.16 -2.34,-13.57 -10.76,-24.32 -19.18,-34.61 -19.64,19.64 -39.29,41.62 -47.24,69.22 l 0,0"
         style="fill:#ffffff;fill-opacity:1;fill-rule:nonzero;stroke:none"
         id="path3087"
         inkscape:connector-curvature="0" />
      <path
         d="m 3306.79,3415.3 c 21.99,-0.47 43.5,-3.28 64.55,-8.42 27.13,-7.02 55.66,-5.61 83.25,-8.42 -27.12,-53.32 -30.87,-115.52 -16.36,-172.58 6.08,-28.53 18.7,-55.19 29.92,-81.86 -42.55,21.05 -73.43,57.53 -103.36,93.08 -40.22,49.58 -64.08,113.65 -58,178.2 l 0,0"
         style="fill:#ffffff;fill-opacity:1;fill-rule:nonzero;stroke:none"
         id="path3089"
         inkscape:connector-curvature="0" />
      <path
         d="m 2795.58,3325.97 c 37.42,11.69 67.82,36.01 99.62,57.52 6.08,-10.29 12.16,-20.1 16.37,-30.86 -3.27,-29.94 -17.31,-58 -17.31,-88.4 1.41,-37.42 10.3,-73.9 16.37,-110.85 -11.22,8.41 -21.97,17.77 -32.27,27.59 -0.93,0.94 -2.8,3.28 -3.74,4.68 -23.38,29.47 -42.09,61.74 -61.73,94.01 -8.9,14.03 -13.1,30.41 -17.31,46.31 l 0,0"
         style="fill:#ffffff;fill-opacity:1;fill-rule:nonzero;stroke:none"
         id="path3091"
         inkscape:connector-curvature="0" />
      <path
         d="m 3622.5,3195.94 c 12.17,-13.57 6.55,-31.81 1.88,-47.24 -8.42,-25.26 -24.79,-47.24 -28.07,-74.37 20.12,23.39 22.92,58.47 49.11,76.71 11.69,11.69 25.26,-3.27 36.02,-8.89 -7.02,-17.77 -13.57,-36.95 -27.6,-50.51 -9.35,-8.42 -18.24,-17.31 -25.26,-27.6 25.26,-1.4 49.58,7.02 73.91,13.1 -3.28,-23.85 -9.83,-47.24 -14.97,-70.62 28.06,30.4 54.25,63.6 70.62,101.96 14.97,30.87 24.33,69.22 57.53,86.06 0.47,-12.63 0.94,-25.26 1.41,-37.89 14.96,10.76 30.86,21.52 47.71,29 4.2,-29.46 -3.29,-58.93 -10.77,-87.46 12.17,0.93 28.07,8.41 38.36,-2.81 9.82,-11.22 7.48,-27.6 9.36,-41.62 -12.64,7.48 -24.8,14.96 -37.42,22.92 0,-21.99 0,-43.97 -1.88,-65.96 -14.03,7.49 -26.65,16.37 -39.29,24.79 -8.88,-37.88 2.81,-76.24 6.55,-114.12 -21.05,14.5 -38.82,32.27 -58.46,48.18 -3.74,-50.05 5.15,-100.57 19.18,-148.73 3.27,-13.58 7.95,-27.13 6.54,-41.17 -4.21,-11.68 -14.49,-22.45 -26.65,-26.66 -40.7,4.68 -73.91,30.87 -105.71,54.25 -43.03,39.3 -60.81,98.23 -68.76,154.35 -4.2,26.66 4.68,52.85 7.02,79.51 -30.4,-15.43 -48.18,-46.77 -60.8,-76.7 -13.56,-35.08 -9.82,-73.43 -18.24,-109.44 -22.92,21.04 -41.16,46.31 -61.74,69.68 -8.42,-8.41 -16.37,-16.36 -24.33,-24.78 -15.89,15.9 -30.4,33.2 -46.29,48.64 -7.02,-11.7 -14.51,-23.39 -22.92,-34.15 -16.84,17.78 -29.47,39.29 -46.78,56.6 -7.48,-16.37 -12.63,-33.68 -16.37,-50.98 -4.68,0.47 -8.89,0.93 -13.56,1.4 -6.08,5.61 -11.7,11.22 -17.78,16.84 -11.69,27.12 -32.27,49.11 -41.62,77.64 -11.69,36.48 -22.45,76.7 -10.29,114.59 4.2,16.37 14.5,29.93 25.25,42.1 43.5,-36.02 80.92,-80.45 130.96,-108.98 43.51,-27.6 99.63,-25.73 146.4,-7.02 24.79,9.82 42.56,32.74 49.58,57.53 8.42,25.26 4.21,54.26 20.58,76.7 2.34,-9.35 5.14,-18.7 7.48,-27.59 6.55,11.23 13.1,21.98 20.11,32.74 l 0,0"
         style="fill:#da4219;fill-opacity:1;fill-rule:nonzero;stroke:none"
         id="path3093"
         inkscape:connector-curvature="0" />
      <path
         d="m 3877.88,3058.43 c 10.28,-9.35 20.11,-19.18 29.93,-29 -9.82,-14.03 -18.24,-32.27 -37.89,-33.2 1.41,21.04 3.75,42.09 7.96,62.2 l 0,0"
         style="fill:#ffffff;fill-opacity:1;fill-rule:nonzero;stroke:none"
         id="path3095"
         inkscape:connector-curvature="0" />
      <path
         d="m 3129.53,3006.52 c 6.54,19.17 28.06,26.19 45.37,33.2 7.48,-28.06 16.36,-55.66 26.66,-82.78 5.14,-11.23 2.34,-23.86 -0.47,-35.55 -37.89,10.76 -68.76,45.83 -71.56,85.13 l 0,0"
         style="fill:#c74221;fill-opacity:1;fill-rule:nonzero;stroke:none"
         id="path3097"
         inkscape:connector-curvature="0" />
      <path
         d="m 3831.57,3017.27 c 16.37,-10.75 36.49,-22.92 40.7,-43.49 -5.61,-22.46 -18.72,-42.1 -29.94,-62.22 -13.56,33.68 -5.61,70.63 -10.76,105.71 l 0,0"
         style="fill:#ffffff;fill-opacity:1;fill-rule:nonzero;stroke:none"
         id="path3099"
         inkscape:connector-curvature="0" />
      <path
         d="m 3546.26,2950.39 c 3.28,15.9 11.24,30.4 20.12,44.43 4.21,-66.88 27.59,-134.24 75.77,-181.94 25.26,-29.47 63.14,-41.63 93.54,-64.07 -20.11,-0.94 -40.69,1.39 -59.86,9.35 -41.16,16.37 -83.26,30.39 -123.95,48.63 -6.08,1.88 -7.02,8.89 -8.89,14.05 -11.22,42.56 -7.01,87.46 3.27,129.55 l 0,0"
         style="fill:#ffffff;fill-opacity:1;fill-rule:nonzero;stroke:none"
         id="path3101"
         inkscape:connector-curvature="0" />
      <path
         d="m 3102.87,2991.08 c 20.58,-36.48 49.58,-69.22 88.39,-87.94 -6.54,-23.85 -10.28,-48.16 -16.36,-72.02 -7.02,-14.97 -26.19,-14.5 -40.23,-17.77 -13.09,24.79 -27.59,49.11 -33.2,76.71 -7.02,33.2 -0.47,67.34 1.4,101.02 l 0,0"
         style="fill:#ffffff;fill-opacity:1;fill-rule:nonzero;stroke:none"
         id="path3103"
         inkscape:connector-curvature="0" />
      <path
         d="m 3321.29,2961.15 c 26.66,-29.47 58,-66.43 45.84,-108.99 -16.37,-2.33 -32.27,4.21 -48.17,8.42 -6.09,33.22 -9.83,68.29 2.33,100.57 l 0,0"
         style="fill:#ffffff;fill-opacity:1;fill-rule:nonzero;stroke:none"
         id="path3105"
         inkscape:connector-curvature="0" />
      <path
         d="m 3776.85,2952.26 c 26.66,-14.03 43.97,-39.29 62.21,-62.2 -12.16,-29.48 -18.71,-61.27 -35.55,-88.4 -15.9,48.63 -27.12,99.15 -26.66,150.6 l 0,0"
         style="fill:#ffffff;fill-opacity:1;fill-rule:nonzero;stroke:none"
         id="path3107"
         inkscape:connector-curvature="0" />
      <path
         d="m 3248.33,2848.89 c -10.29,33.68 -6.55,71.1 11.23,101.97 4.67,-4.21 9.82,-8.42 14.49,-12.63 6.08,-5.62 11.7,-11.23 17.78,-16.84 19.64,-14.97 15.44,-42.1 19.64,-63.61 -21.05,-4.68 -42.09,-7.95 -63.14,-8.89 l 0,0"
         style="fill:#ffffff;fill-opacity:1;fill-rule:nonzero;stroke:none"
         id="path3109"
         inkscape:connector-curvature="0" />
      <path
         d="m 3389.58,2938.23 c 17.77,-16.37 43.97,-34.61 40.69,-61.75 -0.47,-12.15 -2.8,-24.32 -4.21,-36.47 -14.97,3.74 -29.93,7.49 -44.9,10.75 -7.01,29 -7.48,61.28 8.42,87.47 l 0,0"
         style="fill:#ffffff;fill-opacity:1;fill-rule:nonzero;stroke:none"
         id="path3111"
         inkscape:connector-curvature="0" />
      <path
         d="m 3186.59,2830.65 c -3.74,35.08 9.35,68.76 21.98,101.03 7.95,-9.35 17.77,-17.31 23.39,-28.54 6.55,-19.64 6.55,-40.68 8.42,-61.27 -4.68,0.47 -14.5,0.47 -19.64,0.47 4.68,6.55 9.82,13.11 14.96,19.65 -3.74,12.63 -8.42,25.25 -16.84,36.01 -1.87,-17.77 -11.22,-36.95 -0.94,-53.78 -9.81,-5.15 -20.1,-10.3 -31.33,-13.57 l 0,0"
         style="fill:#ffffff;fill-opacity:1;fill-rule:nonzero;stroke:none"
         id="path3113"
         inkscape:connector-curvature="0" />
      <path
         d="m 3458.8,2915.78 c 28.53,-32.28 62.68,-62.21 79.05,-103.36 -33.21,10.28 -67.82,16.37 -101.5,24.78 -3.74,28.07 6.08,55.66 22.45,78.58 l 0,0"
         style="fill:#ffffff;fill-opacity:1;fill-rule:nonzero;stroke:none"
         id="path3115"
         inkscape:connector-curvature="0" />
      <path
         d="m 4324.55,2380.7 c -51.44,-12.15 -103.37,-22.44 -155.28,-34.61 -14.04,-1.4 -21.52,-16.84 -18.7,-29.93 31.32,-202.05 60.33,-404.1 91.66,-606.16 2.34,-12.63 2.81,-25.73 8.41,-37.42 7.03,-9.35 20.12,-12.62 31.35,-9.83 56.59,10.76 113.65,21.52 170.72,31.82 10.28,2.34 21.51,4.2 28.99,12.16 7.95,7.02 6.55,18.7 5.61,28.05 -20.57,166.52 -37.88,333.49 -57.52,500.47 61.73,13.56 123.47,26.66 184.74,41.62 12.64,-159.02 22.92,-318.05 35.55,-476.6 1.87,-16.37 1.4,-33.2 6.55,-49.11 6.08,-13.57 22.92,-14.03 35.08,-11.23 61.27,12.17 123.02,22.92 183.82,35.56 16.36,2.79 20.1,19.63 19.17,33.67 2.33,-14.96 14.97,-28.07 31.34,-24.32 152.48,28.53 304.48,57.99 456.49,86.99 9.35,1.4 18.7,5.61 24.79,13.09 35.55,42.1 71.09,84.67 109.92,123.94 9.34,8.89 9.34,22.46 10.75,34.62 6.08,87.46 13.09,174.93 17.77,262.4 1.41,13.09 -5.13,25.25 -15.9,33.2 -26.19,21.99 -50.51,47.71 -81.85,62.21 -20.58,9.82 -42.09,0.46 -62.68,-3.74 -85.58,-21.99 -171.65,-42.1 -257.24,-63.14 0.93,22.91 -0.47,45.83 -0.94,68.75 123.94,32.74 247.89,66.41 370.91,102.42 13.56,2.35 19.64,15.91 19.18,28.54 -1.42,53.79 -3.28,108.04 -10.3,160.9 -1.87,17.3 -23.39,23.84 -37.41,17.77 -37.42,-12.63 -74.84,-26.19 -112.25,-38.83 l -484.57,-143.98 c 0,0 -5.44,-27.06 -5.21,-43.31 -8.52,11.25 -31.25,13.6 -31.25,13.6 l -511.7,-119.57"
         style="fill:#2e2a2b;fill-opacity:1;fill-rule:nonzero;stroke:none"
         id="path3117"
         inkscape:connector-curvature="0" />
      <path
         d="m 5097.7,2566.74 88.55,27.42 67.5,20.84"
         style="fill:#ffffff;fill-opacity:1;fill-rule:nonzero;stroke:none"
         id="path3119"
         inkscape:connector-curvature="0" />
      <path
         d="m 5361.02,2651.05 0,0 c 41.15,13.56 81.85,28.53 123,42.56 6.55,-55.2 8.42,-110.38 10.3,-165.1 -129.56,-37.89 -260.06,-73.44 -390.55,-108.04 0.47,-37.9 0.47,-76.24 2.8,-114.13 98.69,22.91 196.92,46.77 295.14,71.57 13.09,2.79 28.06,8.41 41.16,0.46 29.93,-16.84 53.78,-42.1 79.51,-64.08 -3.75,-88.86 -11.7,-177.73 -17.77,-266.6 -0.94,-8.42 0.46,-18.24 -6.55,-24.31 -36.49,-38.36 -71.1,-78.58 -105.25,-119.28 -4.2,-6.08 -10.28,-9.83 -17.3,-10.29 -152.93,-28.52 -305.41,-58.93 -457.89,-87 -1.88,55.67 -5.15,110.85 -5.62,166.05 130.97,26.19 261.93,51.91 392.88,78.57 1.88,42.57 4.22,85.6 4.69,128.16 -97.75,-21.06 -195.98,-42.56 -294.2,-62.21 -41.16,22.45 -77.64,53.32 -118.34,77.17 -2.33,71.09 -9.35,142.12 -9.35,213.29 0,23.41 -3.51,99.35 13.57,105.91"
         style="fill:#ffffff;fill-opacity:1;fill-rule:nonzero;stroke:none"
         id="path3121"
         inkscape:connector-curvature="0" />
      <path
         d="m 4800.68,2467.5 c 48.56,13.75 41.82,-26.25 45.37,-74.63 14.54,-197.8 15.9,-396.62 26.66,-594.47 -65,-13.1 -130.48,-25.26 -195.5,-37.43 -15.9,181.02 -26.19,362.96 -41.62,543.97 -76.71,-18.24 -153.89,-35.08 -231.06,-51.92 20.59,-177.26 38.82,-355 60.8,-532.26 -65.02,-12.17 -130.49,-24.33 -195.51,-36.95 -33.2,213.28 -63.61,426.56 -97.28,639.84 50.52,11.22 100.57,21.51 151.07,33.2 8.42,1.88 17.31,4.68 26.19,4.68"
         style="fill:#ffffff;fill-opacity:1;fill-rule:nonzero;stroke:none"
         id="path3123"
         inkscape:connector-curvature="0" />
      <path
         d="m 3954.59,2304.47 c 46.3,8.89 89.79,-14.03 131.43,-29.93 16.83,-7.02 34.61,-12.16 52.38,-17.79 12.63,-3.73 15.43,-18.23 17.3,-29.92 22.92,-142.65 45.37,-285.31 68.75,-427.5 2.35,-11.7 0.47,-24.31 -8.41,-33.2 -31.8,-37.42 -59.4,-78.12 -86.53,-119.28 -5.14,-8.42 -13.09,-16.36 -23.86,-17.3 -121.13,-22.91 -242.27,-45.37 -363.41,-67.81 -11.22,-3.29 -21.98,0 -30.87,6.07 -45.84,28.07 -93.07,54.26 -139.85,79.98 -8.42,3.75 -14.5,11.7 -16.36,20.59 -40.7,146.38 -83.26,292.32 -122.55,439.18 -4.68,12.63 1.4,25.72 11.22,33.68 31.81,27.58 64.55,54.71 99.16,78.57 15.44,10.29 31.34,21.51 50.52,23.86 120.67,17.77 241.34,37.89 361.08,60.8 l 0,0"
         style="fill:#2e2a2b;fill-opacity:1;fill-rule:nonzero;stroke:none"
         id="path3125"
         inkscape:connector-curvature="0" />
      <path
         d="m 3586.02,2217.95 c 123.95,20.57 248.36,39.27 371.83,63.61 40.24,7.94 77.65,-12.17 113.66,-26.2 19.18,-7.96 39.29,-14.5 59.41,-20.11 24.31,-149.21 47.7,-298.88 71.56,-448.55 -35.08,-42.09 -66.89,-87.46 -96.83,-133.76 -110.38,-20.11 -220.75,-41.17 -331.14,-61.74 -14.96,-2.34 -29.46,-7.02 -44.9,-7.02 -49.11,29.94 -100.09,57.54 -149.67,86.53 -16.37,47.24 -27.6,96.82 -42.09,144.52 -28.53,101.04 -57.53,202.06 -84.66,303.09 42.56,35.54 83.26,74.37 132.83,99.63 l 0,0"
         style="fill:#ffffff;fill-opacity:1;fill-rule:nonzero;stroke:none"
         id="path3127"
         inkscape:connector-curvature="0" />
      <path
         d="m 3351.7,2210.47 c 14.03,1.39 31.33,6.07 42.09,-6.09 8.42,-12.63 9.82,-28.53 14.03,-43.04 54.26,-200.64 116.93,-399.43 172.12,-600.07 3.74,-13.57 -3.27,-31.81 -19.18,-33.22 -63.14,-12.62 -126.28,-23.39 -189.42,-35.53 -14.5,-3.28 -29,7.01 -32.27,21.03 -59.4,189.9 -126.76,377.92 -184.28,568.75 -7.02,25.72 -15.9,51.45 -21.52,78.11 -2.81,14.97 11.7,26.66 25.26,27.59 64.07,7.49 128.62,14.05 193.17,22.47 l 0,0"
         style="fill:#2e2a2b;fill-opacity:1;fill-rule:nonzero;stroke:none"
         id="path3129"
         inkscape:connector-curvature="0" />
      <path
         d="m 3155.25,2164.63 c 73.91,7.48 147.8,16.36 221.7,25.25 55.66,-214.22 123.48,-425.16 181.95,-638.91 -65.49,-12.16 -130.5,-24.31 -195.98,-36.48 -67.35,217.5 -146.4,430.77 -207.67,650.14 l 0,0"
         style="fill:#ffffff;fill-opacity:1;fill-rule:nonzero;stroke:none"
         id="path3131"
         inkscape:connector-curvature="0" />
      <path
         d="m 4880.2,2179.12 c 33.68,-23.85 68.76,-45.84 102.43,-69.69 12.16,-7.95 25.26,-18.71 40.22,-14.49 87.46,18.7 175.39,36.47 262.86,56.11 -1.4,-27.12 -1.86,-54.25 -3.74,-81.38 -122.54,-23.85 -244.15,-48.64 -366.7,-72.5 -10.75,-0.92 -19.64,-8.41 -27.12,-15.43 -2.81,65.95 -4.2,131.9 -7.95,197.38 l 0,0"
         style="fill:#ffffff;fill-opacity:1;fill-rule:nonzero;stroke:none"
         id="path3133"
         inkscape:connector-curvature="0" />
      <path
         d="m 3680.03,2114.58 c 80.92,13.09 161.84,28.05 242.74,42.1 23.4,-120.22 48.19,-239.94 70.63,-360.15 -75.76,-13.1 -151.07,-28.54 -226.84,-41.63 -28.53,119.74 -58.93,239.47 -86.53,359.68 l 0,0"
         style="fill:#2e2a2b;fill-opacity:1;fill-rule:nonzero;stroke:none"
         id="path3135"
         inkscape:connector-curvature="0" />
      <path
         d="m 2507.93,2141.24 c 70.16,2.8 140.79,6.54 210.94,10.75 13.57,1.87 28.06,-6.08 31.81,-19.64 50.04,-172.12 120.67,-337.23 188.02,-503.27 102.9,17.77 205.79,36.48 309.16,54.73 13.57,3.75 29.47,-2.35 33.21,-16.84 17.3,-49.57 33.68,-98.69 49.58,-148.73 6.08,-14.03 -1.41,-34.62 -18.24,-36.49 -168.38,-31.8 -337.22,-62.2 -505.6,-93.54 -11.7,-2.33 -26.66,-3.27 -34.62,7.95 -9.82,15.44 -15.43,33.68 -23.38,50.52 -93.55,216.55 -201.12,428.88 -265.2,656.68 -7.48,17.3 5.14,37.88 24.32,37.88 l 0,0"
         style="fill:#2e2a2b;fill-opacity:1;fill-rule:nonzero;stroke:none"
         id="path3137"
         inkscape:connector-curvature="0" />
      <path
         d="m 3707.63,2095.87 c 65.94,11.22 131.43,21.98 196.9,34.61 20.59,-105.24 41.17,-210.48 62.68,-315.25 -61.27,-11.22 -122.07,-22.44 -183.34,-34.14 -25.26,104.77 -50.98,209.54 -76.24,314.78 l 0,0"
         style="fill:#ffffff;fill-opacity:1;fill-rule:nonzero;stroke:none"
         id="path3139"
         inkscape:connector-curvature="0" />
      <path
         d="m 2503.72,2117.85 c 74.84,2.34 149.67,6.54 224.5,11.23 50.99,-180.55 125.82,-352.66 195.98,-525.72 111.32,19.18 222.63,38.82 333.95,58.93 18.24,-52.39 35.55,-104.77 52.38,-157.16 -173.05,-32.73 -346.57,-64.07 -519.63,-96.34 -72.5,167.91 -152.01,332.55 -218.42,502.79 -26.2,67.82 -50.52,136.11 -68.76,206.27 l 0,0"
         style="fill:#ffffff;fill-opacity:1;fill-rule:nonzero;stroke:none"
         id="path3141"
         inkscape:connector-curvature="0" />
      <path
         d="m 4890.96,1936.84 c 2.8,-21.98 3.28,-44.9 0.47,-67.35 -3.75,22.45 -3.28,44.9 -0.47,67.35 l 0,0"
         style="fill:#272127;fill-opacity:1;fill-rule:nonzero;stroke:none"
         id="path3143"
         inkscape:connector-curvature="0" />
      <path
         d="m 3674.89,2105.22 c 81.38,13.1 162.3,27.59 243.22,42.56 23.37,-120.21 48.16,-240.4 71.09,-360.61 -75.77,-13.56 -151.54,-28.06 -226.85,-41.63 -29,119.75 -58.46,239.48 -87.46,359.68 l 0,0"
         style="fill:#231f20;fill-opacity:1;fill-rule:nonzero;stroke:none"
         id="path3145"
         inkscape:connector-curvature="0" />
      <path
         d="m 3821.75,2107.09 c 27.13,5.61 54.26,-2.34 81.38,-2.81 4.68,-22.92 8.89,-45.83 13.57,-68.76 -26.66,-13.08 -49.57,-32.26 -72.96,-50.97 -35.55,-23.38 -65.95,-53.79 -95.89,-83.72 -10.29,43.03 -20.57,86.06 -31.34,129.09 24.33,-3.75 49.12,-7.48 73.44,-8.89 -20.58,28.07 -55.66,39.29 -76.24,67.35 36.01,5.62 72.03,12.16 108.04,18.71 l 0,0"
         style="fill:#da4219;fill-opacity:1;fill-rule:nonzero;stroke:none"
         id="path3147"
         inkscape:connector-curvature="0" />
      <path
         d="m 3940.55,1826.46 c -11.21,34.61 -5.14,72.03 -3.27,107.58 4.2,-24.8 9.82,-49.12 14.03,-73.44 3.28,-12.62 -6.08,-23.38 -10.76,-34.14 l 0,0"
         style="fill:#da4219;fill-opacity:1;fill-rule:nonzero;stroke:none"
         id="path3149"
         inkscape:connector-curvature="0" />
      <path
         d="m 3768.9,1814.29 c 24.79,34.62 48.64,71.57 83.25,97.77 -13.56,-42.57 -24.79,-86.07 -24.32,-130.97 -16.37,-3.27 -32.27,-6.54 -48.64,-9.35 -3.27,14.04 -6.55,28.06 -10.29,42.55 l 0,0"
         style="fill:#da4219;fill-opacity:1;fill-rule:nonzero;stroke:none"
         id="path3151"
         inkscape:connector-curvature="0" />
      <path
         d="m 4854.47,2242.26 c 13.57,4.68 13.44,-14.66 20.12,-2.34 -14.97,-27.6 0,-32.74 21.98,-48.17 38.76,-27.2 78.12,-53.32 117.86,-79.05 98.7,21.52 196.92,41.63 295.14,63.15 -0.47,-43.03 -2.34,-85.6 -4.69,-128.16 -130.95,-26.66 -261.91,-52.38 -392.88,-78.1 0,-6.56 0,-12.64 0,-18.71 -15.43,0 -31.34,-0.47 -46.77,-1.41 -2.81,97.75 -6.55,195.04 -10.76,292.79 l 0,0"
         style="fill:#261f25;fill-opacity:1;fill-rule:nonzero;stroke:none"
         id="path3153"
         inkscape:connector-curvature="0" />
      <path
         d="m 4879.73,2176.32 c 41.63,-29.47 84.2,-58.47 127.69,-86.07 -16.83,-25.72 -34.15,-50.98 -50.52,-76.7 -12.15,-29.47 -59.4,-7.48 -68.75,-41.16 -3.27,67.82 -3.27,136.1 -8.42,203.93 l 0,0"
         style="fill:#e03821;fill-opacity:1;fill-rule:nonzero;stroke:none"
         id="path3155"
         inkscape:connector-curvature="0" />
      <path
         d="m 5173.46,2122.99 c 37.42,7.95 75.3,15.44 112.25,24.33 -1.4,-27.13 -2.33,-53.79 -2.8,-80.92 -61.75,-12.16 -123.48,-24.78 -185.21,-36.95 17.77,27.13 35.07,54.26 51.44,81.86 4.2,9.82 15.9,9.82 24.32,11.68 l 0,0"
         style="fill:#ffffff;fill-opacity:1;fill-rule:nonzero;stroke:none"
         id="path3157"
         inkscape:connector-curvature="0" />
      <g
         id="g3159">
        <g
           clip-path="url(#clipPath3163)"
           id="g3161">
          <path
             id="path3175"
             style="fill:url(#linearGradient4181);fill-opacity:1;fill-rule:nonzero;stroke:none"
             d="m 2641.25,1791.25 172.5,26.25 97.92,-236.67 320.21,64.17 41.25,-128.13 -466.25,-93.12 -165.63,367.5"
             inkscape:connector-curvature="0" />
        </g>
      </g>
      <g
         id="g3177">
        <g
           clip-path="url(#clipPath3181)"
           id="g3179">
          <path
             id="path3193"
             style="fill:url(#linearGradient4183);fill-opacity:1;fill-rule:nonzero;stroke:none"
             d="m 3263.75,1896.25 163.75,26.25 108.13,-354.38 -158.75,-36.25 -113.13,364.38"
             inkscape:connector-curvature="0" />
        </g>
      </g>
      <g
         id="g3195">
        <g
           clip-path="url(#clipPath3199)"
           id="g3197">
          <path
             id="path3211"
             style="fill:url(#linearGradient4185);fill-opacity:1;fill-rule:nonzero;stroke:none"
             d="m 3531.25,1943.75 68.75,-266.88 130,-73.12 351.88,71.25 83.12,116.87 -40,256.88 -147.5,-25 c 0,0 44.17,-227.92 40,-243.75 -4.17,-15.83 -263.75,-53.75 -280.62,-43.13 C 3720,1747.5 3675,1970 3675,1970 l -143.75,-26.25"
             inkscape:connector-curvature="0" />
        </g>
      </g>
      <g
         id="g3213">
        <g
           clip-path="url(#clipPath3217)"
           id="g3215">
          <path
             id="path3229"
             style="fill:url(#linearGradient4187);fill-opacity:1;fill-rule:nonzero;stroke:none"
             d="m 4240.06,2069.01 49.94,-355.89 140.63,33.13 -41.88,350 -148.69,-27.24"
             inkscape:connector-curvature="0" />
        </g>
      </g>
      <g
         id="g3231">
        <g
           clip-path="url(#clipPath3235)"
           id="g3233">
          <path
             id="path3247"
             style="fill:url(#linearGradient4189);fill-opacity:1;fill-rule:nonzero;stroke:none"
             d="m 4673.43,2144.9 163.09,27.54 12.72,-347.37 -150.39,-29.66 -25.42,349.49"
             inkscape:connector-curvature="0" />
        </g>
      </g>
      <g
         id="g3249">
        <g
           clip-path="url(#clipPath3253)"
           id="g3251">
          <path
             id="path3265"
             style="fill:url(#linearGradient4191);fill-opacity:1;fill-rule:nonzero;stroke:none"
             d="M 4921.25,2191.25 5505,2310 5490.63,2036.25 5376.67,1910.83 4927.5,1825 l -3.12,135.62 380.48,74.5 c 19.64,3.02 17.77,2.63 19.2,82.44 1.27,74.33 1.27,75.85 -17.68,73.15 0,0 -180.88,-39.59 -288.88,-61.96 -14.75,-3.06 -96.25,62.5 -96.25,62.5"
             inkscape:connector-curvature="0" />
        </g>
      </g>
    </g>
  </g>
</svg>
