<?xml version="1.0" encoding="utf-8"?>
<!-- Generator: Adobe Illustrator 16.0.0, SVG Export Plug-In . SVG Version: 6.00 Build 0)  -->
<!DOCTYPE svg PUBLIC "-//W3C//DTD SVG 1.1//EN" "http://www.w3.org/Graphics/SVG/1.1/DTD/svg11.dtd">
<svg version="1.1" id="Layer_1" xmlns="http://www.w3.org/2000/svg" xmlns:xlink="http://www.w3.org/1999/xlink" x="0px" y="0px"
	 width="612px" height="150.76px" viewBox="0 0 612 150.76" enable-background="new 0 0 612 150.76" xml:space="preserve">
<g>
	<path d="M464.481,37.753h2.414v75.379h-2.414V37.753z M101.295,86.285c-3.292,0-5.437-1.141-5.437-3.318
		c0-1.817,3.33-6.123,6.619-6.123c2.424,0,4.813,2.879,4.813,4.609C107.291,83.662,104.901,86.285,101.295,86.285 M102.831,91.492
		c-1.014,1.211-2.628,2.119-3.924,2.119c-1.733,0-3.03-0.969-3.472-2.367c-0.108-0.35-0.152-0.723-0.172-1.115
		c-0.016-0.415,0.125-0.238,1.369,0.225c0.845,0.318,1.91,0.613,3.002,0.613c0.444,0,0.87-0.043,1.281-0.115
		C101.62,90.718,103.828,90.3,102.831,91.492 M92.411,82.787c-0.463,1.874-0.827,1.053-1.038,0.523
		c-0.325-0.817-0.446-1.682-0.446-2.45c0-2.743,2.088-5.07,6.008-5.07c0.907,0,1.261,0.282,0.331,0.722
		c-0.32,0.156-0.669,0.376-0.97,0.562C94.315,78.313,93.001,80.359,92.411,82.787 M114.651,79.295
		c-0.334-5.053-7.487-8.618-16.509-8.377c-7.133,0.2-15.126,4.523-15.122,9.943c0.005,5.937,4.599,8.339,6.388,9.048
		c0.436,0.173,0.585,0.122,0.858,0.913c0.517,1.513,1.994,5.198,6.792,5.189C103.551,95.997,115.146,86.732,114.651,79.295
		 M81.074,88.11c1.84,3.696,8.221,13.021,4.345,20.188c-1.005,1.86-3.148,4.138-5.92,4.681c-6.017,1.061-12.837-3.515-17.134-8.491
		c-3.274-3.986-7.093-9.342-8.172-16.622c-1.881-12.176,4.375-22.599,10.719-28.866c1.89-1.866,3.831-3.39,5.59-4.543
		c2.425-1.584,5.9-3.281,10.343-4.235c1.688-0.363,3.633-0.736,6.033-0.426c1.406,0.177,3.073,0.812,3.383,2.041
		c0.248,0.981-0.336,1.936-0.606,2.327c-2.06,2.932-8.09,11.251-10.016,17.812C77.576,79.014,78.677,83.598,81.074,88.11
		 M108.196,60.933c2.938-4.37,7.514-8.79,10.225-9.875c2.716-1.086,5.394-0.208,5.995,1.951c0.598,2.164-3.98,6.585-10.219,9.877
		C107.953,66.177,105.271,65.301,108.196,60.933 M124.244,105.844c2.704,3.183,3.841,6.691,1.718,7.043
		c-2.771-0.283-8.198-4.421-11.738-8.769c-3.211-3.958-2.693-5.625,0.424-4.607C117.698,100.349,121.804,102.946,124.244,105.844
		 M132.113,84.412c-3.025,1.256-7.268,1.207-10.416-0.21c-3.99-1.513-5.569-3.526-1.682-4.294
		c5.072-0.631,12.151-0.266,14.499,0.667C136.608,81.488,135.347,83.175,132.113,84.412 M434.046,66.868h-0.938v-1.261h0.938
		c0.5,0,0.783,0.219,0.783,0.633C434.829,66.605,434.546,66.868,434.046,66.868 M435.589,66.173c0-0.806-0.629-1.221-1.48-1.221
		h-1.74v3.849h0.74v-1.324h0.807l0.914,1.324h0.887l-1.02-1.456C435.22,67.197,435.589,66.801,435.589,66.173 M437.194,66.954
		c0,1.848-1.455,3.393-3.348,3.393c-1.91,0-3.348-1.522-3.348-3.371v-0.022c0-1.849,1.455-3.39,3.348-3.39
		c1.914,0,3.348,1.522,3.348,3.371V66.954z M433.847,63.148c-2.107,0-3.781,1.74-3.781,3.805v0.022c0,2.067,1.652,3.786,3.781,3.786
		c2.111,0,3.787-1.743,3.787-3.808v-0.02C437.634,64.868,435.976,63.148,433.847,63.148 M427.632,77.578v23.629h-5.67v-22.23
		c0-7.067-3.828-11.485-10.525-11.485c-6.551,0-11.41,4.785-11.41,11.925v21.79h-5.668V49.679h5.668v20.095
		c2.504-4.122,6.479-7.435,13.027-7.435C422.259,62.339,427.632,68.522,427.632,77.578 M386.085,91.342l3.607,3.386
		c-3.824,4.27-8.391,7.361-15.533,7.361c-11.113,0-19.506-9.054-19.506-19.728v-0.146c0-10.748,8.393-19.877,19.506-19.877
		c7.215,0,11.709,3.02,15.24,6.772l-3.754,3.975c-3.018-3.164-6.404-5.74-11.557-5.74c-7.732,0-13.619,6.551-13.619,14.721v0.149
		c0,8.241,6.035,14.794,13.984,14.794C379.313,97.01,383.067,94.584,386.085,91.342 M320.47,80.079
		c0.734-7.433,5.744-12.955,12.363-12.955c7.584,0,11.561,6.035,12.15,12.955H320.47z M332.981,62.339
		c-10.521,0-18.253,8.834-18.253,19.802v0.148c0,11.775,8.538,19.8,18.993,19.8c7.213,0,11.852-2.87,15.676-7.139l-3.531-3.168
		c-3.092,3.241-6.775,5.374-11.998,5.374c-6.775,0-12.59-4.638-13.398-12.881h30.18c0.076-0.661,0.076-1.104,0.076-1.843
		C350.726,71.32,344.245,62.339,332.981,62.339 M313.061,95.814c0.734,1.229,1.566,2.381,2.494,3.445
		c-2.516,1.804-5.209,2.61-8.402,2.61c-6.111,0-10.748-3.019-10.748-10.75V49.679h5.666v13.47h15.416
		c-1.585,1.458-2.983,3.138-4.147,5.006H302.07v22.231c0,4.638,2.577,6.331,6.407,6.331
		C309.984,96.717,311.574,96.424,313.061,95.814 M196.495,101.207h-35.191V49.679h5.816v46.153h24.714
		C193.121,97.849,194.689,99.66,196.495,101.207 M282.459,49.679h6.478v6.255h-6.478V49.679z M282.825,63.148h5.674v38.059h-5.674
		V63.148z M269.473,80.375c0,7.656-6.771,12.883-13.988,12.883c-7.063,0-13.176-5.301-13.176-12.957v-0.148
		c0-7.803,5.964-12.807,13.176-12.807c7.218,0,13.988,5.079,13.988,12.882V80.375z M269.256,69.996
		c-3.094-4.122-7.729-7.657-14.872-7.657c-9.055,0-17.887,6.846-17.887,17.962v0.146c0,10.97,8.758,17.816,17.887,17.816
		c6.993,0,11.63-3.61,14.942-8.023v4.488c0,8.907-5.446,13.548-13.841,13.548c-5.444,0-10.301-1.694-14.644-4.857l-2.578,4.411
		c5.078,3.535,10.966,5.304,17.297,5.304c6.038,0,11.117-1.695,14.503-5.081c3.092-3.091,4.86-7.58,4.86-13.468V63.148h-5.667
		V69.996z M226.853,82.361c0,8.024-5.741,14.648-13.986,14.648c-8.024,0-14.06-6.624-14.06-14.794v-0.149
		c0-8.022,5.666-14.721,13.916-14.721c8.021,0,14.13,6.698,14.13,14.87V82.361z M212.867,62.339
		c-11.484,0-19.875,9.129-19.875,19.877v0.146c0,10.747,8.317,19.728,19.731,19.728c11.478,0,19.944-9.127,19.944-19.873v-0.149
		C232.667,71.32,224.278,62.339,212.867,62.339"/>
	<path d="M529.669,100.888c-11.135-0.063-20.189-9.058-20.189-20.188c0-11.132,9.055-20.189,20.189-20.189h25.975
		c3.188,0,5.781-2.594,5.781-5.784s-2.594-5.783-5.781-5.783h-25.975c-10.084,0-19.346,4.63-25.408,12.702
		c-4.154,5.531-6.35,12.121-6.35,19.054c0,6.933,2.195,13.523,6.35,19.054c6.063,8.072,15.324,12.728,25.408,12.704
		c3.363-0.008,5.32-1.974,5.756-5.398C535.829,103.863,533.319,100.908,529.669,100.888"/>
	<path d="M532.917,86.482c9.34,0.004,16.939,7.604,16.939,16.94v3.248c0,3.188,2.596,5.786,5.783,5.786
		c3.191,0,5.787-2.598,5.787-5.786v-25.99c0-3.031-2.369-5.567-5.396-5.767l-0.07-0.003c-0.248-0.015-0.479-0.014-0.707,0.003
		c-0.016,0.002-0.031,0.002-0.047,0.002h-25.537c-3.184,0-5.773,2.576-5.787,5.746c0.004,0.011,0.004,0.02,0.004,0.029
		c0,0.011,0,0.021-0.004,0.028c0.014,3.18,2.604,5.764,5.787,5.764h3.244H532.917L532.917,86.482z"/>
</g>
</svg>
