<?xml version="1.0" encoding="utf-8"?>
<!-- Generator: Adobe Illustrator 16.0.0, SVG Export Plug-In . SVG Version: 6.00 Build 0)  -->
<!DOCTYPE svg PUBLIC "-//W3C//DTD SVG 1.1//EN" "http://www.w3.org/Graphics/SVG/1.1/DTD/svg11.dtd">
<svg version="1.1" id="Noroff_RGB" xmlns="http://www.w3.org/2000/svg" xmlns:xlink="http://www.w3.org/1999/xlink" x="0px" y="0px"
	 width="340.157px" height="170.079px" viewBox="0 0 340.157 170.079" enable-background="new 0 0 340.157 170.079"
	 xml:space="preserve">
<g>
	<g>
		<g>
			<path fill="#CC0000" d="M199.386,66.717c-2.666-2.188-6.998-3.08-14.967-3.08c-7.289,0-11.324,0.964-13.919,3.326
				c-2.487,2.249-3.687,6.766-3.687,13.804c0,6.333,1.237,10.398,3.794,12.429c2.646,2.1,6.789,2.955,14.275,2.955
				c4.492,0,9.27,0.066,13.324-2.236c4.713-2.686,4.986-8.876,4.986-13.763C203.192,73.212,201.948,68.821,199.386,66.717z
				 M191.31,86.343c-0.395,0.35-1.586,1.41-6.256,1.428l0,0h-0.102l0,0c-4.67-0.018-5.863-1.078-6.256-1.428
				c-0.406-0.359-1.631-1.79-1.631-6.072c0-3.334,0.615-5.438,1.834-6.697c0.68-0.715,1.936-1.448,6.098-1.448l0,0
				c0,0,0.012,0,0.018,0c4.143,0,5.406,0.733,6.092,1.448c1.217,1.26,1.826,3.363,1.826,6.697
				C192.933,84.553,191.708,85.984,191.31,86.343z"/>
			<path fill="#CC0000" d="M269.472,66.717c-2.664-2.188-7.004-3.08-14.973-3.08c-7.283,0-11.313,0.964-13.92,3.326
				c-2.48,2.249-3.68,6.766-3.68,13.804c0,6.333,1.244,10.398,3.787,12.429c2.652,2.1,6.789,2.955,14.275,2.955
				c4.498,0,9.275,0.066,13.33-2.236c4.719-2.686,4.986-8.876,4.986-13.763C273.278,73.212,272.034,68.821,269.472,66.717z
				 M261.396,86.343c-0.4,0.35-1.586,1.41-6.256,1.428l0,0h-0.107l0,0c-4.664-0.018-5.855-1.078-6.25-1.428
				c-0.406-0.359-1.631-1.79-1.631-6.072c0-3.334,0.615-5.438,1.834-6.697c0.68-0.715,1.941-1.448,6.09-1.448h0.008
				c0,0,0.006,0,0.012,0c4.15,0,5.418,0.733,6.098,1.448c1.211,1.26,1.826,3.363,1.826,6.697
				C263.019,84.553,261.794,85.984,261.396,86.343z"/>
			<path fill="#CC0000" d="M230.403,70.969c0.355,0,1.51-0.156,1.516-1.553v-4.241c0-1.19-0.957-1.63-1.516-1.754
				c-1.453-0.314-5.844-0.222-5.844-0.222c-12.605,0.158-15.252,6.152-15.252,11.153V94.55c0,0.162,0.07,1.602,1.605,1.602h8.57
				c0.02,0,0.42,0,0.801-0.215c0.469-0.26,0.717-0.748,0.717-1.434l-0.02-18.317c0-0.031-0.057-1.271,0.279-2.452
				c0.336-1.185,1.986-2.76,5.742-2.76l1.598-0.011L230.403,70.969z"/>
			<path fill="#CC0000" d="M326.495,83.629c0.266,0,1.123-0.063,1.199-0.807v-5.445c-0.025-0.821-0.928-0.885-1.199-0.885
				l-6.066,0.018l0.025-0.698c0-1.426,0.42-2.821,1.637-3.649c0.945-0.653,2.031-0.948,3.172-1.055
				c1.605-0.159,3.225-0.145,4.842-0.142c0.184,0,0.375,0.003,0.559,0.003c0.355,0,1.51-0.156,1.516-1.553v-4.241
				c0-1.19-0.965-1.63-1.516-1.754c-1.453-0.314-6.135-0.222-6.135-0.222c-5.463,0.066-9.061,1.237-11.377,2.943
				c-2.842,2.297-3.33,5.561-3.342,8.503c0.012,0.102,0.012,0.205,0.012,0.314v19.542c0.014,0.164,0.07,1.648,1.643,1.648h7.436
				c0.141,0,1.314-0.037,1.523-1.291l0.006-11.234L326.495,83.629z"/>
			<path fill="#CC0000" d="M297.64,83.629c0.268,0,1.117-0.063,1.199-0.807v-5.445c-0.025-0.821-0.926-0.885-1.199-0.885
				l-6.064,0.018l0.031-0.698c0-1.426,0.412-2.821,1.625-3.649c0.951-0.653,2.043-0.948,3.178-1.055
				c1.605-0.159,3.223-0.145,4.842-0.142c0.184,0,0.367,0.003,0.557,0.003c0.35,0,1.518-0.156,1.518-1.553v-4.241
				c0-1.19-0.959-1.63-1.518-1.754c-1.451-0.314-6.127-0.222-6.127-0.222c-5.477,0.066-9.066,1.237-11.383,2.943
				c-2.848,2.297-3.33,5.561-3.344,8.503c0.014,0.102,0.014,0.205,0.014,0.314v19.542c0,0.164,0.07,1.648,1.643,1.648h7.436
				c0.141,0,1.313-0.037,1.529-1.291V83.626L297.64,83.629z"/>
			<path fill="#CC0000" d="M137.386,73.518l-0.006,3.313l0.006,18.261c-0.095,0.381-0.304,0.672-0.621,0.85
				c-0.368,0.209-0.759,0.209-0.774,0.209h-8.584c-1.478,0-1.541-1.395-1.541-1.551V75.255l-0.013-6.185
				c0-2.453,1.005-3.817,3.898-4.462c2.82-0.628,9.339-0.951,11.329-0.954c4.937,0.003,10.475,0.338,14.091,2.809
				c2.925,1.999,4.53,5.3,4.986,10.216c0.089,0.952,0.146,1.945,0.146,3.023c0,0.018,0,0.025,0,0.043v11.089v4.137l0,0
				c-0.096,0.381-0.305,0.666-0.622,0.84c-0.368,0.213-0.755,0.213-0.773,0.213h-8.584c-1.479,0-1.542-1.395-1.542-1.555V79.749
				v-0.003c0-2.48-0.546-4.211-1.675-5.287c-0.983-0.946-2.322-1.367-4.346-1.367C142.762,73.091,140.415,73.06,137.386,73.518z"/>
		</g>
	</g>
	<path fill="#CC0000" d="M59.595,143.04c0,0-35.927-35.342-42.858-43.801c-8.459-11.188-8.459-27.588,0-38.777
		c6.932-8.458,15.513-17.952,23.971-24.884c11.188-8.459,26.589-8.459,37.777,0c8.457,6.933,17.038,16.426,23.97,24.885
		c8.458,11.188,8.458,27.588,0,38.776C95.523,107.698,59.595,143.04,59.595,143.04z"/>
	<g>
		<g>
			<path fill="#FFFFFF" d="M86.809,79.632l-8.669,8.66c-0.482,0.49-1.285,0.482-1.768,0L61.442,73.368
				c-3.502-3.509-5.729-2.8-8.029-0.491c-0.983,0.977-2.053,2.133-3.115,3.462l19.018,19.014c0.479,0.484,0.438,1.332-0.054,1.818
				l-8.609,8.611c-0.488,0.488-1.333,0.537-1.824,0.045L35.243,82.244c-2.747-2.752-2.658-4.081-0.666-6.879
				c1.871-2.576,7.061-8.479,8.666-10.08c9.275-9.278,17.27-13.813,28.683-2.399l14.922,14.922
				C87.336,78.297,87.292,79.143,86.809,79.632z"/>
		</g>
	</g>
</g>
<g>
	<path fill="#CC0000" d="M136.001,116.829c0,3.134-1.723,4.875-4.824,4.875c-3.101,0-4.824-1.741-4.824-4.875v-7.312l0.172-0.175
		h2.067l0.172,0.175v7.312c0,1.741,0.689,2.786,2.412,2.786s2.412-1.045,2.412-2.786v-7.312l0.172-0.175h2.067l0.172,0.175V116.829z
		"/>
	<path fill="#CC0000" d="M138.8,109.343h2.412l0.344,0.175l4.651,8.009h0.172v-8.009l0.172-0.175h2.067l0.172,0.175v11.839
		l-0.172,0.174h-2.412l-0.344-0.174l-4.651-8.009h-0.172v8.009l-0.172,0.174H138.8l-0.172-0.174v-11.839L138.8,109.343z"/>
	<path fill="#CC0000" d="M153.688,121.53h-2.067l-0.172-0.174v-11.839l0.172-0.175h2.067l0.172,0.175v11.839L153.688,121.53z"/>
	<path fill="#CC0000" d="M161.852,121.356l-0.172,0.174h-2.24l-0.172-0.174l-3.79-10.099v-1.74l0.172-0.175h1.551l0.172,0.175
		l3.101,8.53h0.172l3.101-8.53l0.172-0.175h1.551l0.172,0.175v1.74L161.852,121.356z"/>
	<path fill="#CC0000" d="M175.554,121.53h-8.097l-0.172-0.174v-11.839l0.172-0.175h8.097l0.172,0.175v1.74l-0.172,0.175h-5.685
		l-0.172,0.174v2.438l0.172,0.174h5.34l0.172,0.174v1.741l-0.172,0.175h-5.34l-0.172,0.174v2.785l0.172,0.175h5.685l0.172,0.174
		v1.741L175.554,121.53z"/>
	<path fill="#CC0000" d="M185.451,116.481v0.174l2.239,2.96v1.741l-0.172,0.174h-1.034l-0.345-0.174l-3.445-4.527l-0.345-0.174
		h-1.723l-0.172,0.174v4.527l-0.172,0.174h-2.067l-0.173-0.174v-11.839l0.173-0.175h5.685c2.412,0,4.135,1.219,4.135,3.656
		C188.035,114.914,186.829,116.133,185.451,116.481z M183.9,111.433h-3.273l-0.172,0.174v2.785l0.172,0.175h3.273
		c1.034,0,1.723-0.349,1.723-1.567S184.935,111.433,183.9,111.433z"/>
	<path fill="#CC0000" d="M194.37,121.704c-3.445,0-4.995-1.741-4.995-4.004l0.172-0.174h2.067l0.172,0.174
		c0,1.219,0.689,1.915,2.757,1.915c1.55,0,2.411-0.522,2.411-1.567c0-1.219-0.688-1.566-3.101-1.915
		c-2.411-0.348-4.307-1.219-4.307-3.656c0-1.74,1.378-3.308,4.651-3.308s4.651,1.567,4.651,3.656l-0.172,0.174h-2.067l-0.173-0.174
		c0-1.045-0.517-1.567-2.411-1.567c-1.551,0-2.067,0.522-2.067,1.219c0,1.045,0.688,1.394,3.101,1.741
		c2.412,0.349,4.307,1.393,4.307,3.83C199.366,119.963,197.988,121.704,194.37,121.704z"/>
	<path fill="#CC0000" d="M203.609,121.53h-2.067l-0.173-0.174v-11.839l0.173-0.175h2.067l0.172,0.175v11.839L203.609,121.53z"/>
	<path fill="#CC0000" d="M215.085,111.433h-3.445l-0.173,0.174v9.75l-0.172,0.174h-2.067l-0.172-0.174v-9.75l-0.173-0.174h-3.445
		l-0.172-0.175v-1.74l0.172-0.175h9.647l0.172,0.175v1.74L215.085,111.433z"/>
	<path fill="#CC0000" d="M222.2,117.004v4.353l-0.172,0.174h-2.067l-0.173-0.174v-4.353l-3.445-5.746v-1.74l0.173-0.175h1.205
		l0.345,0.175l2.757,4.7h0.345l2.756-4.7l0.345-0.175h1.206l0.172,0.175v1.74L222.2,117.004z"/>
	<path fill="#CC0000" d="M239.774,117.874l0.172-0.174h2.067l0.172,0.174c-0.345,2.438-2.239,3.83-4.996,3.83
		c-3.79,0-5.856-2.611-5.856-6.268s2.066-6.268,5.856-6.268c2.757,0,4.651,1.393,4.996,3.656l-0.172,0.174h-2.067l-0.172-0.174
		c-0.345-1.045-1.206-1.567-2.585-1.567c-2.411,0-3.445,1.741-3.445,4.179s1.034,4.179,3.445,4.179
		C238.568,119.615,239.43,119.093,239.774,117.874z"/>
	<path fill="#CC0000" d="M249.243,121.704c-3.617,0-5.856-2.611-5.856-6.268s2.239-6.268,5.856-6.268
		c3.618,0,5.857,2.611,5.857,6.268S252.861,121.704,249.243,121.704z M249.243,111.258c-2.239,0-3.445,1.741-3.445,4.179
		s1.206,4.179,3.445,4.179c2.24,0,3.446-1.741,3.446-4.179S251.483,111.258,249.243,111.258z"/>
	<path fill="#CC0000" d="M265.038,121.53h-7.752l-0.173-0.174v-11.839l0.173-0.175h2.067l0.172,0.175v9.749l0.172,0.175h5.341
		l0.172,0.174v1.741L265.038,121.53z"/>
	<path fill="#CC0000" d="M274.552,121.53H266.8l-0.173-0.174v-11.839l0.173-0.175h2.067l0.172,0.175v9.749l0.172,0.175h5.341
		l0.172,0.174v1.741L274.552,121.53z"/>
	<path fill="#CC0000" d="M284.411,121.53h-8.097l-0.173-0.174v-11.839l0.173-0.175h8.097l0.172,0.175v1.74l-0.172,0.175h-5.686
		l-0.172,0.174v2.438l0.172,0.174h5.341l0.172,0.174v1.741l-0.172,0.175h-5.341l-0.172,0.174v2.785l0.172,0.175h5.686l0.172,0.174
		v1.741L284.411,121.53z"/>
	<path fill="#CC0000" d="M296.897,121.53h-1.55l-0.173-0.174l-0.172-0.871h-0.173c-0.344,0.349-1.206,1.219-3.101,1.219
		c-3.445,0-5.685-2.611-5.685-6.268s2.239-6.268,5.856-6.268c3.446,0,4.824,1.915,5.169,3.656l-0.173,0.174h-2.067l-0.172-0.174
		c-0.345-0.696-0.861-1.567-2.757-1.567c-2.239,0-3.445,1.741-3.445,4.179s1.206,4.179,3.445,4.179c1.896,0,2.757-1.045,2.757-2.438
		l-0.172-0.174h-2.929l-0.173-0.175v-1.74l0.173-0.175h5.34l0.173,0.175v6.268L296.897,121.53z"/>
	<path fill="#CC0000" d="M307.771,121.53h-8.097l-0.173-0.174v-11.839l0.173-0.175h8.097l0.172,0.175v1.74l-0.172,0.175h-5.686
		l-0.172,0.174v2.438l0.172,0.174h5.341l0.172,0.174v1.741l-0.172,0.175h-5.341l-0.172,0.174v2.785l0.172,0.175h5.686l0.172,0.174
		v1.741L307.771,121.53z"/>
</g>
</svg>
